<svg xmlns="http://www.w3.org/2000/svg" xmlns:xlink="http://www.w3.org/1999/xlink" id="svg1" width="576" height="432" version="1.1" viewBox="0 0 576 432"><g id="figure1"><polygon style="fill:#fff;stroke:#fff;stroke-width:1;stroke-linejoin:miter;stroke-linecap:square;opacity:1" points="0 432 0 0 576 0 576 432"/><g id="axes1"><polygon style="fill:#fff;stroke:#000;stroke-width:1;stroke-linejoin:miter;stroke-linecap:square;opacity:1" points="72 388.8 72 43.2 518.4 43.2 518.4 388.8"/><defs><clipPath id="1499967875"><rect width="446.4" height="345.6" x="72" y="43.2" style="stroke:gray;fill:none"/></clipPath></defs><path style="fill:none;stroke:#00f;stroke-width:4;stroke-linejoin:miter;stroke-linecap:square;opacity:1;clip-path:url(#1499967875)" d="M 72.000000,374.308833 L 98.875958,365.373474 L 134.404042,361.453481 L 161.280000,363.378148 L 188.155958,352.132339 L 223.684042,321.625952 L 250.560000,296.669990 L 277.435958,262.001676 L 312.964042,220.008802 L 339.840000,197.088613 L 366.715958,252.056751 L 402.244042,212.714818 L 429.120000,279.310316 L 455.995958,271.785270 L 491.524042,221.838079 L 518.400000,226.285522"/><path style="fill:none;stroke:green;stroke-width:4;stroke-linejoin:miter;stroke-linecap:square;opacity:1;clip-path:url(#1499967875)" d="M 72.000000,375.693748 L 98.875958,368.892407 L 134.404042,358.042376 L 161.280000,346.637976 L 188.155958,319.884005 L 223.684042,298.936098 L 250.560000,279.358426 L 277.435958,253.613435 L 312.964042,250.376690 L 339.840000,244.794083 L 366.715958,231.251361 L 402.244042,224.299533 L 429.120000,214.749306 L 455.995958,204.673098 L 491.524042,201.324501 L 518.400000,199.076213"/><path style="fill:none;stroke:red;stroke-width:4;stroke-linejoin:miter;stroke-linecap:square;opacity:1;clip-path:url(#1499967875)" d="M 72.000000,374.966158 L 98.875958,366.885742 L 134.404042,353.488838 L 161.280000,340.698077 L 188.155958,334.632017 L 223.684042,304.918289 L 250.560000,290.945469 L 277.435958,256.681368 L 312.964042,242.248468 L 339.840000,318.357541 L 366.715958,263.260656 L 402.244042,175.146547 L 429.120000,99.660028 L 455.995958,83.754522 L 491.524042,172.130564 L 518.400000,193.483888"/><path style="fill:none;stroke:#00bfbf;stroke-width:4;stroke-linejoin:miter;stroke-linecap:square;opacity:1;clip-path:url(#1499967875)" d="M 72.000000,378.388276 L 98.875958,374.330097 L 134.404042,369.687623 L 161.280000,364.836986 L 188.155958,359.739167 L 223.684042,362.393627 L 250.560000,357.278953 L 277.435958,351.386920 L 312.964042,348.120830 L 339.840000,350.704993 L 366.715958,346.070694 L 402.244042,345.635482 L 429.120000,351.020027 L 455.995958,362.206924 L 491.524042,347.137164 L 518.400000,346.480354"/><text style="font-size:14;font-family:Verdana;font-style:normal;fill:#000" x="83.7" y="36.288">Selecting with small (16 bytes) record size (file not in cache)</text><g id="matplotlib.axis1"><g id="xtick1"><text style="font-size:12;font-family:Verdana;font-style:normal;fill:#000" x="63.586" y="401.8">10</text><text style="font-size:8.4;font-family:Verdana;font-style:normal;fill:#000" x="77.886" y="397.3">3</text></g><g id="xtick2"><path style="fill:none;stroke:#000;stroke-width:.5;stroke-linejoin:miter;stroke-linecap:butt;stroke-dasharray:1 3;stroke-dashoffset:0;opacity:1;clip-path:url(#1499967875)" d="M 161.280000,388.800000 L 161.280000,43.200000"/><path style="fill:none;stroke:#000;stroke-width:.5;stroke-linejoin:miter;stroke-linecap:butt;opacity:1" d="M 161.280000,388.800000 L 161.280000,384.800000"/><path style="fill:none;stroke:#000;stroke-width:.5;stroke-linejoin:miter;stroke-linecap:butt;opacity:1" d="M 161.280000,47.200000 L 161.280000,43.200000"/><text style="font-size:12;font-family:Verdana;font-style:normal;fill:#000" x="152.577" y="401.8">10</text><text style="font-size:8.4;font-family:Verdana;font-style:normal;fill:#000" x="166.877" y="397.3">4</text></g><g id="xtick3"><path style="fill:none;stroke:#000;stroke-width:.5;stroke-linejoin:miter;stroke-linecap:butt;stroke-dasharray:1 3;stroke-dashoffset:0;opacity:1;clip-path:url(#1499967875)" d="M 250.560000,388.800000 L 250.560000,43.200000"/><path style="fill:none;stroke:#000;stroke-width:.5;stroke-linejoin:miter;stroke-linecap:butt;opacity:1" d="M 250.560000,388.800000 L 250.560000,384.800000"/><path style="fill:none;stroke:#000;stroke-width:.5;stroke-linejoin:miter;stroke-linecap:butt;opacity:1" d="M 250.560000,47.200000 L 250.560000,43.200000"/><text style="font-size:12;font-family:Verdana;font-style:normal;fill:#000" x="242.169" y="401.8">10</text><text style="font-size:8.4;font-family:Verdana;font-style:normal;fill:#000" x="256.469" y="397.3">5</text></g><g id="xtick4"><path style="fill:none;stroke:#000;stroke-width:.5;stroke-linejoin:miter;stroke-linecap:butt;stroke-dasharray:1 3;stroke-dashoffset:0;opacity:1;clip-path:url(#1499967875)" d="M 339.840000,388.800000 L 339.840000,43.200000"/><path style="fill:none;stroke:#000;stroke-width:.5;stroke-linejoin:miter;stroke-linecap:butt;opacity:1" d="M 339.840000,388.800000 L 339.840000,384.800000"/><path style="fill:none;stroke:#000;stroke-width:.5;stroke-linejoin:miter;stroke-linecap:butt;opacity:1" d="M 339.840000,47.200000 L 339.840000,43.200000"/><text style="font-size:12;font-family:Verdana;font-style:normal;fill:#000" x="331.277" y="401.8">10</text><text style="font-size:8.4;font-family:Verdana;font-style:normal;fill:#000" x="345.577" y="397.3">6</text></g><g id="xtick5"><path style="fill:none;stroke:#000;stroke-width:.5;stroke-linejoin:miter;stroke-linecap:butt;stroke-dasharray:1 3;stroke-dashoffset:0;opacity:1;clip-path:url(#1499967875)" d="M 429.120000,388.800000 L 429.120000,43.200000"/><path style="fill:none;stroke:#000;stroke-width:.5;stroke-linejoin:miter;stroke-linecap:butt;opacity:1" d="M 429.120000,388.800000 L 429.120000,384.800000"/><path style="fill:none;stroke:#000;stroke-width:.5;stroke-linejoin:miter;stroke-linecap:butt;opacity:1" d="M 429.120000,47.200000 L 429.120000,43.200000"/><text style="font-size:12;font-family:Verdana;font-style:normal;fill:#000" x="420.636" y="401.8">10</text><text style="font-size:8.4;font-family:Verdana;font-style:normal;fill:#000" x="434.936" y="397.3">7</text></g><g id="xtick6"><text style="font-size:12;font-family:Verdana;font-style:normal;fill:#000" x="509.837" y="401.8">10</text><text style="font-size:8.4;font-family:Verdana;font-style:normal;fill:#000" x="524.138" y="397.3">8</text></g><g id="xtick7"><path style="fill:none;stroke:#000;stroke-width:.5;stroke-linejoin:miter;stroke-linecap:butt;opacity:1" d="M 98.875958,388.800000 L 98.875958,386.800000"/><path style="fill:none;stroke:#000;stroke-width:.5;stroke-linejoin:miter;stroke-linecap:butt;opacity:1" d="M 98.875958,45.200000 L 98.875958,43.200000"/></g><g id="xtick8"><path style="fill:none;stroke:#000;stroke-width:.5;stroke-linejoin:miter;stroke-linecap:butt;opacity:1" d="M 114.597386,388.800000 L 114.597386,386.800000"/><path style="fill:none;stroke:#000;stroke-width:.5;stroke-linejoin:miter;stroke-linecap:butt;opacity:1" d="M 114.597386,45.200000 L 114.597386,43.200000"/></g><g id="xtick9"><path style="fill:none;stroke:#000;stroke-width:.5;stroke-linejoin:miter;stroke-linecap:butt;opacity:1" d="M 125.751916,388.800000 L 125.751916,386.800000"/><path style="fill:none;stroke:#000;stroke-width:.5;stroke-linejoin:miter;stroke-linecap:butt;opacity:1" d="M 125.751916,45.200000 L 125.751916,43.200000"/></g><g id="xtick10"><path style="fill:none;stroke:#000;stroke-width:.5;stroke-linejoin:miter;stroke-linecap:butt;opacity:1" d="M 134.404042,388.800000 L 134.404042,386.800000"/><path style="fill:none;stroke:#000;stroke-width:.5;stroke-linejoin:miter;stroke-linecap:butt;opacity:1" d="M 134.404042,45.200000 L 134.404042,43.200000"/></g><g id="xtick11"><path style="fill:none;stroke:#000;stroke-width:.5;stroke-linejoin:miter;stroke-linecap:butt;opacity:1" d="M 141.473344,388.800000 L 141.473344,386.800000"/><path style="fill:none;stroke:#000;stroke-width:.5;stroke-linejoin:miter;stroke-linecap:butt;opacity:1" d="M 141.473344,45.200000 L 141.473344,43.200000"/></g><g id="xtick12"><path style="fill:none;stroke:#000;stroke-width:.5;stroke-linejoin:miter;stroke-linecap:butt;opacity:1" d="M 147.450353,388.800000 L 147.450353,386.800000"/><path style="fill:none;stroke:#000;stroke-width:.5;stroke-linejoin:miter;stroke-linecap:butt;opacity:1" d="M 147.450353,45.200000 L 147.450353,43.200000"/></g><g id="xtick13"><path style="fill:none;stroke:#000;stroke-width:.5;stroke-linejoin:miter;stroke-linecap:butt;opacity:1" d="M 152.627874,388.800000 L 152.627874,386.800000"/><path style="fill:none;stroke:#000;stroke-width:.5;stroke-linejoin:miter;stroke-linecap:butt;opacity:1" d="M 152.627874,45.200000 L 152.627874,43.200000"/></g><g id="xtick14"><path style="fill:none;stroke:#000;stroke-width:.5;stroke-linejoin:miter;stroke-linecap:butt;opacity:1" d="M 157.194771,388.800000 L 157.194771,386.800000"/><path style="fill:none;stroke:#000;stroke-width:.5;stroke-linejoin:miter;stroke-linecap:butt;opacity:1" d="M 157.194771,45.200000 L 157.194771,43.200000"/></g><g id="xtick15"><path style="fill:none;stroke:#000;stroke-width:.5;stroke-linejoin:miter;stroke-linecap:butt;opacity:1" d="M 188.155958,388.800000 L 188.155958,386.800000"/><path style="fill:none;stroke:#000;stroke-width:.5;stroke-linejoin:miter;stroke-linecap:butt;opacity:1" d="M 188.155958,45.200000 L 188.155958,43.200000"/></g><g id="xtick16"><path style="fill:none;stroke:#000;stroke-width:.5;stroke-linejoin:miter;stroke-linecap:butt;opacity:1" d="M 203.877386,388.800000 L 203.877386,386.800000"/><path style="fill:none;stroke:#000;stroke-width:.5;stroke-linejoin:miter;stroke-linecap:butt;opacity:1" d="M 203.877386,45.200000 L 203.877386,43.200000"/></g><g id="xtick17"><path style="fill:none;stroke:#000;stroke-width:.5;stroke-linejoin:miter;stroke-linecap:butt;opacity:1" d="M 215.031916,388.800000 L 215.031916,386.800000"/><path style="fill:none;stroke:#000;stroke-width:.5;stroke-linejoin:miter;stroke-linecap:butt;opacity:1" d="M 215.031916,45.200000 L 215.031916,43.200000"/></g><g id="xtick18"><path style="fill:none;stroke:#000;stroke-width:.5;stroke-linejoin:miter;stroke-linecap:butt;opacity:1" d="M 223.684042,388.800000 L 223.684042,386.800000"/><path style="fill:none;stroke:#000;stroke-width:.5;stroke-linejoin:miter;stroke-linecap:butt;opacity:1" d="M 223.684042,45.200000 L 223.684042,43.200000"/></g><g id="xtick19"><path style="fill:none;stroke:#000;stroke-width:.5;stroke-linejoin:miter;stroke-linecap:butt;opacity:1" d="M 230.753344,388.800000 L 230.753344,386.800000"/><path style="fill:none;stroke:#000;stroke-width:.5;stroke-linejoin:miter;stroke-linecap:butt;opacity:1" d="M 230.753344,45.200000 L 230.753344,43.200000"/></g><g id="xtick20"><path style="fill:none;stroke:#000;stroke-width:.5;stroke-linejoin:miter;stroke-linecap:butt;opacity:1" d="M 236.730353,388.800000 L 236.730353,386.800000"/><path style="fill:none;stroke:#000;stroke-width:.5;stroke-linejoin:miter;stroke-linecap:butt;opacity:1" d="M 236.730353,45.200000 L 236.730353,43.200000"/></g><g id="xtick21"><path style="fill:none;stroke:#000;stroke-width:.5;stroke-linejoin:miter;stroke-linecap:butt;opacity:1" d="M 241.907874,388.800000 L 241.907874,386.800000"/><path style="fill:none;stroke:#000;stroke-width:.5;stroke-linejoin:miter;stroke-linecap:butt;opacity:1" d="M 241.907874,45.200000 L 241.907874,43.200000"/></g><g id="xtick22"><path style="fill:none;stroke:#000;stroke-width:.5;stroke-linejoin:miter;stroke-linecap:butt;opacity:1" d="M 246.474771,388.800000 L 246.474771,386.800000"/><path style="fill:none;stroke:#000;stroke-width:.5;stroke-linejoin:miter;stroke-linecap:butt;opacity:1" d="M 246.474771,45.200000 L 246.474771,43.200000"/></g><g id="xtick23"><path style="fill:none;stroke:#000;stroke-width:.5;stroke-linejoin:miter;stroke-linecap:butt;opacity:1" d="M 277.435958,388.800000 L 277.435958,386.800000"/><path style="fill:none;stroke:#000;stroke-width:.5;stroke-linejoin:miter;stroke-linecap:butt;opacity:1" d="M 277.435958,45.200000 L 277.435958,43.200000"/></g><g id="xtick24"><path style="fill:none;stroke:#000;stroke-width:.5;stroke-linejoin:miter;stroke-linecap:butt;opacity:1" d="M 293.157386,388.800000 L 293.157386,386.800000"/><path style="fill:none;stroke:#000;stroke-width:.5;stroke-linejoin:miter;stroke-linecap:butt;opacity:1" d="M 293.157386,45.200000 L 293.157386,43.200000"/></g><g id="xtick25"><path style="fill:none;stroke:#000;stroke-width:.5;stroke-linejoin:miter;stroke-linecap:butt;opacity:1" d="M 304.311916,388.800000 L 304.311916,386.800000"/><path style="fill:none;stroke:#000;stroke-width:.5;stroke-linejoin:miter;stroke-linecap:butt;opacity:1" d="M 304.311916,45.200000 L 304.311916,43.200000"/></g><g id="xtick26"><path style="fill:none;stroke:#000;stroke-width:.5;stroke-linejoin:miter;stroke-linecap:butt;opacity:1" d="M 312.964042,388.800000 L 312.964042,386.800000"/><path style="fill:none;stroke:#000;stroke-width:.5;stroke-linejoin:miter;stroke-linecap:butt;opacity:1" d="M 312.964042,45.200000 L 312.964042,43.200000"/></g><g id="xtick27"><path style="fill:none;stroke:#000;stroke-width:.5;stroke-linejoin:miter;stroke-linecap:butt;opacity:1" d="M 320.033344,388.800000 L 320.033344,386.800000"/><path style="fill:none;stroke:#000;stroke-width:.5;stroke-linejoin:miter;stroke-linecap:butt;opacity:1" d="M 320.033344,45.200000 L 320.033344,43.200000"/></g><g id="xtick28"><path style="fill:none;stroke:#000;stroke-width:.5;stroke-linejoin:miter;stroke-linecap:butt;opacity:1" d="M 326.010353,388.800000 L 326.010353,386.800000"/><path style="fill:none;stroke:#000;stroke-width:.5;stroke-linejoin:miter;stroke-linecap:butt;opacity:1" d="M 326.010353,45.200000 L 326.010353,43.200000"/></g><g id="xtick29"><path style="fill:none;stroke:#000;stroke-width:.5;stroke-linejoin:miter;stroke-linecap:butt;opacity:1" d="M 331.187874,388.800000 L 331.187874,386.800000"/><path style="fill:none;stroke:#000;stroke-width:.5;stroke-linejoin:miter;stroke-linecap:butt;opacity:1" d="M 331.187874,45.200000 L 331.187874,43.200000"/></g><g id="xtick30"><path style="fill:none;stroke:#000;stroke-width:.5;stroke-linejoin:miter;stroke-linecap:butt;opacity:1" d="M 335.754771,388.800000 L 335.754771,386.800000"/><path style="fill:none;stroke:#000;stroke-width:.5;stroke-linejoin:miter;stroke-linecap:butt;opacity:1" d="M 335.754771,45.200000 L 335.754771,43.200000"/></g><g id="xtick31"><path style="fill:none;stroke:#000;stroke-width:.5;stroke-linejoin:miter;stroke-linecap:butt;opacity:1" d="M 366.715958,388.800000 L 366.715958,386.800000"/><path style="fill:none;stroke:#000;stroke-width:.5;stroke-linejoin:miter;stroke-linecap:butt;opacity:1" d="M 366.715958,45.200000 L 366.715958,43.200000"/></g><g id="xtick32"><path style="fill:none;stroke:#000;stroke-width:.5;stroke-linejoin:miter;stroke-linecap:butt;opacity:1" d="M 382.437386,388.800000 L 382.437386,386.800000"/><path style="fill:none;stroke:#000;stroke-width:.5;stroke-linejoin:miter;stroke-linecap:butt;opacity:1" d="M 382.437386,45.200000 L 382.437386,43.200000"/></g><g id="xtick33"><path style="fill:none;stroke:#000;stroke-width:.5;stroke-linejoin:miter;stroke-linecap:butt;opacity:1" d="M 393.591916,388.800000 L 393.591916,386.800000"/><path style="fill:none;stroke:#000;stroke-width:.5;stroke-linejoin:miter;stroke-linecap:butt;opacity:1" d="M 393.591916,45.200000 L 393.591916,43.200000"/></g><g id="xtick34"><path style="fill:none;stroke:#000;stroke-width:.5;stroke-linejoin:miter;stroke-linecap:butt;opacity:1" d="M 402.244042,388.800000 L 402.244042,386.800000"/><path style="fill:none;stroke:#000;stroke-width:.5;stroke-linejoin:miter;stroke-linecap:butt;opacity:1" d="M 402.244042,45.200000 L 402.244042,43.200000"/></g><g id="xtick35"><path style="fill:none;stroke:#000;stroke-width:.5;stroke-linejoin:miter;stroke-linecap:butt;opacity:1" d="M 409.313344,388.800000 L 409.313344,386.800000"/><path style="fill:none;stroke:#000;stroke-width:.5;stroke-linejoin:miter;stroke-linecap:butt;opacity:1" d="M 409.313344,45.200000 L 409.313344,43.200000"/></g><g id="xtick36"><path style="fill:none;stroke:#000;stroke-width:.5;stroke-linejoin:miter;stroke-linecap:butt;opacity:1" d="M 415.290353,388.800000 L 415.290353,386.800000"/><path style="fill:none;stroke:#000;stroke-width:.5;stroke-linejoin:miter;stroke-linecap:butt;opacity:1" d="M 415.290353,45.200000 L 415.290353,43.200000"/></g><g id="xtick37"><path style="fill:none;stroke:#000;stroke-width:.5;stroke-linejoin:miter;stroke-linecap:butt;opacity:1" d="M 420.467874,388.800000 L 420.467874,386.800000"/><path style="fill:none;stroke:#000;stroke-width:.5;stroke-linejoin:miter;stroke-linecap:butt;opacity:1" d="M 420.467874,45.200000 L 420.467874,43.200000"/></g><g id="xtick38"><path style="fill:none;stroke:#000;stroke-width:.5;stroke-linejoin:miter;stroke-linecap:butt;opacity:1" d="M 425.034771,388.800000 L 425.034771,386.800000"/><path style="fill:none;stroke:#000;stroke-width:.5;stroke-linejoin:miter;stroke-linecap:butt;opacity:1" d="M 425.034771,45.200000 L 425.034771,43.200000"/></g><g id="xtick39"><path style="fill:none;stroke:#000;stroke-width:.5;stroke-linejoin:miter;stroke-linecap:butt;opacity:1" d="M 455.995958,388.800000 L 455.995958,386.800000"/><path style="fill:none;stroke:#000;stroke-width:.5;stroke-linejoin:miter;stroke-linecap:butt;opacity:1" d="M 455.995958,45.200000 L 455.995958,43.200000"/></g><g id="xtick40"><path style="fill:none;stroke:#000;stroke-width:.5;stroke-linejoin:miter;stroke-linecap:butt;opacity:1" d="M 471.717386,388.800000 L 471.717386,386.800000"/><path style="fill:none;stroke:#000;stroke-width:.5;stroke-linejoin:miter;stroke-linecap:butt;opacity:1" d="M 471.717386,45.200000 L 471.717386,43.200000"/></g><g id="xtick41"><path style="fill:none;stroke:#000;stroke-width:.5;stroke-linejoin:miter;stroke-linecap:butt;opacity:1" d="M 482.871916,388.800000 L 482.871916,386.800000"/><path style="fill:none;stroke:#000;stroke-width:.5;stroke-linejoin:miter;stroke-linecap:butt;opacity:1" d="M 482.871916,45.200000 L 482.871916,43.200000"/></g><g id="xtick42"><path style="fill:none;stroke:#000;stroke-width:.5;stroke-linejoin:miter;stroke-linecap:butt;opacity:1" d="M 491.524042,388.800000 L 491.524042,386.800000"/><path style="fill:none;stroke:#000;stroke-width:.5;stroke-linejoin:miter;stroke-linecap:butt;opacity:1" d="M 491.524042,45.200000 L 491.524042,43.200000"/></g><g id="xtick43"><path style="fill:none;stroke:#000;stroke-width:.5;stroke-linejoin:miter;stroke-linecap:butt;opacity:1" d="M 498.593344,388.800000 L 498.593344,386.800000"/><path style="fill:none;stroke:#000;stroke-width:.5;stroke-linejoin:miter;stroke-linecap:butt;opacity:1" d="M 498.593344,45.200000 L 498.593344,43.200000"/></g><g id="xtick44"><path style="fill:none;stroke:#000;stroke-width:.5;stroke-linejoin:miter;stroke-linecap:butt;opacity:1" d="M 504.570353,388.800000 L 504.570353,386.800000"/><path style="fill:none;stroke:#000;stroke-width:.5;stroke-linejoin:miter;stroke-linecap:butt;opacity:1" d="M 504.570353,45.200000 L 504.570353,43.200000"/></g><g id="xtick45"><path style="fill:none;stroke:#000;stroke-width:.5;stroke-linejoin:miter;stroke-linecap:butt;opacity:1" d="M 509.747874,388.800000 L 509.747874,386.800000"/><path style="fill:none;stroke:#000;stroke-width:.5;stroke-linejoin:miter;stroke-linecap:butt;opacity:1" d="M 509.747874,45.200000 L 509.747874,43.200000"/></g><g id="xtick46"><path style="fill:none;stroke:#000;stroke-width:.5;stroke-linejoin:miter;stroke-linecap:butt;opacity:1" d="M 514.314771,388.800000 L 514.314771,386.800000"/><path style="fill:none;stroke:#000;stroke-width:.5;stroke-linejoin:miter;stroke-linecap:butt;opacity:1" d="M 514.314771,45.200000 L 514.314771,43.200000"/></g><text style="font-size:12;font-family:Verdana;font-style:normal;fill:#000" x="245.645" y="416.8">Number of rows</text></g><g id="matplotlib.axis2"><g id="ytick1"><text style="font-size:12;font-family:Verdana;font-style:normal;fill:#000" x="62" y="393.3">0</text></g><g id="ytick2"><path style="fill:none;stroke:#000;stroke-width:.5;stroke-linejoin:miter;stroke-linecap:butt;stroke-dasharray:1 3;stroke-dashoffset:0;opacity:1;clip-path:url(#1499967875)" d="M 72.000000,339.428571 L 518.400000,339.428571"/><path style="fill:none;stroke:#000;stroke-width:.5;stroke-linejoin:miter;stroke-linecap:butt;opacity:1" d="M 72.000000,339.428571 L 76.000000,339.428571"/><path style="fill:none;stroke:#000;stroke-width:.5;stroke-linejoin:miter;stroke-linecap:butt;opacity:1" d="M 514.400000,339.428571 L 518.400000,339.428571"/><text style="font-size:12;font-family:Verdana;font-style:normal;fill:#000" x="63" y="343.929">1</text></g><g id="ytick3"><path style="fill:none;stroke:#000;stroke-width:.5;stroke-linejoin:miter;stroke-linecap:butt;stroke-dasharray:1 3;stroke-dashoffset:0;opacity:1;clip-path:url(#1499967875)" d="M 72.000000,290.057143 L 518.400000,290.057143"/><path style="fill:none;stroke:#000;stroke-width:.5;stroke-linejoin:miter;stroke-linecap:butt;opacity:1" d="M 72.000000,290.057143 L 76.000000,290.057143"/><path style="fill:none;stroke:#000;stroke-width:.5;stroke-linejoin:miter;stroke-linecap:butt;opacity:1" d="M 514.400000,290.057143 L 518.400000,290.057143"/><text style="font-size:12;font-family:Verdana;font-style:normal;fill:#000" x="62" y="294.557">2</text></g><g id="ytick4"><path style="fill:none;stroke:#000;stroke-width:.5;stroke-linejoin:miter;stroke-linecap:butt;stroke-dasharray:1 3;stroke-dashoffset:0;opacity:1;clip-path:url(#1499967875)" d="M 72.000000,240.685714 L 518.400000,240.685714"/><path style="fill:none;stroke:#000;stroke-width:.5;stroke-linejoin:miter;stroke-linecap:butt;opacity:1" d="M 72.000000,240.685714 L 76.000000,240.685714"/><path style="fill:none;stroke:#000;stroke-width:.5;stroke-linejoin:miter;stroke-linecap:butt;opacity:1" d="M 514.400000,240.685714 L 518.400000,240.685714"/><text style="font-size:12;font-family:Verdana;font-style:normal;fill:#000" x="62" y="245.186">3</text></g><g id="ytick5"><path style="fill:none;stroke:#000;stroke-width:.5;stroke-linejoin:miter;stroke-linecap:butt;stroke-dasharray:1 3;stroke-dashoffset:0;opacity:1;clip-path:url(#1499967875)" d="M 72.000000,191.314286 L 518.400000,191.314286"/><path style="fill:none;stroke:#000;stroke-width:.5;stroke-linejoin:miter;stroke-linecap:butt;opacity:1" d="M 72.000000,191.314286 L 76.000000,191.314286"/><path style="fill:none;stroke:#000;stroke-width:.5;stroke-linejoin:miter;stroke-linecap:butt;opacity:1" d="M 514.400000,191.314286 L 518.400000,191.314286"/><text style="font-size:12;font-family:Verdana;font-style:normal;fill:#000" x="61" y="195.814">4</text></g><g id="ytick6"><path style="fill:none;stroke:#000;stroke-width:.5;stroke-linejoin:miter;stroke-linecap:butt;stroke-dasharray:1 3;stroke-dashoffset:0;opacity:1;clip-path:url(#1499967875)" d="M 72.000000,141.942857 L 518.400000,141.942857"/><path style="fill:none;stroke:#000;stroke-width:.5;stroke-linejoin:miter;stroke-linecap:butt;opacity:1" d="M 72.000000,141.942857 L 76.000000,141.942857"/><path style="fill:none;stroke:#000;stroke-width:.5;stroke-linejoin:miter;stroke-linecap:butt;opacity:1" d="M 514.400000,141.942857 L 518.400000,141.942857"/><text style="font-size:12;font-family:Verdana;font-style:normal;fill:#000" x="62" y="146.443">5</text></g><g id="ytick7"><path style="fill:none;stroke:#000;stroke-width:.5;stroke-linejoin:miter;stroke-linecap:butt;stroke-dasharray:1 3;stroke-dashoffset:0;opacity:1;clip-path:url(#1499967875)" d="M 72.000000,92.571429 L 518.400000,92.571429"/><path style="fill:none;stroke:#000;stroke-width:.5;stroke-linejoin:miter;stroke-linecap:butt;opacity:1" d="M 72.000000,92.571429 L 76.000000,92.571429"/><path style="fill:none;stroke:#000;stroke-width:.5;stroke-linejoin:miter;stroke-linecap:butt;opacity:1" d="M 514.400000,92.571429 L 518.400000,92.571429"/><text style="font-size:12;font-family:Verdana;font-style:normal;fill:#000" x="62" y="97.071">6</text></g><g id="ytick8"><text style="font-size:12;font-family:Verdana;font-style:normal;fill:#000" x="62" y="47.7">7</text></g><text style="font-size:12;font-family:Verdana;font-style:normal;fill:#000" x="56" y="243.055" transform="translate(56.000000,243.054688) rotate(-90.0) translate(-56.000000,-243.054688)">MRows/s</text></g><g id="legend1"><polygon style="fill:#fff;stroke:#000;stroke-width:1;stroke-linejoin:miter;stroke-linecap:square;opacity:1" points="80.928 135.962 80.928 50.112 279.226 50.112 279.226 135.962"/><path style="fill:none;stroke:#00f;stroke-width:4;stroke-linejoin:miter;stroke-linecap:square;opacity:1" d="M 100.452800,63.766160 L 107.892800,63.766160 L 115.332800,63.766160 L 122.772800,63.766160"/><path style="fill:none;stroke:green;stroke-width:4;stroke-linejoin:miter;stroke-linecap:square;opacity:1" d="M 100.452800,82.713360 L 107.892800,82.713360 L 115.332800,82.713360 L 122.772800,82.713360"/><path style="fill:none;stroke:red;stroke-width:4;stroke-linejoin:miter;stroke-linecap:square;opacity:1" d="M 100.452800,102.260560 L 107.892800,102.260560 L 115.332800,102.260560 L 122.772800,102.260560"/><path style="fill:none;stroke:#00bfbf;stroke-width:4;stroke-linejoin:miter;stroke-linecap:square;opacity:1" d="M 100.452800,121.807760 L 107.892800,121.807760 L 115.332800,121.807760 L 122.772800,121.807760"/><text style="font-size:14;font-family:Verdana;font-style:normal;fill:#000" x="131.701" y="70.266">No compression</text><text style="font-size:14;font-family:Verdana;font-style:normal;fill:#000" x="131.701" y="89.713">zlib lvl1 (Shuffle)</text><text style="font-size:14;font-family:Verdana;font-style:normal;fill:#000" x="131.701" y="109.261">lzo lvl1 (Shuffle)</text><text style="font-size:14;font-family:Verdana;font-style:normal;fill:#000" x="131.701" y="128.808">bzip2 lvl1 (Shuffle)</text></g></g></g></svg>