<svg xmlns="http://www.w3.org/2000/svg" xmlns:xlink="http://www.w3.org/1999/xlink" id="svg1" width="576" height="432" version="1.1" viewBox="0 0 576 432"><g id="figure1"><polygon style="fill:#fff;stroke:#fff;stroke-width:1;stroke-linejoin:miter;stroke-linecap:square;opacity:1" points="0 432 0 0 576 0 576 432"/><g id="axes1"><polygon style="fill:#fff;stroke:#000;stroke-width:1;stroke-linejoin:miter;stroke-linecap:square;opacity:1" points="72 388.8 72 43.2 518.4 43.2 518.4 388.8"/><defs><clipPath id="1499967875"><rect width="446.4" height="345.6" x="72" y="43.2" style="stroke:gray;fill:none"/></clipPath></defs><path style="fill:none;stroke:#00f;stroke-width:4;stroke-linejoin:miter;stroke-linecap:square;opacity:1;clip-path:url(#1499967875)" d="M 72.000000,72.175104 L 98.875958,151.801344 L 134.404042,199.577088 L 161.280000,220.810752 L 188.155958,225.875866 L 223.684042,231.232942 L 250.560000,233.984471 L 277.435958,234.925609 L 312.964042,235.374391 L 339.840000,235.562619 L 366.715958,235.830583 L 402.244042,235.869667 L 429.120000,235.891387 L 455.995958,236.034216 L 491.524042,236.041522 L 518.400000,236.043404"/><path style="fill:none;stroke:green;stroke-width:4;stroke-linejoin:miter;stroke-linecap:square;opacity:1;clip-path:url(#1499967875)" d="M 72.000000,210.415104 L 98.875958,291.700224 L 134.404042,340.471296 L 161.280000,362.390630 L 188.155958,366.427238 L 223.684042,370.651853 L 250.560000,374.623488 L 277.435958,373.495311 L 312.964042,371.529594 L 339.840000,368.560240 L 366.715958,366.225864 L 402.244042,363.263171 L 429.120000,363.048698 L 455.995958,363.789061 L 491.524042,362.922602 L 518.400000,361.714689"/><path style="fill:none;stroke:red;stroke-width:4;stroke-linejoin:miter;stroke-linecap:square;opacity:1;clip-path:url(#1499967875)" d="M 72.000000,181.992960 L 98.875958,277.489152 L 134.404042,323.462246 L 161.280000,342.561485 L 188.155958,346.382438 L 223.684042,351.585792 L 250.560000,346.504090 L 277.435958,347.010739 L 312.964042,345.453327 L 339.840000,340.549111 L 366.715958,334.468742 L 402.244042,332.528103 L 429.120000,332.240374 L 455.995958,329.120768 L 491.524042,327.132192 L 518.400000,324.983940"/><path style="fill:none;stroke:#00bfbf;stroke-width:4;stroke-linejoin:miter;stroke-linecap:square;opacity:1;clip-path:url(#1499967875)" d="M 72.000000,209.862144 L 98.875958,291.423744 L 134.404042,334.698394 L 161.280000,353.841869 L 188.155958,359.935488 L 223.684042,361.607639 L 250.560000,374.599711 L 277.435958,373.866348 L 312.964042,371.438051 L 339.840000,369.852314 L 366.715958,371.740050 L 402.244042,369.530472 L 429.120000,366.179866 L 455.995958,365.596795 L 491.524042,363.434784 L 518.400000,362.126925"/><text style="font-size:14;font-family:Verdana;font-style:normal;fill:#000" x="82.7" y="36.288">Disk space taken by a record (original record size: 16 bytes)</text><g id="matplotlib.axis1"><g id="xtick1"><text style="font-size:12;font-family:Verdana;font-style:normal;fill:#000" x="63.586" y="401.8">10</text><text style="font-size:8.4;font-family:Verdana;font-style:normal;fill:#000" x="77.886" y="397.3">3</text></g><g id="xtick2"><path style="fill:none;stroke:#000;stroke-width:.5;stroke-linejoin:miter;stroke-linecap:butt;stroke-dasharray:1 3;stroke-dashoffset:0;opacity:1;clip-path:url(#1499967875)" d="M 161.280000,388.800000 L 161.280000,43.200000"/><path style="fill:none;stroke:#000;stroke-width:.5;stroke-linejoin:miter;stroke-linecap:butt;opacity:1" d="M 161.280000,388.800000 L 161.280000,384.800000"/><path style="fill:none;stroke:#000;stroke-width:.5;stroke-linejoin:miter;stroke-linecap:butt;opacity:1" d="M 161.280000,47.200000 L 161.280000,43.200000"/><text style="font-size:12;font-family:Verdana;font-style:normal;fill:#000" x="152.577" y="401.8">10</text><text style="font-size:8.4;font-family:Verdana;font-style:normal;fill:#000" x="166.877" y="397.3">4</text></g><g id="xtick3"><path style="fill:none;stroke:#000;stroke-width:.5;stroke-linejoin:miter;stroke-linecap:butt;stroke-dasharray:1 3;stroke-dashoffset:0;opacity:1;clip-path:url(#1499967875)" d="M 250.560000,388.800000 L 250.560000,43.200000"/><path style="fill:none;stroke:#000;stroke-width:.5;stroke-linejoin:miter;stroke-linecap:butt;opacity:1" d="M 250.560000,388.800000 L 250.560000,384.800000"/><path style="fill:none;stroke:#000;stroke-width:.5;stroke-linejoin:miter;stroke-linecap:butt;opacity:1" d="M 250.560000,47.200000 L 250.560000,43.200000"/><text style="font-size:12;font-family:Verdana;font-style:normal;fill:#000" x="242.169" y="401.8">10</text><text style="font-size:8.4;font-family:Verdana;font-style:normal;fill:#000" x="256.469" y="397.3">5</text></g><g id="xtick4"><path style="fill:none;stroke:#000;stroke-width:.5;stroke-linejoin:miter;stroke-linecap:butt;stroke-dasharray:1 3;stroke-dashoffset:0;opacity:1;clip-path:url(#1499967875)" d="M 339.840000,388.800000 L 339.840000,43.200000"/><path style="fill:none;stroke:#000;stroke-width:.5;stroke-linejoin:miter;stroke-linecap:butt;opacity:1" d="M 339.840000,388.800000 L 339.840000,384.800000"/><path style="fill:none;stroke:#000;stroke-width:.5;stroke-linejoin:miter;stroke-linecap:butt;opacity:1" d="M 339.840000,47.200000 L 339.840000,43.200000"/><text style="font-size:12;font-family:Verdana;font-style:normal;fill:#000" x="331.277" y="401.8">10</text><text style="font-size:8.4;font-family:Verdana;font-style:normal;fill:#000" x="345.577" y="397.3">6</text></g><g id="xtick5"><path style="fill:none;stroke:#000;stroke-width:.5;stroke-linejoin:miter;stroke-linecap:butt;stroke-dasharray:1 3;stroke-dashoffset:0;opacity:1;clip-path:url(#1499967875)" d="M 429.120000,388.800000 L 429.120000,43.200000"/><path style="fill:none;stroke:#000;stroke-width:.5;stroke-linejoin:miter;stroke-linecap:butt;opacity:1" d="M 429.120000,388.800000 L 429.120000,384.800000"/><path style="fill:none;stroke:#000;stroke-width:.5;stroke-linejoin:miter;stroke-linecap:butt;opacity:1" d="M 429.120000,47.200000 L 429.120000,43.200000"/><text style="font-size:12;font-family:Verdana;font-style:normal;fill:#000" x="420.636" y="401.8">10</text><text style="font-size:8.4;font-family:Verdana;font-style:normal;fill:#000" x="434.936" y="397.3">7</text></g><g id="xtick6"><text style="font-size:12;font-family:Verdana;font-style:normal;fill:#000" x="509.837" y="401.8">10</text><text style="font-size:8.4;font-family:Verdana;font-style:normal;fill:#000" x="524.138" y="397.3">8</text></g><g id="xtick7"><path style="fill:none;stroke:#000;stroke-width:.5;stroke-linejoin:miter;stroke-linecap:butt;opacity:1" d="M 98.875958,388.800000 L 98.875958,386.800000"/><path style="fill:none;stroke:#000;stroke-width:.5;stroke-linejoin:miter;stroke-linecap:butt;opacity:1" d="M 98.875958,45.200000 L 98.875958,43.200000"/></g><g id="xtick8"><path style="fill:none;stroke:#000;stroke-width:.5;stroke-linejoin:miter;stroke-linecap:butt;opacity:1" d="M 114.597386,388.800000 L 114.597386,386.800000"/><path style="fill:none;stroke:#000;stroke-width:.5;stroke-linejoin:miter;stroke-linecap:butt;opacity:1" d="M 114.597386,45.200000 L 114.597386,43.200000"/></g><g id="xtick9"><path style="fill:none;stroke:#000;stroke-width:.5;stroke-linejoin:miter;stroke-linecap:butt;opacity:1" d="M 125.751916,388.800000 L 125.751916,386.800000"/><path style="fill:none;stroke:#000;stroke-width:.5;stroke-linejoin:miter;stroke-linecap:butt;opacity:1" d="M 125.751916,45.200000 L 125.751916,43.200000"/></g><g id="xtick10"><path style="fill:none;stroke:#000;stroke-width:.5;stroke-linejoin:miter;stroke-linecap:butt;opacity:1" d="M 134.404042,388.800000 L 134.404042,386.800000"/><path style="fill:none;stroke:#000;stroke-width:.5;stroke-linejoin:miter;stroke-linecap:butt;opacity:1" d="M 134.404042,45.200000 L 134.404042,43.200000"/></g><g id="xtick11"><path style="fill:none;stroke:#000;stroke-width:.5;stroke-linejoin:miter;stroke-linecap:butt;opacity:1" d="M 141.473344,388.800000 L 141.473344,386.800000"/><path style="fill:none;stroke:#000;stroke-width:.5;stroke-linejoin:miter;stroke-linecap:butt;opacity:1" d="M 141.473344,45.200000 L 141.473344,43.200000"/></g><g id="xtick12"><path style="fill:none;stroke:#000;stroke-width:.5;stroke-linejoin:miter;stroke-linecap:butt;opacity:1" d="M 147.450353,388.800000 L 147.450353,386.800000"/><path style="fill:none;stroke:#000;stroke-width:.5;stroke-linejoin:miter;stroke-linecap:butt;opacity:1" d="M 147.450353,45.200000 L 147.450353,43.200000"/></g><g id="xtick13"><path style="fill:none;stroke:#000;stroke-width:.5;stroke-linejoin:miter;stroke-linecap:butt;opacity:1" d="M 152.627874,388.800000 L 152.627874,386.800000"/><path style="fill:none;stroke:#000;stroke-width:.5;stroke-linejoin:miter;stroke-linecap:butt;opacity:1" d="M 152.627874,45.200000 L 152.627874,43.200000"/></g><g id="xtick14"><path style="fill:none;stroke:#000;stroke-width:.5;stroke-linejoin:miter;stroke-linecap:butt;opacity:1" d="M 157.194771,388.800000 L 157.194771,386.800000"/><path style="fill:none;stroke:#000;stroke-width:.5;stroke-linejoin:miter;stroke-linecap:butt;opacity:1" d="M 157.194771,45.200000 L 157.194771,43.200000"/></g><g id="xtick15"><path style="fill:none;stroke:#000;stroke-width:.5;stroke-linejoin:miter;stroke-linecap:butt;opacity:1" d="M 188.155958,388.800000 L 188.155958,386.800000"/><path style="fill:none;stroke:#000;stroke-width:.5;stroke-linejoin:miter;stroke-linecap:butt;opacity:1" d="M 188.155958,45.200000 L 188.155958,43.200000"/></g><g id="xtick16"><path style="fill:none;stroke:#000;stroke-width:.5;stroke-linejoin:miter;stroke-linecap:butt;opacity:1" d="M 203.877386,388.800000 L 203.877386,386.800000"/><path style="fill:none;stroke:#000;stroke-width:.5;stroke-linejoin:miter;stroke-linecap:butt;opacity:1" d="M 203.877386,45.200000 L 203.877386,43.200000"/></g><g id="xtick17"><path style="fill:none;stroke:#000;stroke-width:.5;stroke-linejoin:miter;stroke-linecap:butt;opacity:1" d="M 215.031916,388.800000 L 215.031916,386.800000"/><path style="fill:none;stroke:#000;stroke-width:.5;stroke-linejoin:miter;stroke-linecap:butt;opacity:1" d="M 215.031916,45.200000 L 215.031916,43.200000"/></g><g id="xtick18"><path style="fill:none;stroke:#000;stroke-width:.5;stroke-linejoin:miter;stroke-linecap:butt;opacity:1" d="M 223.684042,388.800000 L 223.684042,386.800000"/><path style="fill:none;stroke:#000;stroke-width:.5;stroke-linejoin:miter;stroke-linecap:butt;opacity:1" d="M 223.684042,45.200000 L 223.684042,43.200000"/></g><g id="xtick19"><path style="fill:none;stroke:#000;stroke-width:.5;stroke-linejoin:miter;stroke-linecap:butt;opacity:1" d="M 230.753344,388.800000 L 230.753344,386.800000"/><path style="fill:none;stroke:#000;stroke-width:.5;stroke-linejoin:miter;stroke-linecap:butt;opacity:1" d="M 230.753344,45.200000 L 230.753344,43.200000"/></g><g id="xtick20"><path style="fill:none;stroke:#000;stroke-width:.5;stroke-linejoin:miter;stroke-linecap:butt;opacity:1" d="M 236.730353,388.800000 L 236.730353,386.800000"/><path style="fill:none;stroke:#000;stroke-width:.5;stroke-linejoin:miter;stroke-linecap:butt;opacity:1" d="M 236.730353,45.200000 L 236.730353,43.200000"/></g><g id="xtick21"><path style="fill:none;stroke:#000;stroke-width:.5;stroke-linejoin:miter;stroke-linecap:butt;opacity:1" d="M 241.907874,388.800000 L 241.907874,386.800000"/><path style="fill:none;stroke:#000;stroke-width:.5;stroke-linejoin:miter;stroke-linecap:butt;opacity:1" d="M 241.907874,45.200000 L 241.907874,43.200000"/></g><g id="xtick22"><path style="fill:none;stroke:#000;stroke-width:.5;stroke-linejoin:miter;stroke-linecap:butt;opacity:1" d="M 246.474771,388.800000 L 246.474771,386.800000"/><path style="fill:none;stroke:#000;stroke-width:.5;stroke-linejoin:miter;stroke-linecap:butt;opacity:1" d="M 246.474771,45.200000 L 246.474771,43.200000"/></g><g id="xtick23"><path style="fill:none;stroke:#000;stroke-width:.5;stroke-linejoin:miter;stroke-linecap:butt;opacity:1" d="M 277.435958,388.800000 L 277.435958,386.800000"/><path style="fill:none;stroke:#000;stroke-width:.5;stroke-linejoin:miter;stroke-linecap:butt;opacity:1" d="M 277.435958,45.200000 L 277.435958,43.200000"/></g><g id="xtick24"><path style="fill:none;stroke:#000;stroke-width:.5;stroke-linejoin:miter;stroke-linecap:butt;opacity:1" d="M 293.157386,388.800000 L 293.157386,386.800000"/><path style="fill:none;stroke:#000;stroke-width:.5;stroke-linejoin:miter;stroke-linecap:butt;opacity:1" d="M 293.157386,45.200000 L 293.157386,43.200000"/></g><g id="xtick25"><path style="fill:none;stroke:#000;stroke-width:.5;stroke-linejoin:miter;stroke-linecap:butt;opacity:1" d="M 304.311916,388.800000 L 304.311916,386.800000"/><path style="fill:none;stroke:#000;stroke-width:.5;stroke-linejoin:miter;stroke-linecap:butt;opacity:1" d="M 304.311916,45.200000 L 304.311916,43.200000"/></g><g id="xtick26"><path style="fill:none;stroke:#000;stroke-width:.5;stroke-linejoin:miter;stroke-linecap:butt;opacity:1" d="M 312.964042,388.800000 L 312.964042,386.800000"/><path style="fill:none;stroke:#000;stroke-width:.5;stroke-linejoin:miter;stroke-linecap:butt;opacity:1" d="M 312.964042,45.200000 L 312.964042,43.200000"/></g><g id="xtick27"><path style="fill:none;stroke:#000;stroke-width:.5;stroke-linejoin:miter;stroke-linecap:butt;opacity:1" d="M 320.033344,388.800000 L 320.033344,386.800000"/><path style="fill:none;stroke:#000;stroke-width:.5;stroke-linejoin:miter;stroke-linecap:butt;opacity:1" d="M 320.033344,45.200000 L 320.033344,43.200000"/></g><g id="xtick28"><path style="fill:none;stroke:#000;stroke-width:.5;stroke-linejoin:miter;stroke-linecap:butt;opacity:1" d="M 326.010353,388.800000 L 326.010353,386.800000"/><path style="fill:none;stroke:#000;stroke-width:.5;stroke-linejoin:miter;stroke-linecap:butt;opacity:1" d="M 326.010353,45.200000 L 326.010353,43.200000"/></g><g id="xtick29"><path style="fill:none;stroke:#000;stroke-width:.5;stroke-linejoin:miter;stroke-linecap:butt;opacity:1" d="M 331.187874,388.800000 L 331.187874,386.800000"/><path style="fill:none;stroke:#000;stroke-width:.5;stroke-linejoin:miter;stroke-linecap:butt;opacity:1" d="M 331.187874,45.200000 L 331.187874,43.200000"/></g><g id="xtick30"><path style="fill:none;stroke:#000;stroke-width:.5;stroke-linejoin:miter;stroke-linecap:butt;opacity:1" d="M 335.754771,388.800000 L 335.754771,386.800000"/><path style="fill:none;stroke:#000;stroke-width:.5;stroke-linejoin:miter;stroke-linecap:butt;opacity:1" d="M 335.754771,45.200000 L 335.754771,43.200000"/></g><g id="xtick31"><path style="fill:none;stroke:#000;stroke-width:.5;stroke-linejoin:miter;stroke-linecap:butt;opacity:1" d="M 366.715958,388.800000 L 366.715958,386.800000"/><path style="fill:none;stroke:#000;stroke-width:.5;stroke-linejoin:miter;stroke-linecap:butt;opacity:1" d="M 366.715958,45.200000 L 366.715958,43.200000"/></g><g id="xtick32"><path style="fill:none;stroke:#000;stroke-width:.5;stroke-linejoin:miter;stroke-linecap:butt;opacity:1" d="M 382.437386,388.800000 L 382.437386,386.800000"/><path style="fill:none;stroke:#000;stroke-width:.5;stroke-linejoin:miter;stroke-linecap:butt;opacity:1" d="M 382.437386,45.200000 L 382.437386,43.200000"/></g><g id="xtick33"><path style="fill:none;stroke:#000;stroke-width:.5;stroke-linejoin:miter;stroke-linecap:butt;opacity:1" d="M 393.591916,388.800000 L 393.591916,386.800000"/><path style="fill:none;stroke:#000;stroke-width:.5;stroke-linejoin:miter;stroke-linecap:butt;opacity:1" d="M 393.591916,45.200000 L 393.591916,43.200000"/></g><g id="xtick34"><path style="fill:none;stroke:#000;stroke-width:.5;stroke-linejoin:miter;stroke-linecap:butt;opacity:1" d="M 402.244042,388.800000 L 402.244042,386.800000"/><path style="fill:none;stroke:#000;stroke-width:.5;stroke-linejoin:miter;stroke-linecap:butt;opacity:1" d="M 402.244042,45.200000 L 402.244042,43.200000"/></g><g id="xtick35"><path style="fill:none;stroke:#000;stroke-width:.5;stroke-linejoin:miter;stroke-linecap:butt;opacity:1" d="M 409.313344,388.800000 L 409.313344,386.800000"/><path style="fill:none;stroke:#000;stroke-width:.5;stroke-linejoin:miter;stroke-linecap:butt;opacity:1" d="M 409.313344,45.200000 L 409.313344,43.200000"/></g><g id="xtick36"><path style="fill:none;stroke:#000;stroke-width:.5;stroke-linejoin:miter;stroke-linecap:butt;opacity:1" d="M 415.290353,388.800000 L 415.290353,386.800000"/><path style="fill:none;stroke:#000;stroke-width:.5;stroke-linejoin:miter;stroke-linecap:butt;opacity:1" d="M 415.290353,45.200000 L 415.290353,43.200000"/></g><g id="xtick37"><path style="fill:none;stroke:#000;stroke-width:.5;stroke-linejoin:miter;stroke-linecap:butt;opacity:1" d="M 420.467874,388.800000 L 420.467874,386.800000"/><path style="fill:none;stroke:#000;stroke-width:.5;stroke-linejoin:miter;stroke-linecap:butt;opacity:1" d="M 420.467874,45.200000 L 420.467874,43.200000"/></g><g id="xtick38"><path style="fill:none;stroke:#000;stroke-width:.5;stroke-linejoin:miter;stroke-linecap:butt;opacity:1" d="M 425.034771,388.800000 L 425.034771,386.800000"/><path style="fill:none;stroke:#000;stroke-width:.5;stroke-linejoin:miter;stroke-linecap:butt;opacity:1" d="M 425.034771,45.200000 L 425.034771,43.200000"/></g><g id="xtick39"><path style="fill:none;stroke:#000;stroke-width:.5;stroke-linejoin:miter;stroke-linecap:butt;opacity:1" d="M 455.995958,388.800000 L 455.995958,386.800000"/><path style="fill:none;stroke:#000;stroke-width:.5;stroke-linejoin:miter;stroke-linecap:butt;opacity:1" d="M 455.995958,45.200000 L 455.995958,43.200000"/></g><g id="xtick40"><path style="fill:none;stroke:#000;stroke-width:.5;stroke-linejoin:miter;stroke-linecap:butt;opacity:1" d="M 471.717386,388.800000 L 471.717386,386.800000"/><path style="fill:none;stroke:#000;stroke-width:.5;stroke-linejoin:miter;stroke-linecap:butt;opacity:1" d="M 471.717386,45.200000 L 471.717386,43.200000"/></g><g id="xtick41"><path style="fill:none;stroke:#000;stroke-width:.5;stroke-linejoin:miter;stroke-linecap:butt;opacity:1" d="M 482.871916,388.800000 L 482.871916,386.800000"/><path style="fill:none;stroke:#000;stroke-width:.5;stroke-linejoin:miter;stroke-linecap:butt;opacity:1" d="M 482.871916,45.200000 L 482.871916,43.200000"/></g><g id="xtick42"><path style="fill:none;stroke:#000;stroke-width:.5;stroke-linejoin:miter;stroke-linecap:butt;opacity:1" d="M 491.524042,388.800000 L 491.524042,386.800000"/><path style="fill:none;stroke:#000;stroke-width:.5;stroke-linejoin:miter;stroke-linecap:butt;opacity:1" d="M 491.524042,45.200000 L 491.524042,43.200000"/></g><g id="xtick43"><path style="fill:none;stroke:#000;stroke-width:.5;stroke-linejoin:miter;stroke-linecap:butt;opacity:1" d="M 498.593344,388.800000 L 498.593344,386.800000"/><path style="fill:none;stroke:#000;stroke-width:.5;stroke-linejoin:miter;stroke-linecap:butt;opacity:1" d="M 498.593344,45.200000 L 498.593344,43.200000"/></g><g id="xtick44"><path style="fill:none;stroke:#000;stroke-width:.5;stroke-linejoin:miter;stroke-linecap:butt;opacity:1" d="M 504.570353,388.800000 L 504.570353,386.800000"/><path style="fill:none;stroke:#000;stroke-width:.5;stroke-linejoin:miter;stroke-linecap:butt;opacity:1" d="M 504.570353,45.200000 L 504.570353,43.200000"/></g><g id="xtick45"><path style="fill:none;stroke:#000;stroke-width:.5;stroke-linejoin:miter;stroke-linecap:butt;opacity:1" d="M 509.747874,388.800000 L 509.747874,386.800000"/><path style="fill:none;stroke:#000;stroke-width:.5;stroke-linejoin:miter;stroke-linecap:butt;opacity:1" d="M 509.747874,45.200000 L 509.747874,43.200000"/></g><g id="xtick46"><path style="fill:none;stroke:#000;stroke-width:.5;stroke-linejoin:miter;stroke-linecap:butt;opacity:1" d="M 514.314771,388.800000 L 514.314771,386.800000"/><path style="fill:none;stroke:#000;stroke-width:.5;stroke-linejoin:miter;stroke-linecap:butt;opacity:1" d="M 514.314771,45.200000 L 514.314771,43.200000"/></g><text style="font-size:12;font-family:Verdana;font-style:normal;fill:#000" x="245.645" y="416.8">Number of rows</text></g><g id="matplotlib.axis2"><g id="ytick1"><text style="font-size:12;font-family:Verdana;font-style:normal;fill:#000" x="62" y="393.3">5</text></g><g id="ytick2"><path style="fill:none;stroke:#000;stroke-width:.5;stroke-linejoin:miter;stroke-linecap:butt;stroke-dasharray:1 3;stroke-dashoffset:0;opacity:1;clip-path:url(#1499967875)" d="M 72.000000,319.680000 L 518.400000,319.680000"/><path style="fill:none;stroke:#000;stroke-width:.5;stroke-linejoin:miter;stroke-linecap:butt;opacity:1" d="M 72.000000,319.680000 L 76.000000,319.680000"/><path style="fill:none;stroke:#000;stroke-width:.5;stroke-linejoin:miter;stroke-linecap:butt;opacity:1" d="M 514.400000,319.680000 L 518.400000,319.680000"/><text style="font-size:12;font-family:Verdana;font-style:normal;fill:#000" x="55" y="324.18">10</text></g><g id="ytick3"><path style="fill:none;stroke:#000;stroke-width:.5;stroke-linejoin:miter;stroke-linecap:butt;stroke-dasharray:1 3;stroke-dashoffset:0;opacity:1;clip-path:url(#1499967875)" d="M 72.000000,250.560000 L 518.400000,250.560000"/><path style="fill:none;stroke:#000;stroke-width:.5;stroke-linejoin:miter;stroke-linecap:butt;opacity:1" d="M 72.000000,250.560000 L 76.000000,250.560000"/><path style="fill:none;stroke:#000;stroke-width:.5;stroke-linejoin:miter;stroke-linecap:butt;opacity:1" d="M 514.400000,250.560000 L 518.400000,250.560000"/><text style="font-size:12;font-family:Verdana;font-style:normal;fill:#000" x="55" y="255.06">15</text></g><g id="ytick4"><path style="fill:none;stroke:#000;stroke-width:.5;stroke-linejoin:miter;stroke-linecap:butt;stroke-dasharray:1 3;stroke-dashoffset:0;opacity:1;clip-path:url(#1499967875)" d="M 72.000000,181.440000 L 518.400000,181.440000"/><path style="fill:none;stroke:#000;stroke-width:.5;stroke-linejoin:miter;stroke-linecap:butt;opacity:1" d="M 72.000000,181.440000 L 76.000000,181.440000"/><path style="fill:none;stroke:#000;stroke-width:.5;stroke-linejoin:miter;stroke-linecap:butt;opacity:1" d="M 514.400000,181.440000 L 518.400000,181.440000"/><text style="font-size:12;font-family:Verdana;font-style:normal;fill:#000" x="54" y="185.94">20</text></g><g id="ytick5"><path style="fill:none;stroke:#000;stroke-width:.5;stroke-linejoin:miter;stroke-linecap:butt;stroke-dasharray:1 3;stroke-dashoffset:0;opacity:1;clip-path:url(#1499967875)" d="M 72.000000,112.320000 L 518.400000,112.320000"/><path style="fill:none;stroke:#000;stroke-width:.5;stroke-linejoin:miter;stroke-linecap:butt;opacity:1" d="M 72.000000,112.320000 L 76.000000,112.320000"/><path style="fill:none;stroke:#000;stroke-width:.5;stroke-linejoin:miter;stroke-linecap:butt;opacity:1" d="M 514.400000,112.320000 L 518.400000,112.320000"/><text style="font-size:12;font-family:Verdana;font-style:normal;fill:#000" x="54" y="116.82">25</text></g><g id="ytick6"><text style="font-size:12;font-family:Verdana;font-style:normal;fill:#000" x="54" y="47.7">30</text></g><text style="font-size:12;font-family:Verdana;font-style:normal;fill:#000" x="49" y="247" transform="translate(49.000000,247.000000) rotate(-90.0) translate(-49.000000,-247.000000)">Bytes/row</text></g><g id="legend1"><polygon style="fill:#fff;stroke:#000;stroke-width:1;stroke-linejoin:miter;stroke-linecap:square;opacity:1" points="333.974 128.042 333.974 50.112 509.472 50.112 509.472 128.042"/><path style="fill:none;stroke:#00f;stroke-width:4;stroke-linejoin:miter;stroke-linecap:square;opacity:1" d="M 351.599200,63.106160 L 359.039200,63.106160 L 366.479200,63.106160 L 373.919200,63.106160"/><path style="fill:none;stroke:green;stroke-width:4;stroke-linejoin:miter;stroke-linecap:square;opacity:1" d="M 351.599200,80.553360 L 359.039200,80.553360 L 366.479200,80.553360 L 373.919200,80.553360"/><path style="fill:none;stroke:red;stroke-width:4;stroke-linejoin:miter;stroke-linecap:square;opacity:1" d="M 351.599200,96.800560 L 359.039200,96.800560 L 366.479200,96.800560 L 373.919200,96.800560"/><path style="fill:none;stroke:#00bfbf;stroke-width:4;stroke-linejoin:miter;stroke-linecap:square;opacity:1" d="M 351.599200,114.547760 L 359.039200,114.547760 L 366.479200,114.547760 L 373.919200,114.547760"/><text style="font-size:14;font-family:Verdana;font-style:normal;fill:#000" x="382.847" y="69.606">No compression</text><text style="font-size:14;font-family:Verdana;font-style:normal;fill:#000" x="382.847" y="86.053">zlib lvl1</text><text style="font-size:14;font-family:Verdana;font-style:normal;fill:#000" x="382.847" y="102.301">lzo lvl1</text><text style="font-size:14;font-family:Verdana;font-style:normal;fill:#000" x="382.847" y="121.548">bzip2 lvl1</text></g></g></g></svg>