<svg xmlns="http://www.w3.org/2000/svg" xmlns:xlink="http://www.w3.org/1999/xlink" id="svg1" width="576" height="432" version="1.1" viewBox="0 0 576 432"><g id="figure1"><polygon style="fill:#fff;stroke:#fff;stroke-width:1;stroke-linejoin:miter;stroke-linecap:square;opacity:1" points="0 432 0 0 576 0 576 432"/><g id="axes1"><polygon style="fill:#fff;stroke:#000;stroke-width:1;stroke-linejoin:miter;stroke-linecap:square;opacity:1" points="72 388.8 72 43.2 518.4 43.2 518.4 388.8"/><defs><clipPath id="1499967875"><rect width="446.4" height="345.6" x="72" y="43.2" style="stroke:gray;fill:none"/></clipPath></defs><path style="fill:none;stroke:#00f;stroke-width:4;stroke-linejoin:miter;stroke-linecap:square;opacity:1;clip-path:url(#1499967875)" d="M 72.000000,363.440457 L 98.875958,347.803579 L 134.404042,340.943592 L 161.280000,344.311759 L 188.155958,324.631594 L 223.684042,271.245417 L 250.560000,227.572483 L 277.435958,166.902934 L 312.964042,93.415404 L 339.840000,53.305072 L 366.715958,149.499314 L 402.244042,80.650931 L 429.120000,197.193054 L 455.995958,184.024222 L 491.524042,96.616638 L 518.400000,104.399664"/><path style="fill:none;stroke:green;stroke-width:4;stroke-linejoin:miter;stroke-linecap:square;opacity:1;clip-path:url(#1499967875)" d="M 72.000000,367.402511 L 98.875958,356.734534 L 134.404042,342.222978 L 161.280000,324.533159 L 188.155958,314.429703 L 223.684042,305.376611 L 250.560000,277.140405 L 277.435958,251.885306 L 312.964042,286.040000 L 339.840000,234.451185 L 366.715958,231.289537 L 402.244042,351.319492 L 429.120000,291.952563 L 455.995958,208.731218 L 491.524042,247.661932 L 518.400000,188.745295"/><path style="fill:none;stroke:red;stroke-width:4;stroke-linejoin:miter;stroke-linecap:square;opacity:1;clip-path:url(#1499967875)" d="M 72.000000,364.700255 L 98.875958,350.704035 L 134.404042,327.480181 L 161.280000,315.752658 L 188.155958,305.707340 L 223.684042,283.431411 L 250.560000,236.547706 L 277.435958,178.266057 L 312.964042,343.400776 L 339.840000,134.062085 L 366.715958,90.005594 L 402.244042,60.644229 L 429.120000,123.594026 L 455.995958,103.672897 L 491.524042,95.506860 L 518.400000,51.237921"/><path style="fill:none;stroke:#00bfbf;stroke-width:4;stroke-linejoin:miter;stroke-linecap:square;opacity:1;clip-path:url(#1499967875)" d="M 72.000000,372.577794 L 98.875958,367.210660 L 134.404042,362.074049 L 161.280000,357.812376 L 188.155958,359.987493 L 223.684042,356.434173 L 250.560000,349.422898 L 277.435958,347.609380 L 312.964042,346.444939 L 339.840000,357.204550 L 366.715958,344.120958 L 402.244042,343.986611 L 429.120000,344.184426 L 455.995958,344.109035 L 491.524042,344.575381 L 518.400000,344.531751"/><text style="font-size:14;font-family:Verdana;font-style:normal;fill:#000" x="83.7" y="36.288">Selecting with small (16 bytes) record size (file not in cache)</text><g id="matplotlib.axis1"><g id="xtick1"><text style="font-size:12;font-family:Verdana;font-style:normal;fill:#000" x="63.586" y="401.8">10</text><text style="font-size:8.4;font-family:Verdana;font-style:normal;fill:#000" x="77.886" y="397.3">3</text></g><g id="xtick2"><path style="fill:none;stroke:#000;stroke-width:.5;stroke-linejoin:miter;stroke-linecap:butt;stroke-dasharray:1 3;stroke-dashoffset:0;opacity:1;clip-path:url(#1499967875)" d="M 161.280000,388.800000 L 161.280000,43.200000"/><path style="fill:none;stroke:#000;stroke-width:.5;stroke-linejoin:miter;stroke-linecap:butt;opacity:1" d="M 161.280000,388.800000 L 161.280000,384.800000"/><path style="fill:none;stroke:#000;stroke-width:.5;stroke-linejoin:miter;stroke-linecap:butt;opacity:1" d="M 161.280000,47.200000 L 161.280000,43.200000"/><text style="font-size:12;font-family:Verdana;font-style:normal;fill:#000" x="152.577" y="401.8">10</text><text style="font-size:8.4;font-family:Verdana;font-style:normal;fill:#000" x="166.877" y="397.3">4</text></g><g id="xtick3"><path style="fill:none;stroke:#000;stroke-width:.5;stroke-linejoin:miter;stroke-linecap:butt;stroke-dasharray:1 3;stroke-dashoffset:0;opacity:1;clip-path:url(#1499967875)" d="M 250.560000,388.800000 L 250.560000,43.200000"/><path style="fill:none;stroke:#000;stroke-width:.5;stroke-linejoin:miter;stroke-linecap:butt;opacity:1" d="M 250.560000,388.800000 L 250.560000,384.800000"/><path style="fill:none;stroke:#000;stroke-width:.5;stroke-linejoin:miter;stroke-linecap:butt;opacity:1" d="M 250.560000,47.200000 L 250.560000,43.200000"/><text style="font-size:12;font-family:Verdana;font-style:normal;fill:#000" x="242.169" y="401.8">10</text><text style="font-size:8.4;font-family:Verdana;font-style:normal;fill:#000" x="256.469" y="397.3">5</text></g><g id="xtick4"><path style="fill:none;stroke:#000;stroke-width:.5;stroke-linejoin:miter;stroke-linecap:butt;stroke-dasharray:1 3;stroke-dashoffset:0;opacity:1;clip-path:url(#1499967875)" d="M 339.840000,388.800000 L 339.840000,43.200000"/><path style="fill:none;stroke:#000;stroke-width:.5;stroke-linejoin:miter;stroke-linecap:butt;opacity:1" d="M 339.840000,388.800000 L 339.840000,384.800000"/><path style="fill:none;stroke:#000;stroke-width:.5;stroke-linejoin:miter;stroke-linecap:butt;opacity:1" d="M 339.840000,47.200000 L 339.840000,43.200000"/><text style="font-size:12;font-family:Verdana;font-style:normal;fill:#000" x="331.277" y="401.8">10</text><text style="font-size:8.4;font-family:Verdana;font-style:normal;fill:#000" x="345.577" y="397.3">6</text></g><g id="xtick5"><path style="fill:none;stroke:#000;stroke-width:.5;stroke-linejoin:miter;stroke-linecap:butt;stroke-dasharray:1 3;stroke-dashoffset:0;opacity:1;clip-path:url(#1499967875)" d="M 429.120000,388.800000 L 429.120000,43.200000"/><path style="fill:none;stroke:#000;stroke-width:.5;stroke-linejoin:miter;stroke-linecap:butt;opacity:1" d="M 429.120000,388.800000 L 429.120000,384.800000"/><path style="fill:none;stroke:#000;stroke-width:.5;stroke-linejoin:miter;stroke-linecap:butt;opacity:1" d="M 429.120000,47.200000 L 429.120000,43.200000"/><text style="font-size:12;font-family:Verdana;font-style:normal;fill:#000" x="420.636" y="401.8">10</text><text style="font-size:8.4;font-family:Verdana;font-style:normal;fill:#000" x="434.936" y="397.3">7</text></g><g id="xtick6"><text style="font-size:12;font-family:Verdana;font-style:normal;fill:#000" x="509.837" y="401.8">10</text><text style="font-size:8.4;font-family:Verdana;font-style:normal;fill:#000" x="524.138" y="397.3">8</text></g><g id="xtick7"><path style="fill:none;stroke:#000;stroke-width:.5;stroke-linejoin:miter;stroke-linecap:butt;opacity:1" d="M 98.875958,388.800000 L 98.875958,386.800000"/><path style="fill:none;stroke:#000;stroke-width:.5;stroke-linejoin:miter;stroke-linecap:butt;opacity:1" d="M 98.875958,45.200000 L 98.875958,43.200000"/></g><g id="xtick8"><path style="fill:none;stroke:#000;stroke-width:.5;stroke-linejoin:miter;stroke-linecap:butt;opacity:1" d="M 114.597386,388.800000 L 114.597386,386.800000"/><path style="fill:none;stroke:#000;stroke-width:.5;stroke-linejoin:miter;stroke-linecap:butt;opacity:1" d="M 114.597386,45.200000 L 114.597386,43.200000"/></g><g id="xtick9"><path style="fill:none;stroke:#000;stroke-width:.5;stroke-linejoin:miter;stroke-linecap:butt;opacity:1" d="M 125.751916,388.800000 L 125.751916,386.800000"/><path style="fill:none;stroke:#000;stroke-width:.5;stroke-linejoin:miter;stroke-linecap:butt;opacity:1" d="M 125.751916,45.200000 L 125.751916,43.200000"/></g><g id="xtick10"><path style="fill:none;stroke:#000;stroke-width:.5;stroke-linejoin:miter;stroke-linecap:butt;opacity:1" d="M 134.404042,388.800000 L 134.404042,386.800000"/><path style="fill:none;stroke:#000;stroke-width:.5;stroke-linejoin:miter;stroke-linecap:butt;opacity:1" d="M 134.404042,45.200000 L 134.404042,43.200000"/></g><g id="xtick11"><path style="fill:none;stroke:#000;stroke-width:.5;stroke-linejoin:miter;stroke-linecap:butt;opacity:1" d="M 141.473344,388.800000 L 141.473344,386.800000"/><path style="fill:none;stroke:#000;stroke-width:.5;stroke-linejoin:miter;stroke-linecap:butt;opacity:1" d="M 141.473344,45.200000 L 141.473344,43.200000"/></g><g id="xtick12"><path style="fill:none;stroke:#000;stroke-width:.5;stroke-linejoin:miter;stroke-linecap:butt;opacity:1" d="M 147.450353,388.800000 L 147.450353,386.800000"/><path style="fill:none;stroke:#000;stroke-width:.5;stroke-linejoin:miter;stroke-linecap:butt;opacity:1" d="M 147.450353,45.200000 L 147.450353,43.200000"/></g><g id="xtick13"><path style="fill:none;stroke:#000;stroke-width:.5;stroke-linejoin:miter;stroke-linecap:butt;opacity:1" d="M 152.627874,388.800000 L 152.627874,386.800000"/><path style="fill:none;stroke:#000;stroke-width:.5;stroke-linejoin:miter;stroke-linecap:butt;opacity:1" d="M 152.627874,45.200000 L 152.627874,43.200000"/></g><g id="xtick14"><path style="fill:none;stroke:#000;stroke-width:.5;stroke-linejoin:miter;stroke-linecap:butt;opacity:1" d="M 157.194771,388.800000 L 157.194771,386.800000"/><path style="fill:none;stroke:#000;stroke-width:.5;stroke-linejoin:miter;stroke-linecap:butt;opacity:1" d="M 157.194771,45.200000 L 157.194771,43.200000"/></g><g id="xtick15"><path style="fill:none;stroke:#000;stroke-width:.5;stroke-linejoin:miter;stroke-linecap:butt;opacity:1" d="M 188.155958,388.800000 L 188.155958,386.800000"/><path style="fill:none;stroke:#000;stroke-width:.5;stroke-linejoin:miter;stroke-linecap:butt;opacity:1" d="M 188.155958,45.200000 L 188.155958,43.200000"/></g><g id="xtick16"><path style="fill:none;stroke:#000;stroke-width:.5;stroke-linejoin:miter;stroke-linecap:butt;opacity:1" d="M 203.877386,388.800000 L 203.877386,386.800000"/><path style="fill:none;stroke:#000;stroke-width:.5;stroke-linejoin:miter;stroke-linecap:butt;opacity:1" d="M 203.877386,45.200000 L 203.877386,43.200000"/></g><g id="xtick17"><path style="fill:none;stroke:#000;stroke-width:.5;stroke-linejoin:miter;stroke-linecap:butt;opacity:1" d="M 215.031916,388.800000 L 215.031916,386.800000"/><path style="fill:none;stroke:#000;stroke-width:.5;stroke-linejoin:miter;stroke-linecap:butt;opacity:1" d="M 215.031916,45.200000 L 215.031916,43.200000"/></g><g id="xtick18"><path style="fill:none;stroke:#000;stroke-width:.5;stroke-linejoin:miter;stroke-linecap:butt;opacity:1" d="M 223.684042,388.800000 L 223.684042,386.800000"/><path style="fill:none;stroke:#000;stroke-width:.5;stroke-linejoin:miter;stroke-linecap:butt;opacity:1" d="M 223.684042,45.200000 L 223.684042,43.200000"/></g><g id="xtick19"><path style="fill:none;stroke:#000;stroke-width:.5;stroke-linejoin:miter;stroke-linecap:butt;opacity:1" d="M 230.753344,388.800000 L 230.753344,386.800000"/><path style="fill:none;stroke:#000;stroke-width:.5;stroke-linejoin:miter;stroke-linecap:butt;opacity:1" d="M 230.753344,45.200000 L 230.753344,43.200000"/></g><g id="xtick20"><path style="fill:none;stroke:#000;stroke-width:.5;stroke-linejoin:miter;stroke-linecap:butt;opacity:1" d="M 236.730353,388.800000 L 236.730353,386.800000"/><path style="fill:none;stroke:#000;stroke-width:.5;stroke-linejoin:miter;stroke-linecap:butt;opacity:1" d="M 236.730353,45.200000 L 236.730353,43.200000"/></g><g id="xtick21"><path style="fill:none;stroke:#000;stroke-width:.5;stroke-linejoin:miter;stroke-linecap:butt;opacity:1" d="M 241.907874,388.800000 L 241.907874,386.800000"/><path style="fill:none;stroke:#000;stroke-width:.5;stroke-linejoin:miter;stroke-linecap:butt;opacity:1" d="M 241.907874,45.200000 L 241.907874,43.200000"/></g><g id="xtick22"><path style="fill:none;stroke:#000;stroke-width:.5;stroke-linejoin:miter;stroke-linecap:butt;opacity:1" d="M 246.474771,388.800000 L 246.474771,386.800000"/><path style="fill:none;stroke:#000;stroke-width:.5;stroke-linejoin:miter;stroke-linecap:butt;opacity:1" d="M 246.474771,45.200000 L 246.474771,43.200000"/></g><g id="xtick23"><path style="fill:none;stroke:#000;stroke-width:.5;stroke-linejoin:miter;stroke-linecap:butt;opacity:1" d="M 277.435958,388.800000 L 277.435958,386.800000"/><path style="fill:none;stroke:#000;stroke-width:.5;stroke-linejoin:miter;stroke-linecap:butt;opacity:1" d="M 277.435958,45.200000 L 277.435958,43.200000"/></g><g id="xtick24"><path style="fill:none;stroke:#000;stroke-width:.5;stroke-linejoin:miter;stroke-linecap:butt;opacity:1" d="M 293.157386,388.800000 L 293.157386,386.800000"/><path style="fill:none;stroke:#000;stroke-width:.5;stroke-linejoin:miter;stroke-linecap:butt;opacity:1" d="M 293.157386,45.200000 L 293.157386,43.200000"/></g><g id="xtick25"><path style="fill:none;stroke:#000;stroke-width:.5;stroke-linejoin:miter;stroke-linecap:butt;opacity:1" d="M 304.311916,388.800000 L 304.311916,386.800000"/><path style="fill:none;stroke:#000;stroke-width:.5;stroke-linejoin:miter;stroke-linecap:butt;opacity:1" d="M 304.311916,45.200000 L 304.311916,43.200000"/></g><g id="xtick26"><path style="fill:none;stroke:#000;stroke-width:.5;stroke-linejoin:miter;stroke-linecap:butt;opacity:1" d="M 312.964042,388.800000 L 312.964042,386.800000"/><path style="fill:none;stroke:#000;stroke-width:.5;stroke-linejoin:miter;stroke-linecap:butt;opacity:1" d="M 312.964042,45.200000 L 312.964042,43.200000"/></g><g id="xtick27"><path style="fill:none;stroke:#000;stroke-width:.5;stroke-linejoin:miter;stroke-linecap:butt;opacity:1" d="M 320.033344,388.800000 L 320.033344,386.800000"/><path style="fill:none;stroke:#000;stroke-width:.5;stroke-linejoin:miter;stroke-linecap:butt;opacity:1" d="M 320.033344,45.200000 L 320.033344,43.200000"/></g><g id="xtick28"><path style="fill:none;stroke:#000;stroke-width:.5;stroke-linejoin:miter;stroke-linecap:butt;opacity:1" d="M 326.010353,388.800000 L 326.010353,386.800000"/><path style="fill:none;stroke:#000;stroke-width:.5;stroke-linejoin:miter;stroke-linecap:butt;opacity:1" d="M 326.010353,45.200000 L 326.010353,43.200000"/></g><g id="xtick29"><path style="fill:none;stroke:#000;stroke-width:.5;stroke-linejoin:miter;stroke-linecap:butt;opacity:1" d="M 331.187874,388.800000 L 331.187874,386.800000"/><path style="fill:none;stroke:#000;stroke-width:.5;stroke-linejoin:miter;stroke-linecap:butt;opacity:1" d="M 331.187874,45.200000 L 331.187874,43.200000"/></g><g id="xtick30"><path style="fill:none;stroke:#000;stroke-width:.5;stroke-linejoin:miter;stroke-linecap:butt;opacity:1" d="M 335.754771,388.800000 L 335.754771,386.800000"/><path style="fill:none;stroke:#000;stroke-width:.5;stroke-linejoin:miter;stroke-linecap:butt;opacity:1" d="M 335.754771,45.200000 L 335.754771,43.200000"/></g><g id="xtick31"><path style="fill:none;stroke:#000;stroke-width:.5;stroke-linejoin:miter;stroke-linecap:butt;opacity:1" d="M 366.715958,388.800000 L 366.715958,386.800000"/><path style="fill:none;stroke:#000;stroke-width:.5;stroke-linejoin:miter;stroke-linecap:butt;opacity:1" d="M 366.715958,45.200000 L 366.715958,43.200000"/></g><g id="xtick32"><path style="fill:none;stroke:#000;stroke-width:.5;stroke-linejoin:miter;stroke-linecap:butt;opacity:1" d="M 382.437386,388.800000 L 382.437386,386.800000"/><path style="fill:none;stroke:#000;stroke-width:.5;stroke-linejoin:miter;stroke-linecap:butt;opacity:1" d="M 382.437386,45.200000 L 382.437386,43.200000"/></g><g id="xtick33"><path style="fill:none;stroke:#000;stroke-width:.5;stroke-linejoin:miter;stroke-linecap:butt;opacity:1" d="M 393.591916,388.800000 L 393.591916,386.800000"/><path style="fill:none;stroke:#000;stroke-width:.5;stroke-linejoin:miter;stroke-linecap:butt;opacity:1" d="M 393.591916,45.200000 L 393.591916,43.200000"/></g><g id="xtick34"><path style="fill:none;stroke:#000;stroke-width:.5;stroke-linejoin:miter;stroke-linecap:butt;opacity:1" d="M 402.244042,388.800000 L 402.244042,386.800000"/><path style="fill:none;stroke:#000;stroke-width:.5;stroke-linejoin:miter;stroke-linecap:butt;opacity:1" d="M 402.244042,45.200000 L 402.244042,43.200000"/></g><g id="xtick35"><path style="fill:none;stroke:#000;stroke-width:.5;stroke-linejoin:miter;stroke-linecap:butt;opacity:1" d="M 409.313344,388.800000 L 409.313344,386.800000"/><path style="fill:none;stroke:#000;stroke-width:.5;stroke-linejoin:miter;stroke-linecap:butt;opacity:1" d="M 409.313344,45.200000 L 409.313344,43.200000"/></g><g id="xtick36"><path style="fill:none;stroke:#000;stroke-width:.5;stroke-linejoin:miter;stroke-linecap:butt;opacity:1" d="M 415.290353,388.800000 L 415.290353,386.800000"/><path style="fill:none;stroke:#000;stroke-width:.5;stroke-linejoin:miter;stroke-linecap:butt;opacity:1" d="M 415.290353,45.200000 L 415.290353,43.200000"/></g><g id="xtick37"><path style="fill:none;stroke:#000;stroke-width:.5;stroke-linejoin:miter;stroke-linecap:butt;opacity:1" d="M 420.467874,388.800000 L 420.467874,386.800000"/><path style="fill:none;stroke:#000;stroke-width:.5;stroke-linejoin:miter;stroke-linecap:butt;opacity:1" d="M 420.467874,45.200000 L 420.467874,43.200000"/></g><g id="xtick38"><path style="fill:none;stroke:#000;stroke-width:.5;stroke-linejoin:miter;stroke-linecap:butt;opacity:1" d="M 425.034771,388.800000 L 425.034771,386.800000"/><path style="fill:none;stroke:#000;stroke-width:.5;stroke-linejoin:miter;stroke-linecap:butt;opacity:1" d="M 425.034771,45.200000 L 425.034771,43.200000"/></g><g id="xtick39"><path style="fill:none;stroke:#000;stroke-width:.5;stroke-linejoin:miter;stroke-linecap:butt;opacity:1" d="M 455.995958,388.800000 L 455.995958,386.800000"/><path style="fill:none;stroke:#000;stroke-width:.5;stroke-linejoin:miter;stroke-linecap:butt;opacity:1" d="M 455.995958,45.200000 L 455.995958,43.200000"/></g><g id="xtick40"><path style="fill:none;stroke:#000;stroke-width:.5;stroke-linejoin:miter;stroke-linecap:butt;opacity:1" d="M 471.717386,388.800000 L 471.717386,386.800000"/><path style="fill:none;stroke:#000;stroke-width:.5;stroke-linejoin:miter;stroke-linecap:butt;opacity:1" d="M 471.717386,45.200000 L 471.717386,43.200000"/></g><g id="xtick41"><path style="fill:none;stroke:#000;stroke-width:.5;stroke-linejoin:miter;stroke-linecap:butt;opacity:1" d="M 482.871916,388.800000 L 482.871916,386.800000"/><path style="fill:none;stroke:#000;stroke-width:.5;stroke-linejoin:miter;stroke-linecap:butt;opacity:1" d="M 482.871916,45.200000 L 482.871916,43.200000"/></g><g id="xtick42"><path style="fill:none;stroke:#000;stroke-width:.5;stroke-linejoin:miter;stroke-linecap:butt;opacity:1" d="M 491.524042,388.800000 L 491.524042,386.800000"/><path style="fill:none;stroke:#000;stroke-width:.5;stroke-linejoin:miter;stroke-linecap:butt;opacity:1" d="M 491.524042,45.200000 L 491.524042,43.200000"/></g><g id="xtick43"><path style="fill:none;stroke:#000;stroke-width:.5;stroke-linejoin:miter;stroke-linecap:butt;opacity:1" d="M 498.593344,388.800000 L 498.593344,386.800000"/><path style="fill:none;stroke:#000;stroke-width:.5;stroke-linejoin:miter;stroke-linecap:butt;opacity:1" d="M 498.593344,45.200000 L 498.593344,43.200000"/></g><g id="xtick44"><path style="fill:none;stroke:#000;stroke-width:.5;stroke-linejoin:miter;stroke-linecap:butt;opacity:1" d="M 504.570353,388.800000 L 504.570353,386.800000"/><path style="fill:none;stroke:#000;stroke-width:.5;stroke-linejoin:miter;stroke-linecap:butt;opacity:1" d="M 504.570353,45.200000 L 504.570353,43.200000"/></g><g id="xtick45"><path style="fill:none;stroke:#000;stroke-width:.5;stroke-linejoin:miter;stroke-linecap:butt;opacity:1" d="M 509.747874,388.800000 L 509.747874,386.800000"/><path style="fill:none;stroke:#000;stroke-width:.5;stroke-linejoin:miter;stroke-linecap:butt;opacity:1" d="M 509.747874,45.200000 L 509.747874,43.200000"/></g><g id="xtick46"><path style="fill:none;stroke:#000;stroke-width:.5;stroke-linejoin:miter;stroke-linecap:butt;opacity:1" d="M 514.314771,388.800000 L 514.314771,386.800000"/><path style="fill:none;stroke:#000;stroke-width:.5;stroke-linejoin:miter;stroke-linecap:butt;opacity:1" d="M 514.314771,45.200000 L 514.314771,43.200000"/></g><text style="font-size:12;font-family:Verdana;font-style:normal;fill:#000" x="245.645" y="416.8">Number of rows</text></g><g id="matplotlib.axis2"><g id="ytick1"><text style="font-size:12;font-family:Verdana;font-style:normal;fill:#000" x="50" y="393.3">0.0</text></g><g id="ytick2"><path style="fill:none;stroke:#000;stroke-width:.5;stroke-linejoin:miter;stroke-linecap:butt;stroke-dasharray:1 3;stroke-dashoffset:0;opacity:1;clip-path:url(#1499967875)" d="M 72.000000,345.600000 L 518.400000,345.600000"/><path style="fill:none;stroke:#000;stroke-width:.5;stroke-linejoin:miter;stroke-linecap:butt;opacity:1" d="M 72.000000,345.600000 L 76.000000,345.600000"/><path style="fill:none;stroke:#000;stroke-width:.5;stroke-linejoin:miter;stroke-linecap:butt;opacity:1" d="M 514.400000,345.600000 L 518.400000,345.600000"/><text style="font-size:12;font-family:Verdana;font-style:normal;fill:#000" x="50" y="350.1">0.5</text></g><g id="ytick3"><path style="fill:none;stroke:#000;stroke-width:.5;stroke-linejoin:miter;stroke-linecap:butt;stroke-dasharray:1 3;stroke-dashoffset:0;opacity:1;clip-path:url(#1499967875)" d="M 72.000000,302.400000 L 518.400000,302.400000"/><path style="fill:none;stroke:#000;stroke-width:.5;stroke-linejoin:miter;stroke-linecap:butt;opacity:1" d="M 72.000000,302.400000 L 76.000000,302.400000"/><path style="fill:none;stroke:#000;stroke-width:.5;stroke-linejoin:miter;stroke-linecap:butt;opacity:1" d="M 514.400000,302.400000 L 518.400000,302.400000"/><text style="font-size:12;font-family:Verdana;font-style:normal;fill:#000" x="51" y="306.9">1.0</text></g><g id="ytick4"><path style="fill:none;stroke:#000;stroke-width:.5;stroke-linejoin:miter;stroke-linecap:butt;stroke-dasharray:1 3;stroke-dashoffset:0;opacity:1;clip-path:url(#1499967875)" d="M 72.000000,259.200000 L 518.400000,259.200000"/><path style="fill:none;stroke:#000;stroke-width:.5;stroke-linejoin:miter;stroke-linecap:butt;opacity:1" d="M 72.000000,259.200000 L 76.000000,259.200000"/><path style="fill:none;stroke:#000;stroke-width:.5;stroke-linejoin:miter;stroke-linecap:butt;opacity:1" d="M 514.400000,259.200000 L 518.400000,259.200000"/><text style="font-size:12;font-family:Verdana;font-style:normal;fill:#000" x="51" y="263.7">1.5</text></g><g id="ytick5"><path style="fill:none;stroke:#000;stroke-width:.5;stroke-linejoin:miter;stroke-linecap:butt;stroke-dasharray:1 3;stroke-dashoffset:0;opacity:1;clip-path:url(#1499967875)" d="M 72.000000,216.000000 L 518.400000,216.000000"/><path style="fill:none;stroke:#000;stroke-width:.5;stroke-linejoin:miter;stroke-linecap:butt;opacity:1" d="M 72.000000,216.000000 L 76.000000,216.000000"/><path style="fill:none;stroke:#000;stroke-width:.5;stroke-linejoin:miter;stroke-linecap:butt;opacity:1" d="M 514.400000,216.000000 L 518.400000,216.000000"/><text style="font-size:12;font-family:Verdana;font-style:normal;fill:#000" x="50" y="220.5">2.0</text></g><g id="ytick6"><path style="fill:none;stroke:#000;stroke-width:.5;stroke-linejoin:miter;stroke-linecap:butt;stroke-dasharray:1 3;stroke-dashoffset:0;opacity:1;clip-path:url(#1499967875)" d="M 72.000000,172.800000 L 518.400000,172.800000"/><path style="fill:none;stroke:#000;stroke-width:.5;stroke-linejoin:miter;stroke-linecap:butt;opacity:1" d="M 72.000000,172.800000 L 76.000000,172.800000"/><path style="fill:none;stroke:#000;stroke-width:.5;stroke-linejoin:miter;stroke-linecap:butt;opacity:1" d="M 514.400000,172.800000 L 518.400000,172.800000"/><text style="font-size:12;font-family:Verdana;font-style:normal;fill:#000" x="50" y="177.3">2.5</text></g><g id="ytick7"><path style="fill:none;stroke:#000;stroke-width:.5;stroke-linejoin:miter;stroke-linecap:butt;stroke-dasharray:1 3;stroke-dashoffset:0;opacity:1;clip-path:url(#1499967875)" d="M 72.000000,129.600000 L 518.400000,129.600000"/><path style="fill:none;stroke:#000;stroke-width:.5;stroke-linejoin:miter;stroke-linecap:butt;opacity:1" d="M 72.000000,129.600000 L 76.000000,129.600000"/><path style="fill:none;stroke:#000;stroke-width:.5;stroke-linejoin:miter;stroke-linecap:butt;opacity:1" d="M 514.400000,129.600000 L 518.400000,129.600000"/><text style="font-size:12;font-family:Verdana;font-style:normal;fill:#000" x="50" y="134.1">3.0</text></g><g id="ytick8"><path style="fill:none;stroke:#000;stroke-width:.5;stroke-linejoin:miter;stroke-linecap:butt;stroke-dasharray:1 3;stroke-dashoffset:0;opacity:1;clip-path:url(#1499967875)" d="M 72.000000,86.400000 L 518.400000,86.400000"/><path style="fill:none;stroke:#000;stroke-width:.5;stroke-linejoin:miter;stroke-linecap:butt;opacity:1" d="M 72.000000,86.400000 L 76.000000,86.400000"/><path style="fill:none;stroke:#000;stroke-width:.5;stroke-linejoin:miter;stroke-linecap:butt;opacity:1" d="M 514.400000,86.400000 L 518.400000,86.400000"/><text style="font-size:12;font-family:Verdana;font-style:normal;fill:#000" x="50" y="90.9">3.5</text></g><g id="ytick9"><text style="font-size:12;font-family:Verdana;font-style:normal;fill:#000" x="50" y="47.7">4.0</text></g><text style="font-size:12;font-family:Verdana;font-style:normal;fill:#000" x="45" y="243.055" transform="translate(45.000000,243.054688) rotate(-90.0) translate(-45.000000,-243.054688)">MRows/s</text></g><g id="legend1"><polygon style="fill:#fff;stroke:#000;stroke-width:1;stroke-linejoin:miter;stroke-linecap:square;opacity:1" points="80.928 128.042 80.928 50.112 256.426 50.112 256.426 128.042"/><path style="fill:none;stroke:#00f;stroke-width:4;stroke-linejoin:miter;stroke-linecap:square;opacity:1" d="M 98.552800,63.106160 L 105.992800,63.106160 L 113.432800,63.106160 L 120.872800,63.106160"/><path style="fill:none;stroke:green;stroke-width:4;stroke-linejoin:miter;stroke-linecap:square;opacity:1" d="M 98.552800,80.553360 L 105.992800,80.553360 L 113.432800,80.553360 L 120.872800,80.553360"/><path style="fill:none;stroke:red;stroke-width:4;stroke-linejoin:miter;stroke-linecap:square;opacity:1" d="M 98.552800,96.800560 L 105.992800,96.800560 L 113.432800,96.800560 L 120.872800,96.800560"/><path style="fill:none;stroke:#00bfbf;stroke-width:4;stroke-linejoin:miter;stroke-linecap:square;opacity:1" d="M 98.552800,114.547760 L 105.992800,114.547760 L 113.432800,114.547760 L 120.872800,114.547760"/><text style="font-size:14;font-family:Verdana;font-style:normal;fill:#000" x="129.801" y="69.606">No compression</text><text style="font-size:14;font-family:Verdana;font-style:normal;fill:#000" x="129.801" y="86.053">zlib lvl1</text><text style="font-size:14;font-family:Verdana;font-style:normal;fill:#000" x="129.801" y="102.301">lzo lvl1</text><text style="font-size:14;font-family:Verdana;font-style:normal;fill:#000" x="129.801" y="121.548">bzip2 lvl1</text></g></g></g></svg>