<svg xmlns="http://www.w3.org/2000/svg" xmlns:cc="http://web.resource.org/cc/" xmlns:svg="http://www.w3.org/2000/svg" xmlns:xlink="http://www.w3.org/1999/xlink" id="svg1" width="768" height="576" version="1.1" viewBox="0 0 576 432"><metadata id="metadata956"/><defs id="defs954"><marker id="Arrow1Mend" orient="auto" refX="0" refY="0" style="overflow:visible"><path id="path3651" d="M 0.0,0.0 L 5.0,-5.0 L -12.5,0.0 L 5.0,5.0 L 0.0,0.0 z" transform="scale(0.4) rotate(180) translate(10,0)" style="fill-rule:evenodd;stroke:#000;stroke-width:1pt;marker-start:none"/></marker><marker id="Arrow1Mstart" orient="auto" refX="0" refY="0" style="overflow:visible"><path id="path8274" d="M 0.0,0.0 L 5.0,-5.0 L -12.5,0.0 L 5.0,5.0 L 0.0,0.0 z" transform="scale(0.4) translate(10,0)" style="fill-rule:evenodd;stroke:#000;stroke-width:1pt;marker-start:none"/></marker><marker id="Arrow2Mend" orient="auto" refX="0" refY="0" style="overflow:visible"><path id="path8295" d="M 8.7185878,4.0337352 L -2.2072895,0.016013256 L 8.7185884,-4.0017078 C 6.9730900,-1.6296469 6.9831476,1.6157441 8.7185878,4.0337352 z" transform="scale(0.6) rotate(180) translate(0,0)" style="font-size:12;fill-rule:evenodd;stroke-width:.625;stroke-linejoin:round"/></marker><marker id="Arrow2Mstart" orient="auto" refX="0" refY="0" style="overflow:visible"><path id="path8292" d="M 8.7185878,4.0337352 L -2.2072895,0.016013256 L 8.7185884,-4.0017078 C 6.9730900,-1.6296469 6.9831476,1.6157441 8.7185878,4.0337352 z" transform="scale(0.6) translate(0,0)" style="font-size:12;fill-rule:evenodd;stroke-width:.625;stroke-linejoin:round"/></marker></defs><g id="figure1"><path style="fill:#fff;stroke:#fff;stroke-width:1;stroke-linejoin:miter;stroke-linecap:square;opacity:1" id="path261" d="M0.000000 432.000000L576.000000 432.000000L576.000000 0.000000 L0.000000 0.000000L0.000000 432.000000"/><g id="axes1"><path style="fill:#fff;opacity:1" id="path264" d="M72.000000 388.800000L518.400000 388.800000L518.400000 43.200000 L72.000000 43.200000L72.000000 388.800000"/><defs id="defs266"><clipPath id="p50431ccdcb28178602d99d9270004dde"><rect id="rect269" width="446.4" height="345.6" x="72" y="43.2"/></clipPath></defs><path style="fill:#00f;stroke:#000;stroke-width:1;stroke-linejoin:miter;stroke-linecap:square;opacity:1" id="path271" d="M124.080000 388.800000L146.400000 388.800000L146.400000 376.570944 L124.080000 376.570944L124.080000 388.800000" clip-path="url(#p50431ccdcb28178602d99d9270004dde)"/><path style="fill:#00f;stroke:#000;stroke-width:1;stroke-linejoin:miter;stroke-linecap:square;opacity:1" id="path273" d="M198.480000 388.800000L220.800000 388.800000L220.800000 311.110272 L198.480000 311.110272L198.480000 388.800000" clip-path="url(#p50431ccdcb28178602d99d9270004dde)"/><path style="fill:#00f;stroke:#000;stroke-width:1;stroke-linejoin:miter;stroke-linecap:square;opacity:1" id="path275" d="M272.880000 388.800000L295.200000 388.800000L295.200000 301.525056 L272.880000 301.525056L272.880000 388.800000" clip-path="url(#p50431ccdcb28178602d99d9270004dde)"/><path style="fill:#00f;stroke:#000;stroke-width:1;stroke-linejoin:miter;stroke-linecap:square;opacity:1" id="path277" d="M347.280000 388.800000L369.600000 388.800000L369.600000 262.866240 L347.280000 262.866240L347.280000 388.800000" clip-path="url(#p50431ccdcb28178602d99d9270004dde)"/><path style="opacity:1;fill:#00f;stroke:#000;stroke-width:1;stroke-linecap:square;stroke-linejoin:miter" id="path279" d="M 421.68,388.8 L 444,388.8 L 444,129.44506 L 421.68,129.44506 L 421.68,388.8" clip-path="url(#p50431ccdcb28178602d99d9270004dde)" transform="translate(33.6,0)"/><path style="fill:red;stroke:#000;stroke-width:1;stroke-linejoin:miter;stroke-linecap:square;opacity:1" id="path281" d="M146.400000 388.800000L168.720000 388.800000L168.720000 376.036416 L146.400000 376.036416L146.400000 388.800000" clip-path="url(#p50431ccdcb28178602d99d9270004dde)"/><path style="fill:red;stroke:#000;stroke-width:1;stroke-linejoin:miter;stroke-linecap:square;opacity:1" id="path283" d="M220.800000 388.800000L243.120000 388.800000L243.120000 212.439168 L220.800000 212.439168L220.800000 388.800000" clip-path="url(#p50431ccdcb28178602d99d9270004dde)"/><path style="fill:red;stroke:#000;stroke-width:1;stroke-linejoin:miter;stroke-linecap:square;opacity:1" id="path285" d="M295.200000 388.800000L317.520000 388.800000L317.520000 196.183296 L295.200000 196.183296L295.200000 388.800000" clip-path="url(#p50431ccdcb28178602d99d9270004dde)"/><path style="fill:red;stroke:#000;stroke-width:1;stroke-linejoin:miter;stroke-linecap:square;opacity:1" id="path287" d="M369.600000 388.800000L391.920000 388.800000L391.920000 182.422656 L369.600000 182.422656L369.600000 388.800000" clip-path="url(#p50431ccdcb28178602d99d9270004dde)"/><path style="opacity:1;fill:red;stroke:#000;stroke-width:1;stroke-linecap:square;stroke-linejoin:miter" id="path289" d="M 444,388.8 L 466.32,388.8 L 466.32,76.190976 L 444,76.190976 L 444,388.8" clip-path="url(#p50431ccdcb28178602d99d9270004dde)" transform="translate(33.6,0)"/><g id="matplotlib.axis1"><g id="xtick1"><g id="line2d1"><defs id="defs294"><path id="m30e32995789d870ad79a2e54c91cf9c6" d="M0.000000 0.000000L0.000000 -4.000000"/></defs><g id="g297"><use style="fill:none;stroke:#000;stroke-width:.5;stroke-linejoin:miter;stroke-linecap:butt;opacity:1" id="use299" x="146.4" y="388.8" xlink:href="#m30e32995789d870ad79a2e54c91cf9c6"/></g></g><g id="line2d2"><defs id="defs302"><path id="m9281cae24120827b11d5ea8a7ad3e96b" d="M0.000000 0.000000L0.000000 4.000000"/></defs><g id="g305"><use style="fill:none;stroke:#000;stroke-width:.5;stroke-linejoin:miter;stroke-linecap:butt;opacity:1" id="use307" x="146.4" y="43.2" xlink:href="#m9281cae24120827b11d5ea8a7ad3e96b"/></g></g><defs id="defs309"><path id="c_c438d87e693443c2861ebd6359e6491e" d="M8.500000 -21.578125l0.000000 -33.109375l8.984375 0.000000l0.000000 32.765625q0.000000 7.765625 3.015625 11.656250q3.031250 3.875000 9.093750 3.875000q7.265625 0.000000 11.484375 -4.640625q4.234375 -4.640625 4.234375 -12.656250l0.000000 -31.000000l8.984375 0.000000l0.000000 54.687500l-8.984375 0.000000l0.000000 -8.406250q-3.265625 4.984375 -7.593750 7.406250q-4.312500 2.421875 -10.031250 2.421875q-9.421875 0.000000 -14.312500 -5.859375q-4.875000 -5.859375 -4.875000 -17.140625"/><path id="c_5099edb83619131346ae654950954dea" d="M9.421875 -75.984375l8.984375 0.000000l0.000000 75.984375l-8.984375 0.000000z"/><path id="c_0f8c41144cfbf448378cb6fd1cc8e549" d="M18.312500 -70.218750l0.000000 15.531250l18.500000 0.000000l0.000000 6.984375l-18.500000 0.000000l0.000000 29.687500q0.000000 6.687500 1.828125 8.593750q1.828125 1.906250 7.453125 1.906250l9.218750 0.000000l0.000000 7.515625l-9.218750 0.000000q-10.406250 0.000000 -14.359375 -3.875000q-3.953125 -3.890625 -3.953125 -14.140625l0.000000 -29.687500l-6.593750 0.000000l0.000000 -6.984375l6.593750 0.000000l0.000000 -15.531250z"/><path id="c_6ec8d5749226675394676a5d2a3b468b" d="M41.109375 -46.296875q-1.515625 -0.875000 -3.296875 -1.281250q-1.781250 -0.421875 -3.921875 -0.421875q-7.625000 0.000000 -11.703125 4.953125q-4.078125 4.953125 -4.078125 14.234375l0.000000 28.812500l-9.031250 0.000000l0.000000 -54.687500l9.031250 0.000000l0.000000 8.500000q2.843750 -4.984375 7.375000 -7.390625q4.546875 -2.421875 11.046875 -2.421875q0.921875 0.000000 2.046875 0.125000q1.125000 0.109375 2.484375 0.359375z"/><path id="c_01d93a582460e35a7945ca50d148ffeb" d="M34.281250 -27.484375q-10.890625 0.000000 -15.093750 2.484375q-4.203125 2.484375 -4.203125 8.500000q0.000000 4.781250 3.156250 7.593750q3.156250 2.796875 8.562500 2.796875q7.484375 0.000000 12.000000 -5.296875q4.515625 -5.296875 4.515625 -14.078125l0.000000 -2.000000zM52.203125 -31.203125l0.000000 31.203125l-8.984375 0.000000l0.000000 -8.296875q-3.078125 4.968750 -7.671875 7.343750q-4.593750 2.375000 -11.234375 2.375000q-8.390625 0.000000 -13.359375 -4.718750q-4.953125 -4.718750 -4.953125 -12.625000q0.000000 -9.218750 6.171875 -13.906250q6.187500 -4.687500 18.437500 -4.687500l12.609375 0.000000l0.000000 -0.890625q0.000000 -6.203125 -4.078125 -9.593750q-4.078125 -3.390625 -11.453125 -3.390625q-4.687500 0.000000 -9.140625 1.125000q-4.437500 1.125000 -8.531250 3.375000l0.000000 -8.312500q4.921875 -1.906250 9.562500 -2.843750q4.640625 -0.953125 9.031250 -0.953125q11.875000 0.000000 17.734375 6.156250q5.859375 6.140625 5.859375 18.640625"/><path id="c_6a63bda47b2f3da1cec6aadd80692cfe" d="M9.421875 -54.687500l8.984375 0.000000l0.000000 54.687500l-8.984375 0.000000zM9.421875 -75.984375l8.984375 0.000000l0.000000 11.390625l-8.984375 0.000000z"/><path id="c_e3864de5dabf2f8dd9eee74726882ec1" d="M45.406250 -27.984375q0.000000 -9.765625 -4.031250 -15.125000q-4.015625 -5.375000 -11.296875 -5.375000q-7.218750 0.000000 -11.250000 5.375000q-4.031250 5.359375 -4.031250 15.125000q0.000000 9.718750 4.031250 15.093750q4.031250 5.375000 11.250000 5.375000q7.281250 0.000000 11.296875 -5.375000q4.031250 -5.375000 4.031250 -15.093750M54.390625 -6.781250q0.000000 13.953125 -6.203125 20.765625q-6.187500 6.812500 -18.984375 6.812500q-4.734375 0.000000 -8.937500 -0.703125q-4.203125 -0.703125 -8.156250 -2.171875l0.000000 -8.734375q3.953125 2.140625 7.812500 3.156250q3.859375 1.031250 7.859375 1.031250q8.843750 0.000000 13.234375 -4.609375q4.390625 -4.609375 4.390625 -13.937500l0.000000 -4.453125q-2.781250 4.843750 -7.125000 7.234375q-4.343750 2.390625 -10.406250 2.390625q-10.046875 0.000000 -16.203125 -7.656250q-6.156250 -7.671875 -6.156250 -20.328125q0.000000 -12.687500 6.156250 -20.343750q6.156250 -7.671875 16.203125 -7.671875q6.062500 0.000000 10.406250 2.390625q4.343750 2.390625 7.125000 7.218750l0.000000 -8.296875l8.984375 0.000000z"/><path id="c_74d54c94aa871ec39e2bc6697dde6c00" d="M54.890625 -33.015625l0.000000 33.015625l-8.984375 0.000000l0.000000 -32.718750q0.000000 -7.765625 -3.031250 -11.609375q-3.031250 -3.859375 -9.078125 -3.859375q-7.281250 0.000000 -11.484375 4.640625q-4.203125 4.625000 -4.203125 12.640625l0.000000 30.906250l-9.031250 0.000000l0.000000 -75.984375l9.031250 0.000000l0.000000 29.796875q3.234375 -4.937500 7.593750 -7.375000q4.375000 -2.437500 10.093750 -2.437500q9.421875 0.000000 14.250000 5.828125q4.843750 5.828125 4.843750 17.156250"/><path id="c_9c6d5cbc59c6231647eb409cc6b37bb3" d="M25.390625 -72.906250l8.296875 0.000000l-25.390625 82.187500l-8.296875 0.000000z"/><path id="c_680e57528fc97ec49605e10827a40086" d="M39.406250 -66.218750q-10.750000 0.000000 -17.078125 8.015625q-6.312500 8.000000 -6.312500 21.828125q0.000000 13.765625 6.312500 21.781250q6.328125 8.000000 17.078125 8.000000q10.734375 0.000000 17.015625 -8.000000q6.281250 -8.015625 6.281250 -21.781250q0.000000 -13.828125 -6.281250 -21.828125q-6.281250 -8.015625 -17.015625 -8.015625M39.406250 -74.218750q15.328125 0.000000 24.500000 10.281250q9.187500 10.281250 9.187500 27.562500q0.000000 17.234375 -9.187500 27.515625q-9.171875 10.281250 -24.500000 10.281250q-15.375000 0.000000 -24.593750 -10.250000q-9.203125 -10.265625 -9.203125 -27.546875q0.000000 -17.281250 9.203125 -27.562500q9.218750 -10.281250 24.593750 -10.281250"/><path id="c_3dcfa38a02242cb63ec6726c6e70be7a" d="M40.578125 -39.312500q7.078125 1.515625 11.046875 6.312500q3.984375 4.781250 3.984375 11.812500q0.000000 10.781250 -7.421875 16.703125q-7.421875 5.906250 -21.093750 5.906250q-4.578125 0.000000 -9.437500 -0.906250q-4.859375 -0.906250 -10.031250 -2.718750l0.000000 -9.515625q4.093750 2.390625 8.968750 3.609375q4.890625 1.218750 10.218750 1.218750q9.265625 0.000000 14.125000 -3.656250q4.859375 -3.656250 4.859375 -10.640625q0.000000 -6.453125 -4.515625 -10.078125q-4.515625 -3.640625 -12.562500 -3.640625l-8.500000 0.000000l0.000000 -8.109375l8.890625 0.000000q7.265625 0.000000 11.125000 -2.906250q3.859375 -2.906250 3.859375 -8.375000q0.000000 -5.609375 -3.984375 -8.609375q-3.968750 -3.015625 -11.390625 -3.015625q-4.062500 0.000000 -8.703125 0.890625q-4.640625 0.875000 -10.203125 2.718750l0.000000 -8.781250q5.625000 -1.562500 10.531250 -2.343750q4.906250 -0.781250 9.250000 -0.781250q11.234375 0.000000 17.765625 5.109375q6.546875 5.093750 6.546875 13.781250q0.000000 6.062500 -3.468750 10.234375q-3.468750 4.171875 -9.859375 5.781250"/></defs><g style="fill:#000;opacity:1" id="g322" transform="translate(109.556250,401.925000)scale(0.120000)"><use id="use324" xlink:href="#c_c438d87e693443c2861ebd6359e6491e"/><use id="use326" x="63.379" xlink:href="#c_5099edb83619131346ae654950954dea"/><use id="use328" x="91.162" xlink:href="#c_0f8c41144cfbf448378cb6fd1cc8e549"/><use id="use330" x="130.371" xlink:href="#c_6ec8d5749226675394676a5d2a3b468b"/><use id="use332" x="171.484" xlink:href="#c_01d93a582460e35a7945ca50d148ffeb"/><use id="use334" x="232.764" xlink:href="#c_5099edb83619131346ae654950954dea"/><use id="use336" x="260.547" xlink:href="#c_6a63bda47b2f3da1cec6aadd80692cfe"/><use id="use338" x="288.33" xlink:href="#c_e3864de5dabf2f8dd9eee74726882ec1"/><use id="use340" x="351.807" xlink:href="#c_74d54c94aa871ec39e2bc6697dde6c00"/><use id="use342" x="415.186" xlink:href="#c_0f8c41144cfbf448378cb6fd1cc8e549"/><use id="use344" x="454.395" xlink:href="#c_9c6d5cbc59c6231647eb409cc6b37bb3"/><use id="use346" x="488.086" xlink:href="#c_680e57528fc97ec49605e10827a40086"/><use id="use348" x="566.797" xlink:href="#c_3dcfa38a02242cb63ec6726c6e70be7a"/></g></g><g id="xtick2"><g id="line2d3"><g id="g352"><use style="fill:none;stroke:#000;stroke-width:.5;stroke-linejoin:miter;stroke-linecap:butt;opacity:1" id="use354" x="220.8" y="388.8" xlink:href="#m30e32995789d870ad79a2e54c91cf9c6"/></g></g><g id="line2d4"><g id="g357"><use style="fill:none;stroke:#000;stroke-width:.5;stroke-linejoin:miter;stroke-linecap:butt;opacity:1" id="use359" x="220.8" y="43.2" xlink:href="#m9281cae24120827b11d5ea8a7ad3e96b"/></g></g><defs id="defs361"><path id="c_cc8d6d580d1b10c8632f7a42cd53db8a" d="M33.015625 -40.375000q-6.640625 0.000000 -10.531250 4.546875q-3.875000 4.531250 -3.875000 12.437500q0.000000 7.859375 3.875000 12.437500q3.890625 4.562500 10.531250 4.562500q6.640625 0.000000 10.515625 -4.562500q3.875000 -4.578125 3.875000 -12.437500q0.000000 -7.906250 -3.875000 -12.437500q-3.875000 -4.546875 -10.515625 -4.546875M52.593750 -71.296875l0.000000 8.984375q-3.718750 -1.750000 -7.500000 -2.671875q-3.781250 -0.937500 -7.500000 -0.937500q-9.765625 0.000000 -14.921875 6.593750q-5.140625 6.593750 -5.875000 19.921875q2.875000 -4.250000 7.218750 -6.515625q4.359375 -2.265625 9.578125 -2.265625q10.984375 0.000000 17.359375 6.671875q6.375000 6.656250 6.375000 18.125000q0.000000 11.234375 -6.640625 18.031250q-6.640625 6.781250 -17.671875 6.781250q-12.656250 0.000000 -19.343750 -9.687500q-6.687500 -9.703125 -6.687500 -28.109375q0.000000 -17.281250 8.203125 -27.562500q8.203125 -10.281250 22.015625 -10.281250q3.718750 0.000000 7.500000 0.734375q3.781250 0.734375 7.890625 2.187500"/></defs><g style="fill:#000;opacity:1" id="g364" transform="translate(197.878125,401.925000)scale(0.120000)"><use id="use366" xlink:href="#c_5099edb83619131346ae654950954dea"/><use id="use368" x="27.783" xlink:href="#c_6a63bda47b2f3da1cec6aadd80692cfe"/><use id="use370" x="55.566" xlink:href="#c_e3864de5dabf2f8dd9eee74726882ec1"/><use id="use372" x="119.043" xlink:href="#c_74d54c94aa871ec39e2bc6697dde6c00"/><use id="use374" x="182.422" xlink:href="#c_0f8c41144cfbf448378cb6fd1cc8e549"/><use id="use376" x="221.631" xlink:href="#c_9c6d5cbc59c6231647eb409cc6b37bb3"/><use id="use378" x="255.322" xlink:href="#c_680e57528fc97ec49605e10827a40086"/><use id="use380" x="334.033" xlink:href="#c_cc8d6d580d1b10c8632f7a42cd53db8a"/></g></g><g id="xtick3"><g id="line2d5"><g id="g384"><use style="fill:none;stroke:#000;stroke-width:.5;stroke-linejoin:miter;stroke-linecap:butt;opacity:1" id="use386" x="295.2" y="388.8" xlink:href="#m30e32995789d870ad79a2e54c91cf9c6"/></g></g><g id="line2d6"><g id="g389"><use style="fill:none;stroke:#000;stroke-width:.5;stroke-linejoin:miter;stroke-linecap:butt;opacity:1" id="use391" x="295.2" y="43.2" xlink:href="#m9281cae24120827b11d5ea8a7ad3e96b"/></g></g><defs id="defs393"><path id="c_4653c6dfde66c7610eae0911760d3490" d="M52.000000 -44.187500q3.375000 -6.062500 8.062500 -8.937500q4.687500 -2.875000 11.031250 -2.875000q8.546875 0.000000 13.187500 5.984375q4.640625 5.968750 4.640625 17.000000l0.000000 33.015625l-9.031250 0.000000l0.000000 -32.718750q0.000000 -7.859375 -2.796875 -11.656250q-2.781250 -3.812500 -8.484375 -3.812500q-6.984375 0.000000 -11.046875 4.640625q-4.046875 4.625000 -4.046875 12.640625l0.000000 30.906250l-9.031250 0.000000l0.000000 -32.718750q0.000000 -7.906250 -2.781250 -11.687500q-2.781250 -3.781250 -8.593750 -3.781250q-6.890625 0.000000 -10.953125 4.656250q-4.046875 4.656250 -4.046875 12.625000l0.000000 30.906250l-9.031250 0.000000l0.000000 -54.687500l9.031250 0.000000l0.000000 8.500000q3.078125 -5.031250 7.375000 -7.421875q4.296875 -2.390625 10.203125 -2.390625q5.968750 0.000000 10.140625 3.031250q4.171875 3.015625 6.171875 8.781250"/><path id="c_0bce5afba2dc6b9024b26277c38ad8e8" d="M56.203125 -29.593750l0.000000 4.390625l-41.312500 0.000000q0.593750 9.281250 5.593750 14.140625q5.000000 4.859375 13.937500 4.859375q5.171875 0.000000 10.031250 -1.265625q4.859375 -1.265625 9.656250 -3.812500l0.000000 8.500000q-4.843750 2.046875 -9.921875 3.125000q-5.078125 1.078125 -10.296875 1.078125q-13.093750 0.000000 -20.734375 -7.609375q-7.640625 -7.625000 -7.640625 -20.625000q0.000000 -13.421875 7.250000 -21.296875q7.250000 -7.890625 19.562500 -7.890625q11.031250 0.000000 17.453125 7.109375q6.421875 7.093750 6.421875 19.296875M47.218750 -32.234375q-0.093750 -7.359375 -4.125000 -11.750000q-4.031250 -4.406250 -10.671875 -4.406250q-7.515625 0.000000 -12.031250 4.250000q-4.515625 4.250000 -5.203125 11.968750z"/><path id="c_d821beae607506e87470f334d9ff47af" d="M45.406250 -46.390625l0.000000 -29.593750l8.984375 0.000000l0.000000 75.984375l-8.984375 0.000000l0.000000 -8.203125q-2.828125 4.875000 -7.156250 7.250000q-4.312500 2.375000 -10.375000 2.375000q-9.906250 0.000000 -16.140625 -7.906250q-6.218750 -7.921875 -6.218750 -20.812500q0.000000 -12.890625 6.218750 -20.796875q6.234375 -7.906250 16.140625 -7.906250q6.062500 0.000000 10.375000 2.375000q4.328125 2.359375 7.156250 7.234375M14.796875 -27.296875q0.000000 9.906250 4.078125 15.546875q4.078125 5.640625 11.203125 5.640625q7.125000 0.000000 11.218750 -5.640625q4.109375 -5.640625 4.109375 -15.546875q0.000000 -9.906250 -4.109375 -15.546875q-4.093750 -5.640625 -11.218750 -5.640625q-7.125000 0.000000 -11.203125 5.640625q-4.078125 5.640625 -4.078125 15.546875"/></defs><g style="fill:#000;opacity:1" id="g398" transform="translate(260.895312,401.925000)scale(0.120000)"><use id="use400" xlink:href="#c_4653c6dfde66c7610eae0911760d3490"/><use id="use402" x="97.412" xlink:href="#c_0bce5afba2dc6b9024b26277c38ad8e8"/><use id="use404" x="158.936" xlink:href="#c_d821beae607506e87470f334d9ff47af"/><use id="use406" x="222.412" xlink:href="#c_6a63bda47b2f3da1cec6aadd80692cfe"/><use id="use408" x="250.195" xlink:href="#c_c438d87e693443c2861ebd6359e6491e"/><use id="use410" x="313.574" xlink:href="#c_4653c6dfde66c7610eae0911760d3490"/><use id="use412" x="410.986" xlink:href="#c_9c6d5cbc59c6231647eb409cc6b37bb3"/><use id="use414" x="444.678" xlink:href="#c_680e57528fc97ec49605e10827a40086"/><use id="use416" x="523.389" xlink:href="#c_cc8d6d580d1b10c8632f7a42cd53db8a"/></g></g><g id="xtick4"><g id="line2d7"><g id="g420"><use style="fill:none;stroke:#000;stroke-width:.5;stroke-linejoin:miter;stroke-linecap:butt;opacity:1" id="use422" x="369.6" y="388.8" xlink:href="#m30e32995789d870ad79a2e54c91cf9c6"/></g></g><g id="line2d8"><g id="g425"><use style="fill:none;stroke:#000;stroke-width:.5;stroke-linejoin:miter;stroke-linecap:butt;opacity:1" id="use427" x="369.6" y="43.2" xlink:href="#m9281cae24120827b11d5ea8a7ad3e96b"/></g></g><defs id="defs429"><path id="c_73b12fe3945075d29fe0cc9a468fa31e" d="M37.109375 -75.984375l0.000000 7.484375l-8.593750 0.000000q-4.828125 0.000000 -6.718750 1.953125q-1.875000 1.953125 -1.875000 7.031250l0.000000 4.828125l14.796875 0.000000l0.000000 6.984375l-14.796875 0.000000l0.000000 47.703125l-9.031250 0.000000l0.000000 -47.703125l-8.593750 0.000000l0.000000 -6.984375l8.593750 0.000000l0.000000 -3.812500q0.000000 -9.125000 4.250000 -13.296875q4.250000 -4.187500 13.468750 -4.187500z"/><path id="c_cd96f817f3cab988d24a2b49a5577fe6" d="M10.984375 -1.515625l0.000000 -8.984375q3.718750 1.765625 7.515625 2.687500q3.812500 0.921875 7.484375 0.921875q9.765625 0.000000 14.906250 -6.562500q5.156250 -6.562500 5.890625 -19.953125q-2.828125 4.203125 -7.187500 6.453125q-4.343750 2.250000 -9.609375 2.250000q-10.937500 0.000000 -17.312500 -6.609375q-6.375000 -6.625000 -6.375000 -18.109375q0.000000 -11.218750 6.640625 -18.000000q6.640625 -6.796875 17.671875 -6.796875q12.656250 0.000000 19.312500 9.703125q6.671875 9.687500 6.671875 28.140625q0.000000 17.234375 -8.187500 27.515625q-8.171875 10.281250 -21.984375 10.281250q-3.718750 0.000000 -7.531250 -0.734375q-3.796875 -0.734375 -7.906250 -2.203125M30.609375 -32.421875q6.640625 0.000000 10.515625 -4.531250q3.890625 -4.546875 3.890625 -12.468750q0.000000 -7.859375 -3.890625 -12.421875q-3.875000 -4.562500 -10.515625 -4.562500q-6.640625 0.000000 -10.515625 4.562500q-3.875000 4.562500 -3.875000 12.421875q0.000000 7.921875 3.875000 12.468750q3.875000 4.531250 10.515625 4.531250"/></defs><g style="fill:#000;opacity:1" id="g433" transform="translate(350.350000,401.925000)scale(0.120000)"><use id="use435" xlink:href="#c_73b12fe3945075d29fe0cc9a468fa31e"/><use id="use437" x="35.205" xlink:href="#c_c438d87e693443c2861ebd6359e6491e"/><use id="use439" x="98.584" xlink:href="#c_5099edb83619131346ae654950954dea"/><use id="use441" x="126.367" xlink:href="#c_5099edb83619131346ae654950954dea"/><use id="use443" x="154.15" xlink:href="#c_9c6d5cbc59c6231647eb409cc6b37bb3"/><use id="use445" x="187.842" xlink:href="#c_680e57528fc97ec49605e10827a40086"/><use id="use447" x="266.553" xlink:href="#c_cd96f817f3cab988d24a2b49a5577fe6"/></g><defs id="defs449"><path id="c_7efa9804c2b4c09a4b614b91fdebee3d" d="M31.000000 -75.875000q-6.531250 11.218750 -9.718750 22.218750q-3.171875 10.984375 -3.171875 22.265625q0.000000 11.265625 3.203125 22.328125q3.203125 11.062500 9.687500 22.250000l-7.812500 0.000000q-7.312500 -11.484375 -10.953125 -22.562500q-3.640625 -11.078125 -3.640625 -22.015625q0.000000 -10.890625 3.609375 -21.921875q3.625000 -11.046875 10.984375 -22.562500z"/><path id="c_a469f8ee191679fe73f3b765bd271597" d="M64.406250 -67.281250l0.000000 10.390625q-4.984375 -4.640625 -10.625000 -6.921875q-5.640625 -2.296875 -11.984375 -2.296875q-12.500000 0.000000 -19.140625 7.640625q-6.640625 7.640625 -6.640625 22.093750q0.000000 14.406250 6.640625 22.046875q6.640625 7.640625 19.140625 7.640625q6.343750 0.000000 11.984375 -2.296875q5.640625 -2.296875 10.625000 -6.937500l0.000000 10.312500q-5.171875 3.515625 -10.968750 5.281250q-5.781250 1.750000 -12.218750 1.750000q-16.562500 0.000000 -26.093750 -10.125000q-9.515625 -10.140625 -9.515625 -27.671875q0.000000 -17.578125 9.515625 -27.703125q9.531250 -10.140625 26.093750 -10.140625q6.531250 0.000000 12.312500 1.734375q5.796875 1.734375 10.875000 5.203125"/><path id="c_b672e4bee30772019085dff1098f516d" d="M53.515625 -70.515625l0.000000 9.625000q-5.609375 -2.687500 -10.593750 -4.000000q-4.984375 -1.328125 -9.625000 -1.328125q-8.046875 0.000000 -12.421875 3.125000q-4.375000 3.125000 -4.375000 8.890625q0.000000 4.843750 2.906250 7.312500q2.906250 2.453125 11.015625 3.968750l5.953125 1.218750q11.031250 2.109375 16.281250 7.406250q5.250000 5.296875 5.250000 14.171875q0.000000 10.609375 -7.109375 16.078125q-7.093750 5.468750 -20.812500 5.468750q-5.171875 0.000000 -11.015625 -1.171875q-5.828125 -1.171875 -12.078125 -3.468750l0.000000 -10.156250q6.000000 3.359375 11.765625 5.078125q5.765625 1.703125 11.328125 1.703125q8.437500 0.000000 13.031250 -3.312500q4.593750 -3.328125 4.593750 -9.484375q0.000000 -5.359375 -3.296875 -8.390625q-3.296875 -3.031250 -10.812500 -4.546875l-6.015625 -1.171875q-11.031250 -2.187500 -15.968750 -6.875000q-4.921875 -4.687500 -4.921875 -13.046875q0.000000 -9.671875 6.812500 -15.234375q6.812500 -5.562500 18.765625 -5.562500q5.140625 0.000000 10.453125 0.937500q5.328125 0.921875 10.890625 2.765625"/><path id="c_814edda51889e387a3dfbce453bfa1ec" d="M9.812500 -72.906250l9.859375 0.000000l0.000000 72.906250l-9.859375 0.000000z"/><path id="c_e96974be642f6eac0427d72f9cec6c19" d="M8.015625 -75.875000l7.812500 0.000000q7.312500 11.515625 10.953125 22.562500q3.640625 11.031250 3.640625 21.921875q0.000000 10.937500 -3.640625 22.015625q-3.640625 11.078125 -10.953125 22.562500l-7.812500 0.000000q6.484375 -11.187500 9.687500 -22.250000q3.203125 -11.062500 3.203125 -22.328125q0.000000 -11.281250 -3.203125 -22.265625q-3.203125 -11.000000 -9.687500 -22.218750"/></defs><g style="fill:#000;opacity:1" id="g456" transform="translate(356.170312,415.406250)scale(0.120000)"><use id="use458" xlink:href="#c_7efa9804c2b4c09a4b614b91fdebee3d"/><use id="use460" x="39.014" xlink:href="#c_a469f8ee191679fe73f3b765bd271597"/><use id="use462" x="108.838" xlink:href="#c_b672e4bee30772019085dff1098f516d"/><use id="use464" x="172.314" xlink:href="#c_814edda51889e387a3dfbce453bfa1ec"/><use id="use466" x="201.807" xlink:href="#c_e96974be642f6eac0427d72f9cec6c19"/></g></g><g id="xtick5" transform="translate(32,0)"><g id="line2d9"><g id="g470"><use style="opacity:1;fill:none;stroke:#000;stroke-width:.5;stroke-linecap:butt;stroke-linejoin:miter" id="use472" width="576" height="432" x="444" y="388.8" xlink:href="#m30e32995789d870ad79a2e54c91cf9c6"/></g></g><g id="line2d10"><g id="g475"><use style="opacity:1;fill:none;stroke:#000;stroke-width:.5;stroke-linecap:butt;stroke-linejoin:miter" id="use477" width="576" height="432" x="444" y="43.2" xlink:href="#m9281cae24120827b11d5ea8a7ad3e96b"/></g></g><defs id="defs479"><path id="c_518d586bee075aa0153eaebfcb5ab11f" d="M 19.671875,-64.796875 L 19.671875,-37.40625 L 32.078125,-37.40625 C 36.671875,-37.40625 40.21875,-38.59375 42.71875,-40.96875 C 45.229167,-43.34375 46.484375,-46.729167 46.484375,-51.125 C 46.484375,-55.489583 45.229167,-58.859375 42.71875,-61.234375 C 40.21875,-63.609375 36.671875,-64.796875 32.078125,-64.796875 L 19.671875,-64.796875 z M 9.8125,-72.90625 L 32.078125,-72.90625 C 40.255208,-72.90625 46.432292,-71.057292 50.609375,-67.359375 C 54.796875,-63.661458 56.890625,-58.25 56.890625,-51.125 C 56.890625,-43.927083 54.796875,-38.489583 50.609375,-34.8125 C 46.432292,-31.135417 40.255208,-29.296875 32.078125,-29.296875 L 19.671875,-29.296875 L 19.671875,0 L 9.8125,0 L 9.8125,-72.90625 z"/><path id="c_f05dd90d41f04bb96ef1ca503cc2044b" d="M 30.609375,-48.390625 C 25.796875,-48.390625 21.989583,-46.510417 19.1875,-42.75 C 16.385417,-38.989583 14.984375,-33.838542 14.984375,-27.296875 C 14.984375,-20.755208 16.375,-15.604167 19.15625,-11.84375 C 21.947917,-8.0833333 25.765625,-6.203125 30.609375,-6.203125 C 35.401042,-6.203125 39.192708,-8.0885417 41.984375,-11.859375 C 44.786458,-15.640625 46.1875,-20.786458 46.1875,-27.296875 C 46.1875,-33.776042 44.786458,-38.911458 41.984375,-42.703125 C 39.192708,-46.494792 35.401042,-48.390625 30.609375,-48.390625 M 30.609375,-56 C 38.421875,-56 44.557292,-53.458333 49.015625,-48.375 C 53.484375,-43.302083 55.71875,-36.276042 55.71875,-27.296875 C 55.71875,-18.348958 53.484375,-11.322917 49.015625,-6.21875 C 44.557292,-1.125 38.421875,1.421875 30.609375,1.421875 C 22.765625,1.421875 16.619792,-1.125 12.171875,-6.21875 C 7.734375,-11.322917 5.515625,-18.348958 5.515625,-27.296875 C 5.515625,-36.276042 7.734375,-43.302083 12.171875,-48.375 C 16.619792,-53.458333 22.765625,-56 30.609375,-56"/><path id="c_8e0810ad13fe20a2a87a2619799b154d" d="M 44.28125,-53.078125 L 44.28125,-44.578125 C 41.75,-45.880208 39.114583,-46.854167 36.375,-47.5 C 33.645833,-48.15625 30.8125,-48.484375 27.875,-48.484375 C 23.416667,-48.484375 20.072917,-47.802083 17.84375,-46.4375 C 15.614583,-45.072917 14.5,-43.020833 14.5,-40.28125 C 14.5,-38.197917 15.296875,-36.5625 16.890625,-35.375 C 18.484375,-34.1875 21.692708,-33.057292 26.515625,-31.984375 L 29.59375,-31.296875 C 35.96875,-29.932292 40.5,-28.005208 43.1875,-25.515625 C 45.875,-23.026042 47.21875,-19.552083 47.21875,-15.09375 C 47.21875,-10.010417 45.208333,-5.984375 41.1875,-3.015625 C 37.166667,-0.057291667 31.640625,1.421875 24.609375,1.421875 C 21.682292,1.421875 18.630208,1.1354167 15.453125,0.5625 C 12.276042,-0.010416667 8.9322917,-0.86458333 5.421875,-2 L 5.421875,-11.28125 C 8.7447917,-9.5520833 12.015625,-8.2552083 15.234375,-7.390625 C 18.453125,-6.5364583 21.645833,-6.109375 24.8125,-6.109375 C 29.041667,-6.109375 32.291667,-6.8333333 34.5625,-8.28125 C 36.84375,-9.7291667 37.984375,-11.770833 37.984375,-14.40625 C 37.984375,-16.84375 37.161458,-18.713542 35.515625,-20.015625 C 33.880208,-21.317708 30.276042,-22.572917 24.703125,-23.78125 L 21.578125,-24.515625 C 16.015625,-25.682292 11.994792,-27.479167 9.515625,-29.90625 C 7.046875,-32.333333 5.8125,-35.661458 5.8125,-39.890625 C 5.8125,-45.036458 7.6354167,-49.005208 11.28125,-51.796875 C 14.927083,-54.598958 20.104167,-56 26.8125,-56 C 30.125,-56 33.244792,-55.755208 36.171875,-55.265625 C 39.109375,-54.786458 41.8125,-54.057292 44.28125,-53.078125"/><path id="c_46f5d86430594d4affc2299f73adabe3" d="M 39.40625,-66.21875 C 32.239583,-66.21875 26.546875,-63.546875 22.328125,-58.203125 C 18.119792,-52.869792 16.015625,-45.59375 16.015625,-36.375 C 16.015625,-27.197917 18.119792,-19.9375 22.328125,-14.59375 C 26.546875,-9.2604167 32.239583,-6.59375 39.40625,-6.59375 C 46.5625,-6.59375 52.234375,-9.2604167 56.421875,-14.59375 C 60.609375,-19.9375 62.703125,-27.197917 62.703125,-36.375 C 62.703125,-45.59375 60.609375,-52.869792 56.421875,-58.203125 C 52.234375,-63.546875 46.5625,-66.21875 39.40625,-66.21875 M 53.21875,-1.3125 L 66.21875,12.890625 L 54.296875,12.890625 L 43.5,1.21875 C 42.427083,1.28125 41.604167,1.328125 41.03125,1.359375 C 40.46875,1.4010417 39.927083,1.421875 39.40625,1.421875 C 29.15625,1.421875 20.958333,-2.0052083 14.8125,-8.859375 C 8.6770833,-15.713542 5.609375,-24.885417 5.609375,-36.375 C 5.609375,-47.895833 8.6770833,-57.083333 14.8125,-63.9375 C 20.958333,-70.791667 29.15625,-74.21875 39.40625,-74.21875 C 49.625,-74.21875 57.791667,-70.791667 63.90625,-63.9375 C 70.03125,-57.083333 73.09375,-47.895833 73.09375,-36.375 C 73.09375,-27.916667 71.390625,-20.671875 67.984375,-14.640625 C 64.588542,-8.6197917 59.666667,-4.1770833 53.21875,-1.3125"/><path id="c_07e3f33241aff50afcba519606f2a979" d="M 9.8125,-72.90625 L 19.671875,-72.90625 L 19.671875,-8.296875 L 55.171875,-8.296875 L 55.171875,0 L 9.8125,0 L 9.8125,-72.90625 z"/></defs><g style="opacity:1;fill:#000" id="g486" transform="matrix(0.12,0,0,0.12,410.30469,401.70625)"><use id="use488" width="576" height="432" x="0" y="0" xlink:href="#c_518d586bee075aa0153eaebfcb5ab11f"/><use id="use490" width="576" height="432" x="56.678" y="0" xlink:href="#c_f05dd90d41f04bb96ef1ca503cc2044b"/><use id="use492" width="576" height="432" x="117.859" y="0" xlink:href="#c_8e0810ad13fe20a2a87a2619799b154d"/><use id="use494" width="576" height="432" x="169.959" y="0" xlink:href="#c_0f8c41144cfbf448378cb6fd1cc8e549"/><use id="use496" width="576" height="432" x="209.168" y="0" xlink:href="#c_e3864de5dabf2f8dd9eee74726882ec1"/><use id="use498" width="576" height="432" x="272.645" y="0" xlink:href="#c_6ec8d5749226675394676a5d2a3b468b"/><use id="use500" width="576" height="432" x="311.508" y="0" xlink:href="#c_0bce5afba2dc6b9024b26277c38ad8e8"/><use id="use502" width="576" height="432" x="373.031" y="0" xlink:href="#c_b672e4bee30772019085dff1098f516d"/><use id="use504" width="576" height="432" x="436.508" y="0" xlink:href="#c_46f5d86430594d4affc2299f73adabe3"/><use id="use506" width="576" height="432" x="515.219" y="0" xlink:href="#c_07e3f33241aff50afcba519606f2a979"/></g></g><path style="fill:none;fill-rule:evenodd;stroke:#000;stroke-width:1.63999999;stroke-linecap:butt;stroke-linejoin:miter;marker-start:url(#Arrow1Mstart);marker-end:url(#Arrow1Mend);stroke-miterlimit:4;stroke-dasharray:none;stroke-opacity:1" id="path15865" d="M 362.15454,301.34379 L 462.14776,301.36221"/><text style="font-size:16px;font-style:normal;font-weight:400;fill:#00f;fill-opacity:1;stroke:none;stroke-width:1px;stroke-linecap:butt;stroke-linejoin:miter;stroke-opacity:1;font-family:Bitstream Vera Sans" id="text16836" x="400.421" y="273.932" xml:space="preserve"><tspan id="tspan16838" x="400.421" y="273.932">2.1x</tspan><tspan id="tspan16840" x="400.421" y="293.932">faster</tspan></text><path style="fill:none;fill-rule:evenodd;stroke:#000;stroke-width:1.63999999;stroke-linecap:butt;stroke-linejoin:miter;marker-start:url(#Arrow1Mstart);marker-end:url(#Arrow1Mend);stroke-miterlimit:4;stroke-dasharray:none;stroke-opacity:1" id="path3123" d="M 385.56469,221.92626 L 487.88048,220.7834"/></g><g id="matplotlib.axis2"><g id="ytick1"><g id="line2d11"><defs id="defs511"><path id="m3400efa6b1638b3fea9e19e898273957" d="M0.000000 0.000000L4.000000 0.000000"/></defs><g id="g514"><use style="fill:none;stroke:#000;stroke-width:.5;stroke-linejoin:miter;stroke-linecap:butt;opacity:1" id="use516" x="72" y="388.8" xlink:href="#m3400efa6b1638b3fea9e19e898273957"/></g></g><g id="line2d12"><defs id="defs519"><path id="m20b58b2501143cb5e0a5e8f1ef6f1643" d="M0.000000 0.000000L-4.000000 0.000000"/></defs><g id="g522"><use style="fill:none;stroke:#000;stroke-width:.5;stroke-linejoin:miter;stroke-linecap:butt;opacity:1" id="use524" x="518.4" y="388.8" xlink:href="#m20b58b2501143cb5e0a5e8f1ef6f1643"/></g></g><defs id="defs526"><path id="c_7a2040fe3b94fcd41d0a72c84e93b115" d="M31.781250 -66.406250q-7.609375 0.000000 -11.453125 7.500000q-3.828125 7.484375 -3.828125 22.531250q0.000000 14.984375 3.828125 22.484375q3.843750 7.500000 11.453125 7.500000q7.671875 0.000000 11.500000 -7.500000q3.843750 -7.500000 3.843750 -22.484375q0.000000 -15.046875 -3.843750 -22.531250q-3.828125 -7.500000 -11.500000 -7.500000M31.781250 -74.218750q12.265625 0.000000 18.734375 9.703125q6.468750 9.687500 6.468750 28.140625q0.000000 18.406250 -6.468750 28.109375q-6.468750 9.687500 -18.734375 9.687500q-12.250000 0.000000 -18.718750 -9.687500q-6.468750 -9.703125 -6.468750 -28.109375q0.000000 -18.453125 6.468750 -28.140625q6.468750 -9.703125 18.718750 -9.703125"/></defs><g style="fill:#000;opacity:1" id="g529" transform="translate(61.953125,393.167188)scale(0.120000)"><use id="use531" xlink:href="#c_7a2040fe3b94fcd41d0a72c84e93b115"/></g></g><g id="ytick2"><g id="line2d13"><g id="g535"><use style="fill:none;stroke:#000;stroke-width:.5;stroke-linejoin:miter;stroke-linecap:butt;opacity:1" id="use537" x="72" y="331.2" xlink:href="#m3400efa6b1638b3fea9e19e898273957"/></g></g><g id="line2d14"><g id="g540"><use style="fill:none;stroke:#000;stroke-width:.5;stroke-linejoin:miter;stroke-linecap:butt;opacity:1" id="use542" x="518.4" y="331.2" xlink:href="#m20b58b2501143cb5e0a5e8f1ef6f1643"/></g></g><defs id="defs544"><path id="c_42baa63129a918535c52adb20d687ea7" d="M12.406250 -8.296875l16.109375 0.000000l0.000000 -55.625000l-17.531250 3.515625l0.000000 -8.984375l17.437500 -3.515625l9.859375 0.000000l0.000000 64.609375l16.109375 0.000000l0.000000 8.296875l-41.984375 0.000000z"/></defs><g style="fill:#000;opacity:1" id="g547" transform="translate(39.546875,335.567188)scale(0.120000)"><use id="use549" xlink:href="#c_42baa63129a918535c52adb20d687ea7"/><use id="use551" x="63.623" xlink:href="#c_7a2040fe3b94fcd41d0a72c84e93b115"/><use id="use553" x="127.246" xlink:href="#c_7a2040fe3b94fcd41d0a72c84e93b115"/><use id="use555" x="190.869" xlink:href="#c_7a2040fe3b94fcd41d0a72c84e93b115"/></g></g><g id="ytick3"><g id="line2d15"><g id="g559"><use style="fill:none;stroke:#000;stroke-width:.5;stroke-linejoin:miter;stroke-linecap:butt;opacity:1" id="use561" x="72" y="273.6" xlink:href="#m3400efa6b1638b3fea9e19e898273957"/></g></g><g id="line2d16"><g id="g564"><use style="fill:none;stroke:#000;stroke-width:.5;stroke-linejoin:miter;stroke-linecap:butt;opacity:1" id="use566" x="518.4" y="273.6" xlink:href="#m20b58b2501143cb5e0a5e8f1ef6f1643"/></g></g><defs id="defs568"><path id="c_ed3f3ed3ebfbd18bcb9c012009a68ad1" d="M19.187500 -8.296875l34.421875 0.000000l0.000000 8.296875l-46.281250 0.000000l0.000000 -8.296875q5.609375 -5.812500 15.296875 -15.593750q9.703125 -9.796875 12.187500 -12.640625q4.734375 -5.312500 6.609375 -9.000000q1.890625 -3.687500 1.890625 -7.250000q0.000000 -5.812500 -4.078125 -9.468750q-4.078125 -3.671875 -10.625000 -3.671875q-4.640625 0.000000 -9.796875 1.609375q-5.140625 1.609375 -11.000000 4.890625l0.000000 -9.968750q5.953125 -2.390625 11.125000 -3.609375q5.187500 -1.218750 9.484375 -1.218750q11.328125 0.000000 18.062500 5.671875q6.734375 5.656250 6.734375 15.125000q0.000000 4.500000 -1.687500 8.531250q-1.671875 4.015625 -6.125000 9.484375q-1.218750 1.421875 -7.765625 8.187500q-6.531250 6.765625 -18.453125 18.921875"/></defs><g style="fill:#000;opacity:1" id="g571" transform="translate(39.109375,277.967188)scale(0.120000)"><use id="use573" xlink:href="#c_ed3f3ed3ebfbd18bcb9c012009a68ad1"/><use id="use575" x="63.623" xlink:href="#c_7a2040fe3b94fcd41d0a72c84e93b115"/><use id="use577" x="127.246" xlink:href="#c_7a2040fe3b94fcd41d0a72c84e93b115"/><use id="use579" x="190.869" xlink:href="#c_7a2040fe3b94fcd41d0a72c84e93b115"/></g></g><g id="ytick4"><g id="line2d17"><g id="g583"><use style="fill:none;stroke:#000;stroke-width:.5;stroke-linejoin:miter;stroke-linecap:butt;opacity:1" id="use585" x="72" y="216" xlink:href="#m3400efa6b1638b3fea9e19e898273957"/></g></g><g id="line2d18"><g id="g588"><use style="fill:none;stroke:#000;stroke-width:.5;stroke-linejoin:miter;stroke-linecap:butt;opacity:1" id="use590" x="518.4" y="216" xlink:href="#m20b58b2501143cb5e0a5e8f1ef6f1643"/></g></g><g style="fill:#000;opacity:1" id="g592" transform="translate(39.156250,220.367188)scale(0.120000)"><use id="use594" xlink:href="#c_3dcfa38a02242cb63ec6726c6e70be7a"/><use id="use596" x="63.623" xlink:href="#c_7a2040fe3b94fcd41d0a72c84e93b115"/><use id="use598" x="127.246" xlink:href="#c_7a2040fe3b94fcd41d0a72c84e93b115"/><use id="use600" x="190.869" xlink:href="#c_7a2040fe3b94fcd41d0a72c84e93b115"/></g></g><g id="ytick5"><g id="line2d19"><g id="g604"><use style="fill:none;stroke:#000;stroke-width:.5;stroke-linejoin:miter;stroke-linecap:butt;opacity:1" id="use606" x="72" y="158.4" xlink:href="#m3400efa6b1638b3fea9e19e898273957"/></g></g><g id="line2d20"><g id="g609"><use style="fill:none;stroke:#000;stroke-width:.5;stroke-linejoin:miter;stroke-linecap:butt;opacity:1" id="use611" x="518.4" y="158.4" xlink:href="#m20b58b2501143cb5e0a5e8f1ef6f1643"/></g></g><defs id="defs613"><path id="c_a0416418d96557a09b8c1332d34883ba" d="M37.796875 -64.312500l-24.906250 38.921875l24.906250 0.000000zM35.203125 -72.906250l12.406250 0.000000l0.000000 47.515625l10.406250 0.000000l0.000000 8.203125l-10.406250 0.000000l0.000000 17.187500l-9.812500 0.000000l0.000000 -17.187500l-32.906250 0.000000l0.000000 -9.515625z"/></defs><g style="fill:#000;opacity:1" id="g616" transform="translate(38.828125,162.767188)scale(0.120000)"><use id="use618" xlink:href="#c_a0416418d96557a09b8c1332d34883ba"/><use id="use620" x="63.623" xlink:href="#c_7a2040fe3b94fcd41d0a72c84e93b115"/><use id="use622" x="127.246" xlink:href="#c_7a2040fe3b94fcd41d0a72c84e93b115"/><use id="use624" x="190.869" xlink:href="#c_7a2040fe3b94fcd41d0a72c84e93b115"/></g></g><g id="ytick6"><g id="line2d21"><g id="g628"><use style="fill:none;stroke:#000;stroke-width:.5;stroke-linejoin:miter;stroke-linecap:butt;opacity:1" id="use630" x="72" y="100.8" xlink:href="#m3400efa6b1638b3fea9e19e898273957"/></g></g><g id="line2d22"><g id="g633"><use style="fill:none;stroke:#000;stroke-width:.5;stroke-linejoin:miter;stroke-linecap:butt;opacity:1" id="use635" x="518.4" y="100.8" xlink:href="#m20b58b2501143cb5e0a5e8f1ef6f1643"/></g></g><defs id="defs637"><path id="c_1260a2df50f305f3db244e29828f968e" d="M10.796875 -72.906250l38.718750 0.000000l0.000000 8.312500l-29.687500 0.000000l0.000000 17.859375q2.140625 -0.734375 4.281250 -1.093750q2.156250 -0.359375 4.312500 -0.359375q12.203125 0.000000 19.328125 6.687500q7.140625 6.687500 7.140625 18.109375q0.000000 11.765625 -7.328125 18.296875q-7.328125 6.515625 -20.656250 6.515625q-4.593750 0.000000 -9.359375 -0.781250q-4.750000 -0.781250 -9.828125 -2.343750l0.000000 -9.921875q4.390625 2.390625 9.078125 3.562500q4.687500 1.171875 9.906250 1.171875q8.453125 0.000000 13.375000 -4.437500q4.937500 -4.437500 4.937500 -12.062500q0.000000 -7.609375 -4.937500 -12.046875q-4.921875 -4.453125 -13.375000 -4.453125q-3.953125 0.000000 -7.890625 0.875000q-3.921875 0.875000 -8.015625 2.734375z"/></defs><g style="fill:#000;opacity:1" id="g640" transform="translate(39.156250,105.167188)scale(0.120000)"><use id="use642" xlink:href="#c_1260a2df50f305f3db244e29828f968e"/><use id="use644" x="63.623" xlink:href="#c_7a2040fe3b94fcd41d0a72c84e93b115"/><use id="use646" x="127.246" xlink:href="#c_7a2040fe3b94fcd41d0a72c84e93b115"/><use id="use648" x="190.869" xlink:href="#c_7a2040fe3b94fcd41d0a72c84e93b115"/></g></g><g id="ytick7"><g id="line2d23"><g id="g652"><use style="fill:none;stroke:#000;stroke-width:.5;stroke-linejoin:miter;stroke-linecap:butt;opacity:1" id="use654" x="72" y="43.2" xlink:href="#m3400efa6b1638b3fea9e19e898273957"/></g></g><g id="line2d24"><g id="g657"><use style="fill:none;stroke:#000;stroke-width:.5;stroke-linejoin:miter;stroke-linecap:butt;opacity:1" id="use659" x="518.4" y="43.2" xlink:href="#m20b58b2501143cb5e0a5e8f1ef6f1643"/></g></g><g style="fill:#000;opacity:1" id="g661" transform="translate(39.078125,47.567188)scale(0.120000)"><use id="use663" xlink:href="#c_cc8d6d580d1b10c8632f7a42cd53db8a"/><use id="use665" x="63.623" xlink:href="#c_7a2040fe3b94fcd41d0a72c84e93b115"/><use id="use667" x="127.246" xlink:href="#c_7a2040fe3b94fcd41d0a72c84e93b115"/><use id="use669" x="190.869" xlink:href="#c_7a2040fe3b94fcd41d0a72c84e93b115"/></g></g><defs id="defs671"><path id="c_9e4b30cbdf32072672ded72e9074c4c9" d="M-0.296875 -72.906250l61.671875 0.000000l0.000000 8.312500l-25.875000 0.000000l0.000000 64.593750l-9.906250 0.000000l0.000000 -64.593750l-25.890625 0.000000z"/><path id="c_d41d8cd98f00b204e9800998ecf8427e"/></defs><g style="fill:#000;opacity:1" id="g675" transform="translate(33.828125,238.320312)rotate(-90.0)scale(0.120000)"><use id="use677" xlink:href="#c_9e4b30cbdf32072672ded72e9074c4c9"/><use id="use679" x="57.959" xlink:href="#c_6a63bda47b2f3da1cec6aadd80692cfe"/><use id="use681" x="85.742" xlink:href="#c_4653c6dfde66c7610eae0911760d3490"/><use id="use683" x="183.154" xlink:href="#c_0bce5afba2dc6b9024b26277c38ad8e8"/><use id="use685" x="244.678" xlink:href="#c_d41d8cd98f00b204e9800998ecf8427e"/><use id="use687" x="276.465" xlink:href="#c_7efa9804c2b4c09a4b614b91fdebee3d"/><use id="use689" x="315.479" xlink:href="#c_8e0810ad13fe20a2a87a2619799b154d"/><use id="use691" x="367.578" xlink:href="#c_e96974be642f6eac0427d72f9cec6c19"/></g></g><path style="fill:none;stroke:#000;stroke-width:1;stroke-linejoin:miter;stroke-linecap:square;opacity:1" id="path693" d="M72.000000 388.800000L518.400000 388.800000L518.400000 43.200000 L72.000000 43.200000L72.000000 388.800000"/><defs id="defs695"><path id="c_fe791a90f5471e2ab20a5ed41a7fa451" d="M54.890625 -33.015625l0.000000 33.015625l-8.984375 0.000000l0.000000 -32.718750q0.000000 -7.765625 -3.031250 -11.609375q-3.031250 -3.859375 -9.078125 -3.859375q-7.281250 0.000000 -11.484375 4.640625q-4.203125 4.625000 -4.203125 12.640625l0.000000 30.906250l-9.031250 0.000000l0.000000 -54.687500l9.031250 0.000000l0.000000 8.500000q3.234375 -4.937500 7.593750 -7.375000q4.375000 -2.437500 10.093750 -2.437500q9.421875 0.000000 14.250000 5.828125q4.843750 5.828125 4.843750 17.156250"/><path id="c_801fe2e877fad46da27c898b407b3b54" d="M54.890625 -54.687500l-19.781250 26.609375l20.796875 28.078125l-10.593750 0.000000l-15.921875 -21.484375l-15.906250 21.484375l-10.609375 0.000000l21.250000 -28.609375l-19.437500 -26.078125l10.593750 0.000000l14.500000 19.484375l14.500000 -19.484375z"/><path id="c_d650c37394b681142a10dfc54356d478" d="M48.781250 -52.593750l0.000000 8.406250q-3.812500 -2.109375 -7.640625 -3.156250q-3.828125 -1.046875 -7.734375 -1.046875q-8.750000 0.000000 -13.593750 5.546875q-4.828125 5.531250 -4.828125 15.546875q0.000000 10.015625 4.828125 15.562500q4.843750 5.531250 13.593750 5.531250q3.906250 0.000000 7.734375 -1.046875q3.828125 -1.046875 7.640625 -3.156250l0.000000 8.312500q-3.765625 1.750000 -7.796875 2.625000q-4.015625 0.890625 -8.562500 0.890625q-12.359375 0.000000 -19.640625 -7.765625q-7.265625 -7.765625 -7.265625 -20.953125q0.000000 -13.375000 7.343750 -21.031250q7.359375 -7.671875 20.156250 -7.671875q4.140625 0.000000 8.093750 0.859375q3.953125 0.843750 7.671875 2.546875"/><path id="c_57adaa7083d7229075db8bc2c5b2febe" d="M4.203125 -54.687500l8.984375 0.000000l11.234375 42.671875l11.171875 -42.671875l10.593750 0.000000l11.234375 42.671875l11.187500 -42.671875l8.984375 0.000000l-14.312500 54.687500l-10.593750 0.000000l-11.765625 -44.828125l-11.812500 44.828125l-10.609375 0.000000z"/><path id="c_3b86f9879deccc43ffac57ae939fe3b7" d="M59.515625 -10.406250l0.000000 -19.578125l-16.109375 0.000000l0.000000 -8.109375l25.875000 0.000000l0.000000 31.312500q-5.703125 4.046875 -12.593750 6.125000q-6.875000 2.078125 -14.687500 2.078125q-17.093750 0.000000 -26.750000 -9.984375q-9.640625 -10.000000 -9.640625 -27.812500q0.000000 -17.875000 9.640625 -27.859375q9.656250 -9.984375 26.750000 -9.984375q7.125000 0.000000 13.546875 1.765625q6.421875 1.750000 11.843750 5.171875l0.000000 10.500000q-5.468750 -4.640625 -11.625000 -6.984375q-6.156250 -2.343750 -12.937500 -2.343750q-13.390625 0.000000 -20.109375 7.468750q-6.703125 7.468750 -6.703125 22.265625q0.000000 14.750000 6.703125 22.218750q6.718750 7.468750 20.109375 7.468750q5.218750 0.000000 9.312500 -0.906250q4.109375 -0.906250 7.375000 -2.812500"/><path id="c_f15a64fcd463ef4629c48bab42cde24c" d="M18.109375 -8.203125l0.000000 29.000000l-9.031250 0.000000l0.000000 -75.484375l9.031250 0.000000l0.000000 8.296875q2.843750 -4.875000 7.156250 -7.234375q4.328125 -2.375000 10.328125 -2.375000q9.968750 0.000000 16.187500 7.906250q6.234375 7.906250 6.234375 20.796875q0.000000 12.890625 -6.234375 20.812500q-6.218750 7.906250 -16.187500 7.906250q-6.000000 0.000000 -10.328125 -2.375000q-4.312500 -2.375000 -7.156250 -7.250000M48.687500 -27.296875q0.000000 -9.906250 -4.078125 -15.546875q-4.078125 -5.640625 -11.203125 -5.640625q-7.140625 0.000000 -11.218750 5.640625q-4.078125 5.640625 -4.078125 15.546875q0.000000 9.906250 4.078125 15.546875q4.078125 5.640625 11.218750 5.640625q7.125000 0.000000 11.203125 -5.640625q4.078125 -5.640625 4.078125 -15.546875"/><path id="c_9f267d35ece7e6f3f1d851c2e17a8dec" d="M5.515625 -54.687500l42.671875 0.000000l0.000000 8.203125l-33.781250 39.312500l33.781250 0.000000l0.000000 7.171875l-43.890625 0.000000l0.000000 -8.203125l33.796875 -39.312500l-32.578125 0.000000z"/></defs><g style="fill:#000;opacity:1" id="g704" transform="translate(69.903125,19.037500)scale(0.144000)"><use id="use706" xlink:href="#c_9e4b30cbdf32072672ded72e9074c4c9"/><use id="use708" x="57.959" xlink:href="#c_6a63bda47b2f3da1cec6aadd80692cfe"/><use id="use710" x="85.742" xlink:href="#c_4653c6dfde66c7610eae0911760d3490"/><use id="use712" x="183.154" xlink:href="#c_0bce5afba2dc6b9024b26277c38ad8e8"/><use id="use714" x="244.678" xlink:href="#c_d41d8cd98f00b204e9800998ecf8427e"/><use id="use716" x="276.465" xlink:href="#c_0f8c41144cfbf448378cb6fd1cc8e549"/><use id="use718" x="315.674" xlink:href="#c_f05dd90d41f04bb96ef1ca503cc2044b"/><use id="use720" x="376.855" xlink:href="#c_d41d8cd98f00b204e9800998ecf8427e"/><use id="use722" x="408.643" xlink:href="#c_6a63bda47b2f3da1cec6aadd80692cfe"/><use id="use724" x="436.426" xlink:href="#c_fe791a90f5471e2ab20a5ed41a7fa451"/><use id="use726" x="499.805" xlink:href="#c_d821beae607506e87470f334d9ff47af"/><use id="use728" x="563.281" xlink:href="#c_0bce5afba2dc6b9024b26277c38ad8e8"/><use id="use730" x="623.055" xlink:href="#c_801fe2e877fad46da27c898b407b3b54"/><use id="use732" x="682.234" xlink:href="#c_d41d8cd98f00b204e9800998ecf8427e"/><use id="use734" x="714.021" xlink:href="#c_01d93a582460e35a7945ca50d148ffeb"/><use id="use736" x="775.301" xlink:href="#c_d41d8cd98f00b204e9800998ecf8427e"/><use id="use738" x="807.088" xlink:href="#c_d650c37394b681142a10dfc54356d478"/><use id="use740" x="862.068" xlink:href="#c_f05dd90d41f04bb96ef1ca503cc2044b"/><use id="use742" x="923.25" xlink:href="#c_5099edb83619131346ae654950954dea"/><use id="use744" x="951.033" xlink:href="#c_c438d87e693443c2861ebd6359e6491e"/><use id="use746" x="1014.412" xlink:href="#c_4653c6dfde66c7610eae0911760d3490"/><use id="use748" x="1111.824" xlink:href="#c_fe791a90f5471e2ab20a5ed41a7fa451"/><use id="use750" x="1175.203" xlink:href="#c_d41d8cd98f00b204e9800998ecf8427e"/><use id="use752" x="1206.99" xlink:href="#c_57adaa7083d7229075db8bc2c5b2febe"/><use id="use754" x="1288.777" xlink:href="#c_6a63bda47b2f3da1cec6aadd80692cfe"/><use id="use756" x="1316.561" xlink:href="#c_0f8c41144cfbf448378cb6fd1cc8e549"/><use id="use758" x="1355.77" xlink:href="#c_74d54c94aa871ec39e2bc6697dde6c00"/><use id="use760" x="1419.148" xlink:href="#c_d41d8cd98f00b204e9800998ecf8427e"/><use id="use762" x="1450.936" xlink:href="#c_42baa63129a918535c52adb20d687ea7"/><use id="use764" x="1514.559" xlink:href="#c_d41d8cd98f00b204e9800998ecf8427e"/><use id="use766" x="1546.346" xlink:href="#c_3b86f9879deccc43ffac57ae939fe3b7"/><use id="use768" x="1623.836" xlink:href="#c_6ec8d5749226675394676a5d2a3b468b"/><use id="use770" x="1662.699" xlink:href="#c_f05dd90d41f04bb96ef1ca503cc2044b"/><use id="use772" x="1723.881" xlink:href="#c_57adaa7083d7229075db8bc2c5b2febe"/><use id="use774" x="1805.668" xlink:href="#c_d41d8cd98f00b204e9800998ecf8427e"/><use id="use776" x="1837.455" xlink:href="#c_73b12fe3945075d29fe0cc9a468fa31e"/><use id="use778" x="1872.66" xlink:href="#c_f05dd90d41f04bb96ef1ca503cc2044b"/><use id="use780" x="1933.842" xlink:href="#c_6ec8d5749226675394676a5d2a3b468b"/><use id="use782" x="1974.955" xlink:href="#c_d41d8cd98f00b204e9800998ecf8427e"/><use id="use784" x="2006.742" xlink:href="#c_d821beae607506e87470f334d9ff47af"/><use id="use786" x="2070.219" xlink:href="#c_6a63bda47b2f3da1cec6aadd80692cfe"/><use id="use788" x="2098.002" xlink:href="#c_73b12fe3945075d29fe0cc9a468fa31e"/><use id="use790" x="2133.207" xlink:href="#c_73b12fe3945075d29fe0cc9a468fa31e"/><use id="use792" x="2168.412" xlink:href="#c_0bce5afba2dc6b9024b26277c38ad8e8"/><use id="use794" x="2229.936" xlink:href="#c_6ec8d5749226675394676a5d2a3b468b"/><use id="use796" x="2268.799" xlink:href="#c_0bce5afba2dc6b9024b26277c38ad8e8"/><use id="use798" x="2330.322" xlink:href="#c_fe791a90f5471e2ab20a5ed41a7fa451"/><use id="use800" x="2393.701" xlink:href="#c_0f8c41144cfbf448378cb6fd1cc8e549"/><use id="use802" x="2432.91" xlink:href="#c_d41d8cd98f00b204e9800998ecf8427e"/><use id="use804" x="2464.697" xlink:href="#c_f05dd90d41f04bb96ef1ca503cc2044b"/><use id="use806" x="2525.879" xlink:href="#c_f15a64fcd463ef4629c48bab42cde24c"/><use id="use808" x="2589.355" xlink:href="#c_0f8c41144cfbf448378cb6fd1cc8e549"/><use id="use810" x="2628.564" xlink:href="#c_6a63bda47b2f3da1cec6aadd80692cfe"/><use id="use812" x="2656.348" xlink:href="#c_4653c6dfde66c7610eae0911760d3490"/><use id="use814" x="2753.76" xlink:href="#c_6a63bda47b2f3da1cec6aadd80692cfe"/><use id="use816" x="2781.543" xlink:href="#c_9f267d35ece7e6f3f1d851c2e17a8dec"/><use id="use818" x="2834.033" xlink:href="#c_01d93a582460e35a7945ca50d148ffeb"/><use id="use820" x="2895.313" xlink:href="#c_0f8c41144cfbf448378cb6fd1cc8e549"/><use id="use822" x="2934.521" xlink:href="#c_6a63bda47b2f3da1cec6aadd80692cfe"/><use id="use824" x="2962.305" xlink:href="#c_f05dd90d41f04bb96ef1ca503cc2044b"/><use id="use826" x="3023.486" xlink:href="#c_fe791a90f5471e2ab20a5ed41a7fa451"/><use id="use828" x="3086.865" xlink:href="#c_8e0810ad13fe20a2a87a2619799b154d"/></g><defs id="defs830"><path id="c_3fe22c4af425ac970aec982ae9662abe" d="M32.171875 5.078125q-3.796875 9.765625 -7.421875 12.734375q-3.609375 2.984375 -9.656250 2.984375l-7.187500 0.000000l0.000000 -7.515625l5.281250 0.000000q3.703125 0.000000 5.750000 -1.765625q2.062500 -1.750000 4.546875 -8.296875l1.609375 -4.093750l-22.109375 -53.812500l9.515625 0.000000l17.093750 42.765625l17.093750 -42.765625l9.515625 0.000000z"/><path id="c_5cc9741494d2ad8f9764e03ae145569f" d="M48.687500 -27.296875q0.000000 -9.906250 -4.078125 -15.546875q-4.078125 -5.640625 -11.203125 -5.640625q-7.140625 0.000000 -11.218750 5.640625q-4.078125 5.640625 -4.078125 15.546875q0.000000 9.906250 4.078125 15.546875q4.078125 5.640625 11.218750 5.640625q7.125000 0.000000 11.203125 -5.640625q4.078125 -5.640625 4.078125 -15.546875M18.109375 -46.390625q2.843750 -4.875000 7.156250 -7.234375q4.328125 -2.375000 10.328125 -2.375000q9.968750 0.000000 16.187500 7.906250q6.234375 7.906250 6.234375 20.796875q0.000000 12.890625 -6.234375 20.812500q-6.218750 7.906250 -16.187500 7.906250q-6.000000 0.000000 -10.328125 -2.375000q-4.312500 -2.375000 -7.156250 -7.250000l0.000000 8.203125l-9.031250 0.000000l0.000000 -75.984375l9.031250 0.000000z"/><path id="c_ed3e21196fb739f392806f09ca0594ef" d="M10.687500 -12.406250l10.312500 0.000000l0.000000 12.406250l-10.312500 0.000000z"/><path id="c_c48ceabac27bf136feba2f4bf2716ab6" d="M2.984375 -54.687500l9.515625 0.000000l17.093750 45.890625l17.093750 -45.890625l9.515625 0.000000l-20.515625 54.687500l-12.203125 0.000000z"/><path id="c_bef35738d52871942e50b9de9b122bab" d="M31.781250 -34.625000q-7.031250 0.000000 -11.062500 3.765625q-4.015625 3.765625 -4.015625 10.343750q0.000000 6.593750 4.015625 10.359375q4.031250 3.765625 11.062500 3.765625q7.031250 0.000000 11.078125 -3.781250q4.062500 -3.796875 4.062500 -10.343750q0.000000 -6.578125 -4.031250 -10.343750q-4.015625 -3.765625 -11.109375 -3.765625M21.921875 -38.812500q-6.343750 -1.562500 -9.890625 -5.906250q-3.531250 -4.359375 -3.531250 -10.609375q0.000000 -8.734375 6.218750 -13.812500q6.234375 -5.078125 17.062500 -5.078125q10.890625 0.000000 17.093750 5.078125q6.203125 5.078125 6.203125 13.812500q0.000000 6.250000 -3.546875 10.609375q-3.531250 4.343750 -9.828125 5.906250q7.125000 1.656250 11.093750 6.500000q3.984375 4.828125 3.984375 11.796875q0.000000 10.609375 -6.468750 16.281250q-6.468750 5.656250 -18.531250 5.656250q-12.046875 0.000000 -18.531250 -5.656250q-6.468750 -5.671875 -6.468750 -16.281250q0.000000 -6.968750 4.000000 -11.796875q4.015625 -4.843750 11.140625 -6.500000M18.312500 -54.390625q0.000000 5.656250 3.531250 8.828125q3.546875 3.171875 9.937500 3.171875q6.359375 0.000000 9.937500 -3.171875q3.593750 -3.171875 3.593750 -8.828125q0.000000 -5.671875 -3.593750 -8.843750q-3.578125 -3.171875 -9.937500 -3.171875q-6.390625 0.000000 -9.937500 3.171875q-3.531250 3.171875 -3.531250 8.843750"/></defs><g style="fill:#000;opacity:1" id="g837" transform="translate(157.715625,35.293750)scale(0.144000)"><use id="use839" xlink:href="#c_7efa9804c2b4c09a4b614b91fdebee3d"/><use id="use841" x="39.014" xlink:href="#c_518d586bee075aa0153eaebfcb5ab11f"/><use id="use843" x="99.316" xlink:href="#c_3fe22c4af425ac970aec982ae9662abe"/><use id="use845" x="158.496" xlink:href="#c_9e4b30cbdf32072672ded72e9074c4c9"/><use id="use847" x="203.08" xlink:href="#c_01d93a582460e35a7945ca50d148ffeb"/><use id="use849" x="264.359" xlink:href="#c_5cc9741494d2ad8f9764e03ae145569f"/><use id="use851" x="327.836" xlink:href="#c_5099edb83619131346ae654950954dea"/><use id="use853" x="355.619" xlink:href="#c_0bce5afba2dc6b9024b26277c38ad8e8"/><use id="use855" x="417.143" xlink:href="#c_8e0810ad13fe20a2a87a2619799b154d"/><use id="use857" x="469.242" xlink:href="#c_d41d8cd98f00b204e9800998ecf8427e"/><use id="use859" x="501.029" xlink:href="#c_518d586bee075aa0153eaebfcb5ab11f"/><use id="use861" x="559.582" xlink:href="#c_6ec8d5749226675394676a5d2a3b468b"/><use id="use863" x="598.445" xlink:href="#c_f05dd90d41f04bb96ef1ca503cc2044b"/><use id="use865" x="659.627" xlink:href="#c_d41d8cd98f00b204e9800998ecf8427e"/><use id="use867" x="691.414" xlink:href="#c_ed3f3ed3ebfbd18bcb9c012009a68ad1"/><use id="use869" x="755.037" xlink:href="#c_ed3e21196fb739f392806f09ca0594ef"/><use id="use871" x="786.824" xlink:href="#c_42baa63129a918535c52adb20d687ea7"/><use id="use873" x="850.447" xlink:href="#c_d41d8cd98f00b204e9800998ecf8427e"/><use id="use875" x="882.234" xlink:href="#c_c48ceabac27bf136feba2f4bf2716ab6"/><use id="use877" x="941.414" xlink:href="#c_8e0810ad13fe20a2a87a2619799b154d"/><use id="use879" x="993.514" xlink:href="#c_d41d8cd98f00b204e9800998ecf8427e"/><use id="use881" x="1025.301" xlink:href="#c_518d586bee075aa0153eaebfcb5ab11f"/><use id="use883" x="1081.979" xlink:href="#c_f05dd90d41f04bb96ef1ca503cc2044b"/><use id="use885" x="1143.16" xlink:href="#c_8e0810ad13fe20a2a87a2619799b154d"/><use id="use887" x="1195.26" xlink:href="#c_0f8c41144cfbf448378cb6fd1cc8e549"/><use id="use889" x="1234.469" xlink:href="#c_e3864de5dabf2f8dd9eee74726882ec1"/><use id="use891" x="1297.945" xlink:href="#c_6ec8d5749226675394676a5d2a3b468b"/><use id="use893" x="1336.809" xlink:href="#c_0bce5afba2dc6b9024b26277c38ad8e8"/><use id="use895" x="1398.332" xlink:href="#c_b672e4bee30772019085dff1098f516d"/><use id="use897" x="1461.809" xlink:href="#c_46f5d86430594d4affc2299f73adabe3"/><use id="use899" x="1540.52" xlink:href="#c_07e3f33241aff50afcba519606f2a979"/><use id="use901" x="1596.232" xlink:href="#c_d41d8cd98f00b204e9800998ecf8427e"/><use id="use903" x="1628.02" xlink:href="#c_bef35738d52871942e50b9de9b122bab"/><use id="use905" x="1691.643" xlink:href="#c_ed3e21196fb739f392806f09ca0594ef"/><use id="use907" x="1723.43" xlink:href="#c_3dcfa38a02242cb63ec6726c6e70be7a"/><use id="use909" x="1787.053" xlink:href="#c_ed3e21196fb739f392806f09ca0594ef"/><use id="use911" x="1818.84" xlink:href="#c_42baa63129a918535c52adb20d687ea7"/><use id="use913" x="1882.463" xlink:href="#c_e96974be642f6eac0427d72f9cec6c19"/></g><g id="legend1"><path style="fill:#fff;stroke:#000;stroke-width:1;stroke-linejoin:miter;stroke-linecap:square;opacity:1" id="path916" d="M79.200000 94.629375L182.633750 94.629375L182.633750 50.400000 L79.200000 50.400000L79.200000 94.629375z"/><path style="fill:#00f;stroke:#000;stroke-width:1;stroke-linejoin:miter;stroke-linecap:square;opacity:1" id="path918" d="M84.960000 67.360000L113.760000 67.360000L113.760000 56.160000 L84.960000 56.160000L84.960000 67.360000"/><g style="fill:#000;opacity:1" id="g920" transform="translate(125.280000,67.360000)scale(0.144000)"><use id="use922" xlink:href="#c_814edda51889e387a3dfbce453bfa1ec"/><use id="use924" x="29.492" xlink:href="#c_fe791a90f5471e2ab20a5ed41a7fa451"/><use id="use926" x="92.871" xlink:href="#c_0f8c41144cfbf448378cb6fd1cc8e549"/><use id="use928" x="132.08" xlink:href="#c_3dcfa38a02242cb63ec6726c6e70be7a"/><use id="use930" x="195.703" xlink:href="#c_ed3f3ed3ebfbd18bcb9c012009a68ad1"/></g><path style="fill:red;stroke:#000;stroke-width:1;stroke-linejoin:miter;stroke-linecap:square;opacity:1" id="path932" d="M84.960000 88.666250L113.760000 88.666250L113.760000 77.466250 L84.960000 77.466250L84.960000 88.666250"/><defs id="defs934"><path id="c_5d9b0d099c491f27a9f40b391fa98eef" d="M9.812500 -72.906250l41.890625 0.000000l0.000000 8.312500l-32.031250 0.000000l0.000000 21.484375l28.906250 0.000000l0.000000 8.296875l-28.906250 0.000000l0.000000 34.812500l-9.859375 0.000000z"/></defs><g style="fill:#000;opacity:1" id="g937" transform="translate(125.280000,88.666250)scale(0.144000)"><use id="use939" xlink:href="#c_5d9b0d099c491f27a9f40b391fa98eef"/><use id="use941" x="57.52" xlink:href="#c_5099edb83619131346ae654950954dea"/><use id="use943" x="85.303" xlink:href="#c_f05dd90d41f04bb96ef1ca503cc2044b"/><use id="use945" x="146.484" xlink:href="#c_01d93a582460e35a7945ca50d148ffeb"/><use id="use947" x="207.764" xlink:href="#c_0f8c41144cfbf448378cb6fd1cc8e549"/><use id="use949" x="246.973" xlink:href="#c_cc8d6d580d1b10c8632f7a42cd53db8a"/><use id="use951" x="310.596" xlink:href="#c_a0416418d96557a09b8c1332d34883ba"/></g></g><text style="font-size:16px;font-style:normal;font-weight:400;fill:red;fill-opacity:1;stroke:none;stroke-width:1px;stroke-linecap:butt;stroke-linejoin:miter;stroke-opacity:1;font-family:Bitstream Vera Sans" id="text3125" x="400.438" y="196.268" xml:space="preserve"><tspan id="tspan3127" x="400.438" y="196.268">1.5x</tspan><tspan id="tspan3129" x="400.438" y="216.268">faster</tspan></text></g></g><path style="fill:none;fill-rule:evenodd;stroke:#000;stroke-width:1.64400232;stroke-linecap:butt;stroke-linejoin:miter;marker-start:url(#Arrow2Mstart);marker-end:url(#Arrow2Mend);stroke-miterlimit:4;stroke-dasharray:none;stroke-opacity:1" id="path10026" d="M 159.50336,365.0149 C 161.44999,324.19657 138.6904,123.56074 250.7349,124.4164 C 451.67659,125.95095 429.29746,99.056071 467.93684,82.058383"/><text style="font-size:19.20000076px;font-style:normal;font-weight:400;fill:red;fill-opacity:1;stroke:none;stroke-width:1px;stroke-linecap:butt;stroke-linejoin:miter;stroke-opacity:1;font-family:Bitstream Vera Sans" id="text10999" x="247.42" y="115.697" xml:space="preserve"><tspan id="tspan11001" x="247.42" y="115.697">25x faster</tspan></text><path style="fill:none;fill-rule:evenodd;stroke:#000;stroke-width:1.64400232;stroke-linecap:butt;stroke-linejoin:miter;marker-start:url(#Arrow2Mstart);marker-end:url(#Arrow2Mend);stroke-miterlimit:4;stroke-dasharray:none;stroke-opacity:1" id="path3131" d="M 136.62104,368.47478 C 138.56767,327.65645 169.914,175.78946 283.01388,176.06983 C 431.84322,176.43877 408.15709,144.3224 447.95776,134.29245"/><text style="font-size:19.20000076px;font-style:normal;font-weight:400;fill:#00f;fill-opacity:1;stroke:none;stroke-width:1px;stroke-linecap:butt;stroke-linejoin:miter;stroke-opacity:1;font-family:Bitstream Vera Sans" id="text3133" x="259.579" y="168.1" xml:space="preserve"><tspan id="tspan3135" x="259.579" y="168.1">21x faster</tspan></text></svg>