<svg xmlns="http://www.w3.org/2000/svg" xmlns:xlink="http://www.w3.org/1999/xlink" id="svg1" width="576" height="432" version="1.1" viewBox="0 0 576 432"><g id="figure1"><polygon style="fill:#fff;stroke:#fff;stroke-width:1;stroke-linejoin:miter;stroke-linecap:square;opacity:1" points="0 432 0 0 576 0 576 432"/><g id="axes1"><polygon style="fill:#fff;stroke:#000;stroke-width:1;stroke-linejoin:miter;stroke-linecap:square;opacity:1" points="72 388.8 72 43.2 518.4 43.2 518.4 388.8"/><defs><clipPath id="-1250928610"><rect width="446.4" height="345.6" x="72" y="43.2" style="stroke:gray;fill:none"/></clipPath></defs><path style="fill:none;stroke:#00f;stroke-width:2;stroke-linejoin:miter;stroke-linecap:square;opacity:1" d="M 518.400000,304.163265 L 499.202887,305.573878 L 473.825684,307.689796 L 454.628571,311.216327 L 435.431459,311.216327 L 410.054256,311.216327 L 390.857143,311.216327 L 371.660030,310.511020 L 346.282827,310.511020 L 327.085714,311.216327 L 307.888601,311.216327 L 282.511399,310.511020 L 263.314286,310.511020 L 244.117173,309.805714 L 218.739970,309.100408 L 199.542857,309.805714 L 180.345744,309.805714 L 154.968541,309.805714 L 135.771429,309.805714 L 116.574316,309.805714 L 91.197113,309.805714 L 72.000000,310.511020" clip-path="url(#-1250928610)"/><rect style="fill:#00f;stroke:#000;stroke-width:.5;stroke-linejoin:miter;stroke-linecap:butt;opacity:1" width="8" height="8" x="514.4" y="300.163" clip-path="url(#-1250928610)"/><rect style="fill:#00f;stroke:#000;stroke-width:.5;stroke-linejoin:miter;stroke-linecap:butt;opacity:1" width="8" height="8" x="495.203" y="301.574" clip-path="url(#-1250928610)"/><rect style="fill:#00f;stroke:#000;stroke-width:.5;stroke-linejoin:miter;stroke-linecap:butt;opacity:1" width="8" height="8" x="469.826" y="303.69" clip-path="url(#-1250928610)"/><rect style="fill:#00f;stroke:#000;stroke-width:.5;stroke-linejoin:miter;stroke-linecap:butt;opacity:1" width="8" height="8" x="450.629" y="307.216" clip-path="url(#-1250928610)"/><rect style="fill:#00f;stroke:#000;stroke-width:.5;stroke-linejoin:miter;stroke-linecap:butt;opacity:1" width="8" height="8" x="431.431" y="307.216" clip-path="url(#-1250928610)"/><rect style="fill:#00f;stroke:#000;stroke-width:.5;stroke-linejoin:miter;stroke-linecap:butt;opacity:1" width="8" height="8" x="406.054" y="307.216" clip-path="url(#-1250928610)"/><rect style="fill:#00f;stroke:#000;stroke-width:.5;stroke-linejoin:miter;stroke-linecap:butt;opacity:1" width="8" height="8" x="386.857" y="307.216" clip-path="url(#-1250928610)"/><rect style="fill:#00f;stroke:#000;stroke-width:.5;stroke-linejoin:miter;stroke-linecap:butt;opacity:1" width="8" height="8" x="367.66" y="306.511" clip-path="url(#-1250928610)"/><rect style="fill:#00f;stroke:#000;stroke-width:.5;stroke-linejoin:miter;stroke-linecap:butt;opacity:1" width="8" height="8" x="342.283" y="306.511" clip-path="url(#-1250928610)"/><rect style="fill:#00f;stroke:#000;stroke-width:.5;stroke-linejoin:miter;stroke-linecap:butt;opacity:1" width="8" height="8" x="323.086" y="307.216" clip-path="url(#-1250928610)"/><rect style="fill:#00f;stroke:#000;stroke-width:.5;stroke-linejoin:miter;stroke-linecap:butt;opacity:1" width="8" height="8" x="303.889" y="307.216" clip-path="url(#-1250928610)"/><rect style="fill:#00f;stroke:#000;stroke-width:.5;stroke-linejoin:miter;stroke-linecap:butt;opacity:1" width="8" height="8" x="278.511" y="306.511" clip-path="url(#-1250928610)"/><rect style="fill:#00f;stroke:#000;stroke-width:.5;stroke-linejoin:miter;stroke-linecap:butt;opacity:1" width="8" height="8" x="259.314" y="306.511" clip-path="url(#-1250928610)"/><rect style="fill:#00f;stroke:#000;stroke-width:.5;stroke-linejoin:miter;stroke-linecap:butt;opacity:1" width="8" height="8" x="240.117" y="305.806" clip-path="url(#-1250928610)"/><rect style="fill:#00f;stroke:#000;stroke-width:.5;stroke-linejoin:miter;stroke-linecap:butt;opacity:1" width="8" height="8" x="214.74" y="305.1" clip-path="url(#-1250928610)"/><rect style="fill:#00f;stroke:#000;stroke-width:.5;stroke-linejoin:miter;stroke-linecap:butt;opacity:1" width="8" height="8" x="195.543" y="305.806" clip-path="url(#-1250928610)"/><rect style="fill:#00f;stroke:#000;stroke-width:.5;stroke-linejoin:miter;stroke-linecap:butt;opacity:1" width="8" height="8" x="176.346" y="305.806" clip-path="url(#-1250928610)"/><rect style="fill:#00f;stroke:#000;stroke-width:.5;stroke-linejoin:miter;stroke-linecap:butt;opacity:1" width="8" height="8" x="150.969" y="305.806" clip-path="url(#-1250928610)"/><rect style="fill:#00f;stroke:#000;stroke-width:.5;stroke-linejoin:miter;stroke-linecap:butt;opacity:1" width="8" height="8" x="131.771" y="305.806" clip-path="url(#-1250928610)"/><rect style="fill:#00f;stroke:#000;stroke-width:.5;stroke-linejoin:miter;stroke-linecap:butt;opacity:1" width="8" height="8" x="112.574" y="305.806" clip-path="url(#-1250928610)"/><rect style="fill:#00f;stroke:#000;stroke-width:.5;stroke-linejoin:miter;stroke-linecap:butt;opacity:1" width="8" height="8" x="87.197" y="305.806" clip-path="url(#-1250928610)"/><rect style="fill:#00f;stroke:#000;stroke-width:.5;stroke-linejoin:miter;stroke-linecap:butt;opacity:1" width="8" height="8" x="68" y="306.511" clip-path="url(#-1250928610)"/><path style="fill:none;stroke:green;stroke-width:2;stroke-linejoin:miter;stroke-linecap:square;opacity:1" d="M 518.400000,306.984490 L 499.202887,308.395102 L 473.825684,309.100408 L 454.628571,311.216327 L 435.431459,311.216327 L 410.054256,310.511020 L 390.857143,311.216327 L 371.660030,310.511020 L 346.282827,310.511020 L 327.085714,310.511020 L 307.888601,309.100408 L 282.511399,310.511020 L 263.314286,309.805714 L 244.117173,311.216327 L 218.739970,309.100408 L 199.542857,309.805714 L 180.345744,309.100408 L 154.968541,309.100408 L 135.771429,309.805714 L 116.574316,310.511020 L 91.197113,310.511020 L 72.000000,310.511020" clip-path="url(#-1250928610)"/><ellipse style="fill:green;stroke:#000;stroke-width:.5;stroke-linejoin:miter;stroke-linecap:butt;opacity:1" cx="518.4" cy="306.984" clip-path="url(#-1250928610)" rx="4" ry="4" transform="rotate(-0.000000 518.400000 306.984490)"/><ellipse style="fill:green;stroke:#000;stroke-width:.5;stroke-linejoin:miter;stroke-linecap:butt;opacity:1" cx="499.203" cy="308.395" clip-path="url(#-1250928610)" rx="4" ry="4" transform="rotate(-0.000000 499.202887 308.395102)"/><ellipse style="fill:green;stroke:#000;stroke-width:.5;stroke-linejoin:miter;stroke-linecap:butt;opacity:1" cx="473.826" cy="309.1" clip-path="url(#-1250928610)" rx="4" ry="4" transform="rotate(-0.000000 473.825684 309.100408)"/><ellipse style="fill:green;stroke:#000;stroke-width:.5;stroke-linejoin:miter;stroke-linecap:butt;opacity:1" cx="454.629" cy="311.216" clip-path="url(#-1250928610)" rx="4" ry="4" transform="rotate(-0.000000 454.628571 311.216327)"/><ellipse style="fill:green;stroke:#000;stroke-width:.5;stroke-linejoin:miter;stroke-linecap:butt;opacity:1" cx="435.431" cy="311.216" clip-path="url(#-1250928610)" rx="4" ry="4" transform="rotate(-0.000000 435.431459 311.216327)"/><ellipse style="fill:green;stroke:#000;stroke-width:.5;stroke-linejoin:miter;stroke-linecap:butt;opacity:1" cx="410.054" cy="310.511" clip-path="url(#-1250928610)" rx="4" ry="4" transform="rotate(-0.000000 410.054256 310.511020)"/><ellipse style="fill:green;stroke:#000;stroke-width:.5;stroke-linejoin:miter;stroke-linecap:butt;opacity:1" cx="390.857" cy="311.216" clip-path="url(#-1250928610)" rx="4" ry="4" transform="rotate(-0.000000 390.857143 311.216327)"/><ellipse style="fill:green;stroke:#000;stroke-width:.5;stroke-linejoin:miter;stroke-linecap:butt;opacity:1" cx="371.66" cy="310.511" clip-path="url(#-1250928610)" rx="4" ry="4" transform="rotate(-0.000000 371.660030 310.511020)"/><ellipse style="fill:green;stroke:#000;stroke-width:.5;stroke-linejoin:miter;stroke-linecap:butt;opacity:1" cx="346.283" cy="310.511" clip-path="url(#-1250928610)" rx="4" ry="4" transform="rotate(-0.000000 346.282827 310.511020)"/><ellipse style="fill:green;stroke:#000;stroke-width:.5;stroke-linejoin:miter;stroke-linecap:butt;opacity:1" cx="327.086" cy="310.511" clip-path="url(#-1250928610)" rx="4" ry="4" transform="rotate(-0.000000 327.085714 310.511020)"/><ellipse style="fill:green;stroke:#000;stroke-width:.5;stroke-linejoin:miter;stroke-linecap:butt;opacity:1" cx="307.889" cy="309.1" clip-path="url(#-1250928610)" rx="4" ry="4" transform="rotate(-0.000000 307.888601 309.100408)"/><ellipse style="fill:green;stroke:#000;stroke-width:.5;stroke-linejoin:miter;stroke-linecap:butt;opacity:1" cx="282.511" cy="310.511" clip-path="url(#-1250928610)" rx="4" ry="4" transform="rotate(-0.000000 282.511399 310.511020)"/><ellipse style="fill:green;stroke:#000;stroke-width:.5;stroke-linejoin:miter;stroke-linecap:butt;opacity:1" cx="263.314" cy="309.806" clip-path="url(#-1250928610)" rx="4" ry="4" transform="rotate(-0.000000 263.314286 309.805714)"/><ellipse style="fill:green;stroke:#000;stroke-width:.5;stroke-linejoin:miter;stroke-linecap:butt;opacity:1" cx="244.117" cy="311.216" clip-path="url(#-1250928610)" rx="4" ry="4" transform="rotate(-0.000000 244.117173 311.216327)"/><ellipse style="fill:green;stroke:#000;stroke-width:.5;stroke-linejoin:miter;stroke-linecap:butt;opacity:1" cx="218.74" cy="309.1" clip-path="url(#-1250928610)" rx="4" ry="4" transform="rotate(-0.000000 218.739970 309.100408)"/><ellipse style="fill:green;stroke:#000;stroke-width:.5;stroke-linejoin:miter;stroke-linecap:butt;opacity:1" cx="199.543" cy="309.806" clip-path="url(#-1250928610)" rx="4" ry="4" transform="rotate(-0.000000 199.542857 309.805714)"/><ellipse style="fill:green;stroke:#000;stroke-width:.5;stroke-linejoin:miter;stroke-linecap:butt;opacity:1" cx="180.346" cy="309.1" clip-path="url(#-1250928610)" rx="4" ry="4" transform="rotate(-0.000000 180.345744 309.100408)"/><ellipse style="fill:green;stroke:#000;stroke-width:.5;stroke-linejoin:miter;stroke-linecap:butt;opacity:1" cx="154.969" cy="309.1" clip-path="url(#-1250928610)" rx="4" ry="4" transform="rotate(-0.000000 154.968541 309.100408)"/><ellipse style="fill:green;stroke:#000;stroke-width:.5;stroke-linejoin:miter;stroke-linecap:butt;opacity:1" cx="135.771" cy="309.806" clip-path="url(#-1250928610)" rx="4" ry="4" transform="rotate(-0.000000 135.771429 309.805714)"/><ellipse style="fill:green;stroke:#000;stroke-width:.5;stroke-linejoin:miter;stroke-linecap:butt;opacity:1" cx="116.574" cy="310.511" clip-path="url(#-1250928610)" rx="4" ry="4" transform="rotate(-0.000000 116.574316 310.511020)"/><ellipse style="fill:green;stroke:#000;stroke-width:.5;stroke-linejoin:miter;stroke-linecap:butt;opacity:1" cx="91.197" cy="310.511" clip-path="url(#-1250928610)" rx="4" ry="4" transform="rotate(-0.000000 91.197113 310.511020)"/><ellipse style="fill:green;stroke:#000;stroke-width:.5;stroke-linejoin:miter;stroke-linecap:butt;opacity:1" cx="72" cy="310.511" clip-path="url(#-1250928610)" rx="4" ry="4" transform="rotate(-0.000000 72.000000 310.511020)"/><path style="fill:none;stroke:red;stroke-width:2;stroke-linejoin:miter;stroke-linecap:square;opacity:1" d="M 518.400000,306.984490 L 499.202887,307.689796 L 473.825684,308.395102 L 454.628571,309.805714 L 435.431459,309.100408 L 410.054256,308.395102 L 390.857143,309.100408 L 371.660030,307.689796 L 346.282827,308.395102 L 327.085714,308.395102 L 307.888601,308.395102 L 282.511399,309.100408 L 263.314286,307.689796 L 244.117173,308.395102 L 218.739970,307.689796 L 199.542857,308.395102 L 180.345744,308.395102 L 154.968541,309.100408 L 135.771429,308.395102 L 116.574316,309.100408 L 91.197113,309.805714 L 72.000000,309.100408" clip-path="url(#-1250928610)"/><polygon style="fill:red;stroke:#000;stroke-width:.5;stroke-linejoin:miter;stroke-linecap:butt;opacity:1" points="514.4 302.984 522.4 302.984 518.4 310.984" clip-path="url(#-1250928610)"/><polygon style="fill:red;stroke:#000;stroke-width:.5;stroke-linejoin:miter;stroke-linecap:butt;opacity:1" points="495.203 303.69 503.203 303.69 499.203 311.69" clip-path="url(#-1250928610)"/><polygon style="fill:red;stroke:#000;stroke-width:.5;stroke-linejoin:miter;stroke-linecap:butt;opacity:1" points="469.826 304.395 477.826 304.395 473.826 312.395" clip-path="url(#-1250928610)"/><polygon style="fill:red;stroke:#000;stroke-width:.5;stroke-linejoin:miter;stroke-linecap:butt;opacity:1" points="450.629 305.806 458.629 305.806 454.629 313.806" clip-path="url(#-1250928610)"/><polygon style="fill:red;stroke:#000;stroke-width:.5;stroke-linejoin:miter;stroke-linecap:butt;opacity:1" points="431.431 305.1 439.431 305.1 435.431 313.1" clip-path="url(#-1250928610)"/><polygon style="fill:red;stroke:#000;stroke-width:.5;stroke-linejoin:miter;stroke-linecap:butt;opacity:1" points="406.054 304.395 414.054 304.395 410.054 312.395" clip-path="url(#-1250928610)"/><polygon style="fill:red;stroke:#000;stroke-width:.5;stroke-linejoin:miter;stroke-linecap:butt;opacity:1" points="386.857 305.1 394.857 305.1 390.857 313.1" clip-path="url(#-1250928610)"/><polygon style="fill:red;stroke:#000;stroke-width:.5;stroke-linejoin:miter;stroke-linecap:butt;opacity:1" points="367.66 303.69 375.66 303.69 371.66 311.69" clip-path="url(#-1250928610)"/><polygon style="fill:red;stroke:#000;stroke-width:.5;stroke-linejoin:miter;stroke-linecap:butt;opacity:1" points="342.283 304.395 350.283 304.395 346.283 312.395" clip-path="url(#-1250928610)"/><polygon style="fill:red;stroke:#000;stroke-width:.5;stroke-linejoin:miter;stroke-linecap:butt;opacity:1" points="323.086 304.395 331.086 304.395 327.086 312.395" clip-path="url(#-1250928610)"/><polygon style="fill:red;stroke:#000;stroke-width:.5;stroke-linejoin:miter;stroke-linecap:butt;opacity:1" points="303.889 304.395 311.889 304.395 307.889 312.395" clip-path="url(#-1250928610)"/><polygon style="fill:red;stroke:#000;stroke-width:.5;stroke-linejoin:miter;stroke-linecap:butt;opacity:1" points="278.511 305.1 286.511 305.1 282.511 313.1" clip-path="url(#-1250928610)"/><polygon style="fill:red;stroke:#000;stroke-width:.5;stroke-linejoin:miter;stroke-linecap:butt;opacity:1" points="259.314 303.69 267.314 303.69 263.314 311.69" clip-path="url(#-1250928610)"/><polygon style="fill:red;stroke:#000;stroke-width:.5;stroke-linejoin:miter;stroke-linecap:butt;opacity:1" points="240.117 304.395 248.117 304.395 244.117 312.395" clip-path="url(#-1250928610)"/><polygon style="fill:red;stroke:#000;stroke-width:.5;stroke-linejoin:miter;stroke-linecap:butt;opacity:1" points="214.74 303.69 222.74 303.69 218.74 311.69" clip-path="url(#-1250928610)"/><polygon style="fill:red;stroke:#000;stroke-width:.5;stroke-linejoin:miter;stroke-linecap:butt;opacity:1" points="195.543 304.395 203.543 304.395 199.543 312.395" clip-path="url(#-1250928610)"/><polygon style="fill:red;stroke:#000;stroke-width:.5;stroke-linejoin:miter;stroke-linecap:butt;opacity:1" points="176.346 304.395 184.346 304.395 180.346 312.395" clip-path="url(#-1250928610)"/><polygon style="fill:red;stroke:#000;stroke-width:.5;stroke-linejoin:miter;stroke-linecap:butt;opacity:1" points="150.969 305.1 158.969 305.1 154.969 313.1" clip-path="url(#-1250928610)"/><polygon style="fill:red;stroke:#000;stroke-width:.5;stroke-linejoin:miter;stroke-linecap:butt;opacity:1" points="131.771 304.395 139.771 304.395 135.771 312.395" clip-path="url(#-1250928610)"/><polygon style="fill:red;stroke:#000;stroke-width:.5;stroke-linejoin:miter;stroke-linecap:butt;opacity:1" points="112.574 305.1 120.574 305.1 116.574 313.1" clip-path="url(#-1250928610)"/><polygon style="fill:red;stroke:#000;stroke-width:.5;stroke-linejoin:miter;stroke-linecap:butt;opacity:1" points="87.197 305.806 95.197 305.806 91.197 313.806" clip-path="url(#-1250928610)"/><polygon style="fill:red;stroke:#000;stroke-width:.5;stroke-linejoin:miter;stroke-linecap:butt;opacity:1" points="68 305.1 76 305.1 72 313.1" clip-path="url(#-1250928610)"/><path style="fill:none;stroke:#00bfbf;stroke-width:2;stroke-linejoin:miter;stroke-linecap:square;opacity:1" d="M 518.400000,307.689796 L 499.202887,307.689796 L 473.825684,309.805714 L 454.628571,309.100408 L 435.431459,308.395102 L 410.054256,308.395102 L 390.857143,308.395102 L 371.660030,308.395102 L 346.282827,308.395102 L 327.085714,309.100408 L 307.888601,308.395102 L 282.511399,308.395102 L 263.314286,308.395102 L 244.117173,308.395102 L 218.739970,307.689796 L 199.542857,309.805714 L 180.345744,308.395102 L 154.968541,308.395102 L 135.771429,308.395102 L 116.574316,308.395102 L 91.197113,310.511020 L 72.000000,309.100408" clip-path="url(#-1250928610)"/><polygon style="fill:#00bfbf;stroke:#000;stroke-width:.5;stroke-linejoin:miter;stroke-linecap:butt;opacity:1" points="518.4 303.69 514.4 311.69 522.4 311.69" clip-path="url(#-1250928610)"/><polygon style="fill:#00bfbf;stroke:#000;stroke-width:.5;stroke-linejoin:miter;stroke-linecap:butt;opacity:1" points="499.203 303.69 495.203 311.69 503.203 311.69" clip-path="url(#-1250928610)"/><polygon style="fill:#00bfbf;stroke:#000;stroke-width:.5;stroke-linejoin:miter;stroke-linecap:butt;opacity:1" points="473.826 305.806 469.826 313.806 477.826 313.806" clip-path="url(#-1250928610)"/><polygon style="fill:#00bfbf;stroke:#000;stroke-width:.5;stroke-linejoin:miter;stroke-linecap:butt;opacity:1" points="454.629 305.1 450.629 313.1 458.629 313.1" clip-path="url(#-1250928610)"/><polygon style="fill:#00bfbf;stroke:#000;stroke-width:.5;stroke-linejoin:miter;stroke-linecap:butt;opacity:1" points="435.431 304.395 431.431 312.395 439.431 312.395" clip-path="url(#-1250928610)"/><polygon style="fill:#00bfbf;stroke:#000;stroke-width:.5;stroke-linejoin:miter;stroke-linecap:butt;opacity:1" points="410.054 304.395 406.054 312.395 414.054 312.395" clip-path="url(#-1250928610)"/><polygon style="fill:#00bfbf;stroke:#000;stroke-width:.5;stroke-linejoin:miter;stroke-linecap:butt;opacity:1" points="390.857 304.395 386.857 312.395 394.857 312.395" clip-path="url(#-1250928610)"/><polygon style="fill:#00bfbf;stroke:#000;stroke-width:.5;stroke-linejoin:miter;stroke-linecap:butt;opacity:1" points="371.66 304.395 367.66 312.395 375.66 312.395" clip-path="url(#-1250928610)"/><polygon style="fill:#00bfbf;stroke:#000;stroke-width:.5;stroke-linejoin:miter;stroke-linecap:butt;opacity:1" points="346.283 304.395 342.283 312.395 350.283 312.395" clip-path="url(#-1250928610)"/><polygon style="fill:#00bfbf;stroke:#000;stroke-width:.5;stroke-linejoin:miter;stroke-linecap:butt;opacity:1" points="327.086 305.1 323.086 313.1 331.086 313.1" clip-path="url(#-1250928610)"/><polygon style="fill:#00bfbf;stroke:#000;stroke-width:.5;stroke-linejoin:miter;stroke-linecap:butt;opacity:1" points="307.889 304.395 303.889 312.395 311.889 312.395" clip-path="url(#-1250928610)"/><polygon style="fill:#00bfbf;stroke:#000;stroke-width:.5;stroke-linejoin:miter;stroke-linecap:butt;opacity:1" points="282.511 304.395 278.511 312.395 286.511 312.395" clip-path="url(#-1250928610)"/><polygon style="fill:#00bfbf;stroke:#000;stroke-width:.5;stroke-linejoin:miter;stroke-linecap:butt;opacity:1" points="263.314 304.395 259.314 312.395 267.314 312.395" clip-path="url(#-1250928610)"/><polygon style="fill:#00bfbf;stroke:#000;stroke-width:.5;stroke-linejoin:miter;stroke-linecap:butt;opacity:1" points="244.117 304.395 240.117 312.395 248.117 312.395" clip-path="url(#-1250928610)"/><polygon style="fill:#00bfbf;stroke:#000;stroke-width:.5;stroke-linejoin:miter;stroke-linecap:butt;opacity:1" points="218.74 303.69 214.74 311.69 222.74 311.69" clip-path="url(#-1250928610)"/><polygon style="fill:#00bfbf;stroke:#000;stroke-width:.5;stroke-linejoin:miter;stroke-linecap:butt;opacity:1" points="199.543 305.806 195.543 313.806 203.543 313.806" clip-path="url(#-1250928610)"/><polygon style="fill:#00bfbf;stroke:#000;stroke-width:.5;stroke-linejoin:miter;stroke-linecap:butt;opacity:1" points="180.346 304.395 176.346 312.395 184.346 312.395" clip-path="url(#-1250928610)"/><polygon style="fill:#00bfbf;stroke:#000;stroke-width:.5;stroke-linejoin:miter;stroke-linecap:butt;opacity:1" points="154.969 304.395 150.969 312.395 158.969 312.395" clip-path="url(#-1250928610)"/><polygon style="fill:#00bfbf;stroke:#000;stroke-width:.5;stroke-linejoin:miter;stroke-linecap:butt;opacity:1" points="135.771 304.395 131.771 312.395 139.771 312.395" clip-path="url(#-1250928610)"/><polygon style="fill:#00bfbf;stroke:#000;stroke-width:.5;stroke-linejoin:miter;stroke-linecap:butt;opacity:1" points="116.574 304.395 112.574 312.395 120.574 312.395" clip-path="url(#-1250928610)"/><polygon style="fill:#00bfbf;stroke:#000;stroke-width:.5;stroke-linejoin:miter;stroke-linecap:butt;opacity:1" points="91.197 306.511 87.197 314.511 95.197 314.511" clip-path="url(#-1250928610)"/><polygon style="fill:#00bfbf;stroke:#000;stroke-width:.5;stroke-linejoin:miter;stroke-linecap:butt;opacity:1" points="72 305.1 68 313.1 76 313.1" clip-path="url(#-1250928610)"/><path style="fill:none;stroke:#bf00bf;stroke-width:2;stroke-linejoin:miter;stroke-linecap:square;opacity:1" d="M 473.825684,73.528163 L 454.628571,217.410612 L 435.431459,217.410612 L 410.054256,218.821224 L 390.857143,218.115918 L 371.660030,216.705306 L 346.282827,218.115918 L 327.085714,220.231837 L 307.888601,218.115918 L 282.511399,206.831020 L 263.314286,217.410612 L 244.117173,218.821224 L 218.739970,217.410612 L 199.542857,219.526531 L 180.345744,217.410612 L 154.968541,206.125714 L 135.771429,220.937143 L 116.574316,219.526531 L 91.197113,218.821224 L 72.000000,219.526531" clip-path="url(#-1250928610)"/><g id="matplotlib.axis1"><g id="xtick1"><text style="font-size:9.996;font-family:Bitstream Vera Serif;font-style:normal;fill:#000" x="65.5" y="398.8">10</text><text style="font-size:6.9972;font-family:Bitstream Vera Serif;font-style:normal;fill:#000" x="76.5" y="395.3">3</text></g><g id="xtick2"><path style="fill:none;stroke:#000;stroke-width:.5;stroke-linejoin:miter;stroke-linecap:butt;stroke-dasharray:1 3;stroke-dashoffset:0;opacity:1" d="M 135.771429,388.800000 L 135.771429,43.200000" clip-path="url(#-1250928610)"/><path style="fill:none;stroke:#000;stroke-width:.5;stroke-linejoin:miter;stroke-linecap:butt;opacity:1" d="M 135.771429,388.800000 L 135.771429,383.800000"/><path style="fill:none;stroke:#000;stroke-width:.5;stroke-linejoin:miter;stroke-linecap:butt;opacity:1" d="M 135.771429,48.200000 L 135.771429,43.200000"/><text style="font-size:9.996;font-family:Bitstream Vera Serif;font-style:normal;fill:#000" x="128.771" y="398.8">10</text><text style="font-size:6.9972;font-family:Bitstream Vera Serif;font-style:normal;fill:#000" x="139.771" y="395.3">4</text></g><g id="xtick3"><path style="fill:none;stroke:#000;stroke-width:.5;stroke-linejoin:miter;stroke-linecap:butt;stroke-dasharray:1 3;stroke-dashoffset:0;opacity:1" d="M 199.542857,388.800000 L 199.542857,43.200000" clip-path="url(#-1250928610)"/><path style="fill:none;stroke:#000;stroke-width:.5;stroke-linejoin:miter;stroke-linecap:butt;opacity:1" d="M 199.542857,388.800000 L 199.542857,383.800000"/><path style="fill:none;stroke:#000;stroke-width:.5;stroke-linejoin:miter;stroke-linecap:butt;opacity:1" d="M 199.542857,48.200000 L 199.542857,43.200000"/><text style="font-size:9.996;font-family:Bitstream Vera Serif;font-style:normal;fill:#000" x="193.043" y="398.8">10</text><text style="font-size:6.9972;font-family:Bitstream Vera Serif;font-style:normal;fill:#000" x="204.043" y="395.3">5</text></g><g id="xtick4"><path style="fill:none;stroke:#000;stroke-width:.5;stroke-linejoin:miter;stroke-linecap:butt;stroke-dasharray:1 3;stroke-dashoffset:0;opacity:1" d="M 263.314286,388.800000 L 263.314286,43.200000" clip-path="url(#-1250928610)"/><path style="fill:none;stroke:#000;stroke-width:.5;stroke-linejoin:miter;stroke-linecap:butt;opacity:1" d="M 263.314286,388.800000 L 263.314286,383.800000"/><path style="fill:none;stroke:#000;stroke-width:.5;stroke-linejoin:miter;stroke-linecap:butt;opacity:1" d="M 263.314286,48.200000 L 263.314286,43.200000"/><text style="font-size:9.996;font-family:Bitstream Vera Serif;font-style:normal;fill:#000" x="256.314" y="398.8">10</text><text style="font-size:6.9972;font-family:Bitstream Vera Serif;font-style:normal;fill:#000" x="267.314" y="395.3">6</text></g><g id="xtick5"><path style="fill:none;stroke:#000;stroke-width:.5;stroke-linejoin:miter;stroke-linecap:butt;stroke-dasharray:1 3;stroke-dashoffset:0;opacity:1" d="M 327.085714,388.800000 L 327.085714,43.200000" clip-path="url(#-1250928610)"/><path style="fill:none;stroke:#000;stroke-width:.5;stroke-linejoin:miter;stroke-linecap:butt;opacity:1" d="M 327.085714,388.800000 L 327.085714,383.800000"/><path style="fill:none;stroke:#000;stroke-width:.5;stroke-linejoin:miter;stroke-linecap:butt;opacity:1" d="M 327.085714,48.200000 L 327.085714,43.200000"/><text style="font-size:9.996;font-family:Bitstream Vera Serif;font-style:normal;fill:#000" x="320.586" y="398.8">10</text><text style="font-size:6.9972;font-family:Bitstream Vera Serif;font-style:normal;fill:#000" x="331.586" y="395.3">7</text></g><g id="xtick6"><path style="fill:none;stroke:#000;stroke-width:.5;stroke-linejoin:miter;stroke-linecap:butt;stroke-dasharray:1 3;stroke-dashoffset:0;opacity:1" d="M 390.857143,388.800000 L 390.857143,43.200000" clip-path="url(#-1250928610)"/><path style="fill:none;stroke:#000;stroke-width:.5;stroke-linejoin:miter;stroke-linecap:butt;opacity:1" d="M 390.857143,388.800000 L 390.857143,383.800000"/><path style="fill:none;stroke:#000;stroke-width:.5;stroke-linejoin:miter;stroke-linecap:butt;opacity:1" d="M 390.857143,48.200000 L 390.857143,43.200000"/><text style="font-size:9.996;font-family:Bitstream Vera Serif;font-style:normal;fill:#000" x="383.857" y="398.8">10</text><text style="font-size:6.9972;font-family:Bitstream Vera Serif;font-style:normal;fill:#000" x="394.857" y="395.3">8</text></g><g id="xtick7"><path style="fill:none;stroke:#000;stroke-width:.5;stroke-linejoin:miter;stroke-linecap:butt;stroke-dasharray:1 3;stroke-dashoffset:0;opacity:1" d="M 454.628571,388.800000 L 454.628571,43.200000" clip-path="url(#-1250928610)"/><path style="fill:none;stroke:#000;stroke-width:.5;stroke-linejoin:miter;stroke-linecap:butt;opacity:1" d="M 454.628571,388.800000 L 454.628571,383.800000"/><path style="fill:none;stroke:#000;stroke-width:.5;stroke-linejoin:miter;stroke-linecap:butt;opacity:1" d="M 454.628571,48.200000 L 454.628571,43.200000"/><text style="font-size:9.996;font-family:Bitstream Vera Serif;font-style:normal;fill:#000" x="447.629" y="398.8">10</text><text style="font-size:6.9972;font-family:Bitstream Vera Serif;font-style:normal;fill:#000" x="458.629" y="395.3">9</text></g><g id="xtick8"><text style="font-size:9.996;font-family:Bitstream Vera Serif;font-style:normal;fill:#000" x="509.9" y="398.8">10</text><text style="font-size:6.9972;font-family:Bitstream Vera Serif;font-style:normal;fill:#000" x="520.9" y="395.3">10</text></g><g id="xtick9"><path style="fill:none;stroke:#000;stroke-width:.5;stroke-linejoin:miter;stroke-linecap:butt;opacity:1" d="M 91.197113,388.800000 L 91.197113,386.800000"/><path style="fill:none;stroke:#000;stroke-width:.5;stroke-linejoin:miter;stroke-linecap:butt;opacity:1" d="M 91.197113,45.200000 L 91.197113,43.200000"/></g><g id="xtick10"><path style="fill:none;stroke:#000;stroke-width:.5;stroke-linejoin:miter;stroke-linecap:butt;opacity:1" d="M 110.394226,388.800000 L 110.394226,386.800000"/><path style="fill:none;stroke:#000;stroke-width:.5;stroke-linejoin:miter;stroke-linecap:butt;opacity:1" d="M 110.394226,45.200000 L 110.394226,43.200000"/></g><g id="xtick11"><path style="fill:none;stroke:#000;stroke-width:.5;stroke-linejoin:miter;stroke-linecap:butt;opacity:1" d="M 121.623817,388.800000 L 121.623817,386.800000"/><path style="fill:none;stroke:#000;stroke-width:.5;stroke-linejoin:miter;stroke-linecap:butt;opacity:1" d="M 121.623817,45.200000 L 121.623817,43.200000"/></g><g id="xtick12"><path style="fill:none;stroke:#000;stroke-width:.5;stroke-linejoin:miter;stroke-linecap:butt;opacity:1" d="M 129.591339,388.800000 L 129.591339,386.800000"/><path style="fill:none;stroke:#000;stroke-width:.5;stroke-linejoin:miter;stroke-linecap:butt;opacity:1" d="M 129.591339,45.200000 L 129.591339,43.200000"/></g><g id="xtick13"><path style="fill:none;stroke:#000;stroke-width:.5;stroke-linejoin:miter;stroke-linecap:butt;opacity:1" d="M 154.968541,388.800000 L 154.968541,386.800000"/><path style="fill:none;stroke:#000;stroke-width:.5;stroke-linejoin:miter;stroke-linecap:butt;opacity:1" d="M 154.968541,45.200000 L 154.968541,43.200000"/></g><g id="xtick14"><path style="fill:none;stroke:#000;stroke-width:.5;stroke-linejoin:miter;stroke-linecap:butt;opacity:1" d="M 174.165654,388.800000 L 174.165654,386.800000"/><path style="fill:none;stroke:#000;stroke-width:.5;stroke-linejoin:miter;stroke-linecap:butt;opacity:1" d="M 174.165654,45.200000 L 174.165654,43.200000"/></g><g id="xtick15"><path style="fill:none;stroke:#000;stroke-width:.5;stroke-linejoin:miter;stroke-linecap:butt;opacity:1" d="M 185.395245,388.800000 L 185.395245,386.800000"/><path style="fill:none;stroke:#000;stroke-width:.5;stroke-linejoin:miter;stroke-linecap:butt;opacity:1" d="M 185.395245,45.200000 L 185.395245,43.200000"/></g><g id="xtick16"><path style="fill:none;stroke:#000;stroke-width:.5;stroke-linejoin:miter;stroke-linecap:butt;opacity:1" d="M 193.362767,388.800000 L 193.362767,386.800000"/><path style="fill:none;stroke:#000;stroke-width:.5;stroke-linejoin:miter;stroke-linecap:butt;opacity:1" d="M 193.362767,45.200000 L 193.362767,43.200000"/></g><g id="xtick17"><path style="fill:none;stroke:#000;stroke-width:.5;stroke-linejoin:miter;stroke-linecap:butt;opacity:1" d="M 218.739970,388.800000 L 218.739970,386.800000"/><path style="fill:none;stroke:#000;stroke-width:.5;stroke-linejoin:miter;stroke-linecap:butt;opacity:1" d="M 218.739970,45.200000 L 218.739970,43.200000"/></g><g id="xtick18"><path style="fill:none;stroke:#000;stroke-width:.5;stroke-linejoin:miter;stroke-linecap:butt;opacity:1" d="M 237.937083,388.800000 L 237.937083,386.800000"/><path style="fill:none;stroke:#000;stroke-width:.5;stroke-linejoin:miter;stroke-linecap:butt;opacity:1" d="M 237.937083,45.200000 L 237.937083,43.200000"/></g><g id="xtick19"><path style="fill:none;stroke:#000;stroke-width:.5;stroke-linejoin:miter;stroke-linecap:butt;opacity:1" d="M 249.166674,388.800000 L 249.166674,386.800000"/><path style="fill:none;stroke:#000;stroke-width:.5;stroke-linejoin:miter;stroke-linecap:butt;opacity:1" d="M 249.166674,45.200000 L 249.166674,43.200000"/></g><g id="xtick20"><path style="fill:none;stroke:#000;stroke-width:.5;stroke-linejoin:miter;stroke-linecap:butt;opacity:1" d="M 257.134196,388.800000 L 257.134196,386.800000"/><path style="fill:none;stroke:#000;stroke-width:.5;stroke-linejoin:miter;stroke-linecap:butt;opacity:1" d="M 257.134196,45.200000 L 257.134196,43.200000"/></g><g id="xtick21"><path style="fill:none;stroke:#000;stroke-width:.5;stroke-linejoin:miter;stroke-linecap:butt;opacity:1" d="M 282.511399,388.800000 L 282.511399,386.800000"/><path style="fill:none;stroke:#000;stroke-width:.5;stroke-linejoin:miter;stroke-linecap:butt;opacity:1" d="M 282.511399,45.200000 L 282.511399,43.200000"/></g><g id="xtick22"><path style="fill:none;stroke:#000;stroke-width:.5;stroke-linejoin:miter;stroke-linecap:butt;opacity:1" d="M 301.708511,388.800000 L 301.708511,386.800000"/><path style="fill:none;stroke:#000;stroke-width:.5;stroke-linejoin:miter;stroke-linecap:butt;opacity:1" d="M 301.708511,45.200000 L 301.708511,43.200000"/></g><g id="xtick23"><path style="fill:none;stroke:#000;stroke-width:.5;stroke-linejoin:miter;stroke-linecap:butt;opacity:1" d="M 312.938103,388.800000 L 312.938103,386.800000"/><path style="fill:none;stroke:#000;stroke-width:.5;stroke-linejoin:miter;stroke-linecap:butt;opacity:1" d="M 312.938103,45.200000 L 312.938103,43.200000"/></g><g id="xtick24"><path style="fill:none;stroke:#000;stroke-width:.5;stroke-linejoin:miter;stroke-linecap:butt;opacity:1" d="M 320.905624,388.800000 L 320.905624,386.800000"/><path style="fill:none;stroke:#000;stroke-width:.5;stroke-linejoin:miter;stroke-linecap:butt;opacity:1" d="M 320.905624,45.200000 L 320.905624,43.200000"/></g><g id="xtick25"><path style="fill:none;stroke:#000;stroke-width:.5;stroke-linejoin:miter;stroke-linecap:butt;opacity:1" d="M 346.282827,388.800000 L 346.282827,386.800000"/><path style="fill:none;stroke:#000;stroke-width:.5;stroke-linejoin:miter;stroke-linecap:butt;opacity:1" d="M 346.282827,45.200000 L 346.282827,43.200000"/></g><g id="xtick26"><path style="fill:none;stroke:#000;stroke-width:.5;stroke-linejoin:miter;stroke-linecap:butt;opacity:1" d="M 365.479940,388.800000 L 365.479940,386.800000"/><path style="fill:none;stroke:#000;stroke-width:.5;stroke-linejoin:miter;stroke-linecap:butt;opacity:1" d="M 365.479940,45.200000 L 365.479940,43.200000"/></g><g id="xtick27"><path style="fill:none;stroke:#000;stroke-width:.5;stroke-linejoin:miter;stroke-linecap:butt;opacity:1" d="M 376.709531,388.800000 L 376.709531,386.800000"/><path style="fill:none;stroke:#000;stroke-width:.5;stroke-linejoin:miter;stroke-linecap:butt;opacity:1" d="M 376.709531,45.200000 L 376.709531,43.200000"/></g><g id="xtick28"><path style="fill:none;stroke:#000;stroke-width:.5;stroke-linejoin:miter;stroke-linecap:butt;opacity:1" d="M 384.677053,388.800000 L 384.677053,386.800000"/><path style="fill:none;stroke:#000;stroke-width:.5;stroke-linejoin:miter;stroke-linecap:butt;opacity:1" d="M 384.677053,45.200000 L 384.677053,43.200000"/></g><g id="xtick29"><path style="fill:none;stroke:#000;stroke-width:.5;stroke-linejoin:miter;stroke-linecap:butt;opacity:1" d="M 410.054256,388.800000 L 410.054256,386.800000"/><path style="fill:none;stroke:#000;stroke-width:.5;stroke-linejoin:miter;stroke-linecap:butt;opacity:1" d="M 410.054256,45.200000 L 410.054256,43.200000"/></g><g id="xtick30"><path style="fill:none;stroke:#000;stroke-width:.5;stroke-linejoin:miter;stroke-linecap:butt;opacity:1" d="M 429.251369,388.800000 L 429.251369,386.800000"/><path style="fill:none;stroke:#000;stroke-width:.5;stroke-linejoin:miter;stroke-linecap:butt;opacity:1" d="M 429.251369,45.200000 L 429.251369,43.200000"/></g><g id="xtick31"><path style="fill:none;stroke:#000;stroke-width:.5;stroke-linejoin:miter;stroke-linecap:butt;opacity:1" d="M 440.480960,388.800000 L 440.480960,386.800000"/><path style="fill:none;stroke:#000;stroke-width:.5;stroke-linejoin:miter;stroke-linecap:butt;opacity:1" d="M 440.480960,45.200000 L 440.480960,43.200000"/></g><g id="xtick32"><path style="fill:none;stroke:#000;stroke-width:.5;stroke-linejoin:miter;stroke-linecap:butt;opacity:1" d="M 448.448481,388.800000 L 448.448481,386.800000"/><path style="fill:none;stroke:#000;stroke-width:.5;stroke-linejoin:miter;stroke-linecap:butt;opacity:1" d="M 448.448481,45.200000 L 448.448481,43.200000"/></g><g id="xtick33"><path style="fill:none;stroke:#000;stroke-width:.5;stroke-linejoin:miter;stroke-linecap:butt;opacity:1" d="M 473.825684,388.800000 L 473.825684,386.800000"/><path style="fill:none;stroke:#000;stroke-width:.5;stroke-linejoin:miter;stroke-linecap:butt;opacity:1" d="M 473.825684,45.200000 L 473.825684,43.200000"/></g><g id="xtick34"><path style="fill:none;stroke:#000;stroke-width:.5;stroke-linejoin:miter;stroke-linecap:butt;opacity:1" d="M 493.022797,388.800000 L 493.022797,386.800000"/><path style="fill:none;stroke:#000;stroke-width:.5;stroke-linejoin:miter;stroke-linecap:butt;opacity:1" d="M 493.022797,45.200000 L 493.022797,43.200000"/></g><g id="xtick35"><path style="fill:none;stroke:#000;stroke-width:.5;stroke-linejoin:miter;stroke-linecap:butt;opacity:1" d="M 504.252388,388.800000 L 504.252388,386.800000"/><path style="fill:none;stroke:#000;stroke-width:.5;stroke-linejoin:miter;stroke-linecap:butt;opacity:1" d="M 504.252388,45.200000 L 504.252388,43.200000"/></g><g id="xtick36"><path style="fill:none;stroke:#000;stroke-width:.5;stroke-linejoin:miter;stroke-linecap:butt;opacity:1" d="M 512.219910,388.800000 L 512.219910,386.800000"/><path style="fill:none;stroke:#000;stroke-width:.5;stroke-linejoin:miter;stroke-linecap:butt;opacity:1" d="M 512.219910,45.200000 L 512.219910,43.200000"/></g><text style="font-size:12;font-family:Bitstream Vera Serif;font-style:normal;fill:#000" x="245.2" y="413.8">Number of rows</text></g><g id="matplotlib.axis2"><g id="ytick1"><path style="fill:none;stroke:#000;stroke-width:.5;stroke-linejoin:miter;stroke-linecap:butt;stroke-dasharray:1 3;stroke-dashoffset:0;opacity:1" d="M 72.000000,325.322449 L 518.400000,325.322449" clip-path="url(#-1250928610)"/><path style="fill:none;stroke:#000;stroke-width:.5;stroke-linejoin:miter;stroke-linecap:butt;opacity:1" d="M 72.000000,325.322449 L 77.000000,325.322449"/><path style="fill:none;stroke:#000;stroke-width:.5;stroke-linejoin:miter;stroke-linecap:butt;opacity:1" d="M 513.400000,325.322449 L 518.400000,325.322449"/><text style="font-size:9.996;font-family:Bitstream Vera Serif;font-style:normal;fill:#000" x="66" y="328.822">1</text></g><g id="ytick2"><path style="fill:none;stroke:#000;stroke-width:.5;stroke-linejoin:miter;stroke-linecap:butt;stroke-dasharray:1 3;stroke-dashoffset:0;opacity:1" d="M 72.000000,254.791837 L 518.400000,254.791837" clip-path="url(#-1250928610)"/><path style="fill:none;stroke:#000;stroke-width:.5;stroke-linejoin:miter;stroke-linecap:butt;opacity:1" d="M 72.000000,254.791837 L 77.000000,254.791837"/><path style="fill:none;stroke:#000;stroke-width:.5;stroke-linejoin:miter;stroke-linecap:butt;opacity:1" d="M 513.400000,254.791837 L 518.400000,254.791837"/><text style="font-size:9.996;font-family:Bitstream Vera Serif;font-style:normal;fill:#000" x="64" y="258.292">2</text></g><g id="ytick3"><path style="fill:none;stroke:#000;stroke-width:.5;stroke-linejoin:miter;stroke-linecap:butt;stroke-dasharray:1 3;stroke-dashoffset:0;opacity:1" d="M 72.000000,184.261224 L 518.400000,184.261224" clip-path="url(#-1250928610)"/><path style="fill:none;stroke:#000;stroke-width:.5;stroke-linejoin:miter;stroke-linecap:butt;opacity:1" d="M 72.000000,184.261224 L 77.000000,184.261224"/><path style="fill:none;stroke:#000;stroke-width:.5;stroke-linejoin:miter;stroke-linecap:butt;opacity:1" d="M 513.400000,184.261224 L 518.400000,184.261224"/><text style="font-size:9.996;font-family:Bitstream Vera Serif;font-style:normal;fill:#000" x="64" y="187.761">3</text></g><g id="ytick4"><path style="fill:none;stroke:#000;stroke-width:.5;stroke-linejoin:miter;stroke-linecap:butt;stroke-dasharray:1 3;stroke-dashoffset:0;opacity:1" d="M 72.000000,113.730612 L 518.400000,113.730612" clip-path="url(#-1250928610)"/><path style="fill:none;stroke:#000;stroke-width:.5;stroke-linejoin:miter;stroke-linecap:butt;opacity:1" d="M 72.000000,113.730612 L 77.000000,113.730612"/><path style="fill:none;stroke:#000;stroke-width:.5;stroke-linejoin:miter;stroke-linecap:butt;opacity:1" d="M 513.400000,113.730612 L 518.400000,113.730612"/><text style="font-size:9.996;font-family:Bitstream Vera Serif;font-style:normal;fill:#000" x="64" y="117.231">4</text></g><g id="ytick5"><text style="font-size:9.996;font-family:Bitstream Vera Serif;font-style:normal;fill:#000" x="64" y="46.7">5</text></g><text style="font-size:12;font-family:Bitstream Vera Serif;font-style:normal;fill:#000" x="59" y="241" transform="translate(59.000000,241.000000) rotate(-90.0) translate(-59.000000,-241.000000)">Time (s)</text><text style="font-size:9.996;font-family:Bitstream Vera Serif;font-style:normal;fill:#000" x="72" y="40.2">x1e-4</text></g><path style="fill:none;stroke:#000;stroke-width:1;stroke-linejoin:miter;stroke-linecap:square;opacity:1" d="M 72.000000,388.800000 L 518.400000,388.800000 L 518.400000,43.200000 L 72.000000,43.200000 L 72.000000,388.800000"/><text style="font-size:14.4;font-family:Bitstream Vera Serif;font-style:normal;fill:#000" x="125.7" y="36.288">Query time for Float64 column (repeated query)</text><g id="legend1"><polygon style="fill:#fff;stroke:#000;stroke-width:.5;stroke-linejoin:miter;stroke-linecap:square;opacity:1" points="80.928 123.665 80.928 50.112 220.906 50.112 220.906 123.665"/><path style="fill:none;stroke:#00f;stroke-width:2;stroke-linejoin:miter;stroke-linecap:square;opacity:1" d="M 94.992800,61.241440 L 102.432800,61.241440 L 109.872800,61.241440 L 117.312800,61.241440"/><rect style="fill:#00f;stroke:#000;stroke-width:.5;stroke-linejoin:miter;stroke-linecap:butt;opacity:1" width="4.8" height="4.8" x="92.593" y="58.841"/><rect style="fill:#00f;stroke:#000;stroke-width:.5;stroke-linejoin:miter;stroke-linecap:butt;opacity:1" width="4.8" height="4.8" x="100.033" y="58.841"/><rect style="fill:#00f;stroke:#000;stroke-width:.5;stroke-linejoin:miter;stroke-linecap:butt;opacity:1" width="4.8" height="4.8" x="107.473" y="58.841"/><rect style="fill:#00f;stroke:#000;stroke-width:.5;stroke-linejoin:miter;stroke-linecap:butt;opacity:1" width="4.8" height="4.8" x="114.913" y="58.841"/><path style="fill:none;stroke:green;stroke-width:2;stroke-linejoin:miter;stroke-linecap:square;opacity:1" d="M 94.992800,74.315040 L 102.432800,74.315040 L 109.872800,74.315040 L 117.312800,74.315040"/><ellipse style="fill:green;stroke:#000;stroke-width:.5;stroke-linejoin:miter;stroke-linecap:butt;opacity:1" cx="94.993" cy="74.315" rx="2.4" ry="2.4" transform="rotate(-0.000000 94.992800 74.315040)"/><ellipse style="fill:green;stroke:#000;stroke-width:.5;stroke-linejoin:miter;stroke-linecap:butt;opacity:1" cx="102.433" cy="74.315" rx="2.4" ry="2.4" transform="rotate(-0.000000 102.432800 74.315040)"/><ellipse style="fill:green;stroke:#000;stroke-width:.5;stroke-linejoin:miter;stroke-linecap:butt;opacity:1" cx="109.873" cy="74.315" rx="2.4" ry="2.4" transform="rotate(-0.000000 109.872800 74.315040)"/><ellipse style="fill:green;stroke:#000;stroke-width:.5;stroke-linejoin:miter;stroke-linecap:butt;opacity:1" cx="117.313" cy="74.315" rx="2.4" ry="2.4" transform="rotate(-0.000000 117.312800 74.315040)"/><path style="fill:none;stroke:red;stroke-width:2;stroke-linejoin:miter;stroke-linecap:square;opacity:1" d="M 94.992800,87.388640 L 102.432800,87.388640 L 109.872800,87.388640 L 117.312800,87.388640"/><polygon style="fill:red;stroke:#000;stroke-width:.5;stroke-linejoin:miter;stroke-linecap:butt;opacity:1" points="92.593 84.989 97.393 84.989 94.993 89.789"/><polygon style="fill:red;stroke:#000;stroke-width:.5;stroke-linejoin:miter;stroke-linecap:butt;opacity:1" points="100.033 84.989 104.833 84.989 102.433 89.789"/><polygon style="fill:red;stroke:#000;stroke-width:.5;stroke-linejoin:miter;stroke-linecap:butt;opacity:1" points="107.473 84.989 112.273 84.989 109.873 89.789"/><polygon style="fill:red;stroke:#000;stroke-width:.5;stroke-linejoin:miter;stroke-linecap:butt;opacity:1" points="114.913 84.989 119.713 84.989 117.313 89.789"/><path style="fill:none;stroke:#00bfbf;stroke-width:2;stroke-linejoin:miter;stroke-linecap:square;opacity:1" d="M 94.992800,100.462240 L 102.432800,100.462240 L 109.872800,100.462240 L 117.312800,100.462240"/><polygon style="fill:#00bfbf;stroke:#000;stroke-width:.5;stroke-linejoin:miter;stroke-linecap:butt;opacity:1" points="94.993 98.062 92.593 102.862 97.393 102.862"/><polygon style="fill:#00bfbf;stroke:#000;stroke-width:.5;stroke-linejoin:miter;stroke-linecap:butt;opacity:1" points="102.433 98.062 100.033 102.862 104.833 102.862"/><polygon style="fill:#00bfbf;stroke:#000;stroke-width:.5;stroke-linejoin:miter;stroke-linecap:butt;opacity:1" points="109.873 98.062 107.473 102.862 112.273 102.862"/><polygon style="fill:#00bfbf;stroke:#000;stroke-width:.5;stroke-linejoin:miter;stroke-linecap:butt;opacity:1" points="117.313 98.062 114.913 102.862 119.713 102.862"/><path style="fill:none;stroke:#bf00bf;stroke-width:2;stroke-linejoin:miter;stroke-linecap:square;opacity:1" d="M 94.992800,113.035840 L 102.432800,113.035840 L 109.872800,113.035840 L 117.312800,113.035840"/><text style="font-size:9.996;font-family:Bitstream Vera Serif;font-style:normal;fill:#000" x="126.241" y="66.241">PyTables Pro O0</text><text style="font-size:9.996;font-family:Bitstream Vera Serif;font-style:normal;fill:#000" x="126.241" y="79.315">PyTables Pro O3</text><text style="font-size:9.996;font-family:Bitstream Vera Serif;font-style:normal;fill:#000" x="126.241" y="92.389">PyTables Pro O6</text><text style="font-size:9.996;font-family:Bitstream Vera Serif;font-style:normal;fill:#000" x="126.241" y="105.462">PyTables Pro O9</text><text style="font-size:9.996;font-family:Bitstream Vera Serif;font-style:normal;fill:#000" x="126.241" y="117.536">Postgres</text></g></g></g></svg>