<svg xmlns="http://www.w3.org/2000/svg" xmlns:svg="http://www.w3.org/2000/svg" id="svg3923" width="987.5" height="720" x="0" y="0" version="1.0" viewBox="0 0 1 1"><title id="title3925">SVG drawing</title><desc id="desc3927">This was produced by version 4.1 of GNU libplot, a free library for exporting 2-D vector graphics.</desc><rect style="fill:#fff;stroke:none" id="rect3929" width="1" height="1" x="0" y="0"/><g style="font-style:normal;font-variant:normal;font-weight:400;font-stretch:normal;letter-spacing:normal;word-spacing:normal;text-anchor:start;fill:none;fill-opacity:1;stroke:#000;stroke-linecap:butt;stroke-linejoin:miter;stroke-miterlimit:10.433;stroke-dasharray:none;stroke-dashoffset:0;stroke-opacity:1" id="g3931" transform="matrix(1.736100e-3,0.000000,0.000000,-1.736100e-3,-0.136391,0.926410)" xml:space="preserve"><line style="stroke-width:1" id="line3933" x1="79.797" x2="86.098" y1="42" y2="42"/><line style="stroke-width:1" id="line3935" x1="696.2" x2="689.9" y1="42" y2="42"/><text style="font-size:14px;fill:#000;stroke:none;font-family:'Helvetica',sans-serif" id="text3937" transform="matrix(1.000000,0.000000,0.000000,-1.000000,59.72300,37.40200)">0</text><line style="stroke-width:1" id="line3939" x1="79.797" x2="86.098" y1="112" y2="112"/><line style="stroke-width:1" id="line3941" x1="696.2" x2="689.9" y1="112" y2="112"/><text style="font-size:14px;fill:#000;stroke:none;font-family:'Helvetica',sans-serif" id="text3943" transform="matrix(1.000000,0.000000,0.000000,-1.000000,44.15200,107.4000)">200</text><line style="stroke-width:1" id="line3945" x1="79.797" x2="86.098" y1="182" y2="182"/><line style="stroke-width:1" id="line3947" x1="696.2" x2="689.9" y1="182" y2="182"/><text style="font-size:14px;fill:#000;stroke:none;font-family:'Helvetica',sans-serif" id="text3949" transform="matrix(1.000000,0.000000,0.000000,-1.000000,44.15200,177.4000)">400</text><line style="stroke-width:1" id="line3951" x1="79.797" x2="86.098" y1="252" y2="252"/><line style="stroke-width:1" id="line3953" x1="696.2" x2="689.9" y1="252" y2="252"/><text style="font-size:14px;fill:#000;stroke:none;font-family:'Helvetica',sans-serif" id="text3955" transform="matrix(1.000000,0.000000,0.000000,-1.000000,44.15200,247.4000)">600</text><line style="stroke-width:1" id="line3957" x1="79.797" x2="86.098" y1="322" y2="322"/><line style="stroke-width:1" id="line3959" x1="696.2" x2="689.9" y1="322" y2="322"/><text style="font-size:14px;fill:#000;stroke:none;font-family:'Helvetica',sans-serif" id="text3961" transform="matrix(1.000000,0.000000,0.000000,-1.000000,44.15200,317.4000)">800</text><line style="stroke-width:1" id="line3963" x1="79.797" x2="86.098" y1="392" y2="392"/><line style="stroke-width:1" id="line3965" x1="696.2" x2="689.9" y1="392" y2="392"/><text style="font-size:14px;fill:#000;stroke:none;font-family:'Helvetica',sans-serif" id="text3967" transform="matrix(1.000000,0.000000,0.000000,-1.000000,36.37100,387.4000)">1000</text><line style="stroke-width:1" id="line3969" x1="79.797" x2="86.098" y1="462" y2="462"/><line style="stroke-width:1" id="line3971" x1="696.2" x2="689.9" y1="462" y2="462"/><text style="font-size:14px;fill:#000;stroke:none;font-family:'Helvetica',sans-serif" id="text3973" transform="matrix(1.000000,0.000000,0.000000,-1.000000,36.37100,457.4000)">1200</text><line style="stroke-width:1" id="line3975" x1="79.797" x2="79.797" y1="42" y2="48.297"/><line style="stroke-width:1" id="line3977" x1="79.797" x2="79.797" y1="462" y2="455.7"/><text style="font-size:14px;fill:#000;stroke:none;font-family:'Helvetica',sans-serif" id="text3979" transform="matrix(1.000000,0.000000,0.000000,-1.000000,62.28500,23.40200)">1000</text><line style="stroke-width:1" id="line3981" x1="126.2" x2="126.2" y1="42" y2="45.098"/><line style="stroke-width:1" id="line3983" x1="126.2" x2="126.2" y1="462" y2="458.9"/><line style="stroke-width:1" id="line3985" x1="187.5" x2="187.5" y1="42" y2="45.098"/><line style="stroke-width:1" id="line3987" x1="187.5" x2="187.5" y1="462" y2="458.9"/><line style="stroke-width:1" id="line3989" x1="219" x2="219" y1="42" y2="45.098"/><line style="stroke-width:1" id="line3991" x1="219" x2="219" y1="462" y2="458.9"/><line style="stroke-width:1" id="line3993" x1="233.9" x2="233.9" y1="42" y2="48.297"/><line style="stroke-width:1" id="line3995" x1="233.9" x2="233.9" y1="462" y2="455.7"/><text style="font-size:14px;fill:#000;stroke:none;font-family:'Helvetica',sans-serif" id="text3997" transform="matrix(1.000000,0.000000,0.000000,-1.000000,212.4900,23.40200)">10000</text><line style="stroke-width:1" id="line3999" x1="280.3" x2="280.3" y1="42" y2="45.098"/><line style="stroke-width:1" id="line4001" x1="280.3" x2="280.3" y1="462" y2="458.9"/><line style="stroke-width:1" id="line4003" x1="341.6" x2="341.6" y1="42" y2="45.098"/><line style="stroke-width:1" id="line4005" x1="341.6" x2="341.6" y1="462" y2="458.9"/><line style="stroke-width:1" id="line4007" x1="373.1" x2="373.1" y1="42" y2="45.098"/><line style="stroke-width:1" id="line4009" x1="373.1" x2="373.1" y1="462" y2="458.9"/><line style="stroke-width:1" id="line4011" x1="388" x2="388" y1="42" y2="48.297"/><line style="stroke-width:1" id="line4013" x1="388" x2="388" y1="462" y2="455.7"/><text style="font-size:14px;fill:#000;stroke:none;font-family:'Helvetica',sans-serif" id="text4015" transform="matrix(1.000000,0.000000,0.000000,-1.000000,362.7000,23.40200)">100000</text><line style="stroke-width:1" id="line4017" x1="434.4" x2="434.4" y1="42" y2="45.098"/><line style="stroke-width:1" id="line4019" x1="434.4" x2="434.4" y1="462" y2="458.9"/><line style="stroke-width:1" id="line4021" x1="495.7" x2="495.7" y1="42" y2="45.098"/><line style="stroke-width:1" id="line4023" x1="495.7" x2="495.7" y1="462" y2="458.9"/><line style="stroke-width:1" id="line4025" x1="527.2" x2="527.2" y1="42" y2="45.098"/><line style="stroke-width:1" id="line4027" x1="527.2" x2="527.2" y1="462" y2="458.9"/><line style="stroke-width:1" id="line4029" x1="542.1" x2="542.1" y1="42" y2="48.297"/><line style="stroke-width:1" id="line4031" x1="542.1" x2="542.1" y1="462" y2="455.7"/><text style="font-size:14px;fill:#000;stroke:none;font-family:'Helvetica',sans-serif" id="text4033" transform="matrix(1.000000,0.000000,0.000000,-1.000000,520.5000,23.40200)">1e+06</text><line style="stroke-width:1" id="line4035" x1="588.5" x2="588.5" y1="42" y2="45.098"/><line style="stroke-width:1" id="line4037" x1="588.5" x2="588.5" y1="462" y2="458.9"/><line style="stroke-width:1" id="line4039" x1="649.8" x2="649.8" y1="42" y2="45.098"/><line style="stroke-width:1" id="line4041" x1="649.8" x2="649.8" y1="462" y2="458.9"/><line style="stroke-width:1" id="line4043" x1="681.3" x2="681.3" y1="42" y2="45.098"/><line style="stroke-width:1" id="line4045" x1="681.3" x2="681.3" y1="462" y2="458.9"/><line style="stroke-width:1" id="line4047" x1="696.2" x2="696.2" y1="42" y2="48.297"/><line style="stroke-width:1" id="line4049" x1="696.2" x2="696.2" y1="462" y2="455.7"/><text style="font-size:14px;fill:#000;stroke:none;font-family:'Helvetica',sans-serif" id="text4051" transform="matrix(1.000000,0.000000,0.000000,-1.000000,674.6000,23.40200)">1e+07</text><polygon style="stroke-width:1" id="polygon4053" points="79.797 42 696.2 42 696.2 462 79.797 462 79.797 42"/><text style="font-size:14px;fill:#000;stroke:none;font-family:'Helvetica',sans-serif" id="text4055" transform="matrix(0.000000,1.000000,1.000000,0.000000,18.59800,203.7700)">Speed (Krow/s)</text><polygon style="stroke-width:1" id="polygon4057" points="79.797 42 696.2 42 696.2 462 79.797 462 79.797 42"/><text style="font-size:14px;fill:#000;stroke:none;font-family:'Helvetica',sans-serif" id="text4059" transform="matrix(1.000000,0.000000,0.000000,-1.000000,338.6000,2.402300)">Number of rows</text><text style="font-size:14px;fill:#000;stroke:none;font-family:'Helvetica',sans-serif" id="text4061" transform="matrix(1.000000,0.000000,0.000000,-1.000000,248.7300,478.4000)">Selecting with medium record size (56 bytes)</text><text style="font-size:14px;fill:#00f;stroke:none;font-family:'Helvetica',sans-serif" id="text4063" transform="matrix(1.000000,0.000000,0.000000,-1.000000,571.1900,444.1000)">No Psyco</text><line style="stroke:#00f;stroke-width:3.5;stroke-dasharray:2 3" id="line4065" x1="639.5" x2="679.4" y1="448.7" y2="448.7"/><polyline style="stroke:#00f;stroke-width:3.5;stroke-dasharray:2 3" id="polyline4067" points="79.797 65.098 126.2 88.598 153.3 103.6 172.6 105.4 187.5 129.5 199.7 112 210 153.3 219 158.6 226.8 168 233.9 176.4 280.3 217 307.4 236.3 326.7 254.1 341.6 258 353.8 272.7 364.1 268.8 373.1 266 380.9 278.6 388 283.2 434.4 292.6 461.5 291.9 480.8 303.1 495.7 298.2 507.9 308.7 518.2 305.9 527.2 304.9 535 297.2 542.1 308.7 588.5 173.3 615.6 181 634.9 150.5 649.8 147.4 662 146 672.3 121.5 681.3 126.7 689.1 122.5"/><line style="stroke:#00f;stroke-width:3.5" id="line4069" x1="79.797" x2="79.797" y1="61.949" y2="68.25"/><line style="stroke:#00f;stroke-width:3.5" id="line4071" x1="76.648" x2="82.949" y1="65.098" y2="65.098"/><line style="stroke:#00f;stroke-width:3.5" id="line4073" x1="76.648" x2="82.949" y1="68.25" y2="61.949"/><line style="stroke:#00f;stroke-width:3.5" id="line4075" x1="76.648" x2="82.949" y1="61.949" y2="68.25"/><line style="stroke:#00f;stroke-width:3.5" id="line4077" x1="126.2" x2="126.2" y1="85.449" y2="91.75"/><line style="stroke:#00f;stroke-width:3.5" id="line4079" x1="123.05" x2="129.35" y1="88.598" y2="88.598"/><line style="stroke:#00f;stroke-width:3.5" id="line4081" x1="123.05" x2="129.35" y1="91.75" y2="85.449"/><line style="stroke:#00f;stroke-width:3.5" id="line4083" x1="123.05" x2="129.35" y1="85.449" y2="91.75"/><line style="stroke:#00f;stroke-width:3.5" id="line4085" x1="153.3" x2="153.3" y1="100.45" y2="106.75"/><line style="stroke:#00f;stroke-width:3.5" id="line4087" x1="150.15" x2="156.45" y1="103.6" y2="103.6"/><line style="stroke:#00f;stroke-width:3.5" id="line4089" x1="150.15" x2="156.45" y1="106.75" y2="100.45"/><line style="stroke:#00f;stroke-width:3.5" id="line4091" x1="150.15" x2="156.45" y1="100.45" y2="106.75"/><line style="stroke:#00f;stroke-width:3.5" id="line4093" x1="172.6" x2="172.6" y1="102.25" y2="108.55"/><line style="stroke:#00f;stroke-width:3.5" id="line4095" x1="169.45" x2="175.75" y1="105.4" y2="105.4"/><line style="stroke:#00f;stroke-width:3.5" id="line4097" x1="169.45" x2="175.75" y1="108.55" y2="102.25"/><line style="stroke:#00f;stroke-width:3.5" id="line4099" x1="169.45" x2="175.75" y1="102.25" y2="108.55"/><line style="stroke:#00f;stroke-width:3.5" id="line4101" x1="187.5" x2="187.5" y1="126.35" y2="132.65"/><line style="stroke:#00f;stroke-width:3.5" id="line4103" x1="184.35" x2="190.65" y1="129.5" y2="129.5"/><line style="stroke:#00f;stroke-width:3.5" id="line4105" x1="184.35" x2="190.65" y1="132.65" y2="126.35"/><line style="stroke:#00f;stroke-width:3.5" id="line4107" x1="184.35" x2="190.65" y1="126.35" y2="132.65"/><line style="stroke:#00f;stroke-width:3.5" id="line4109" x1="199.7" x2="199.7" y1="108.85" y2="115.15"/><line style="stroke:#00f;stroke-width:3.5" id="line4111" x1="196.55" x2="202.85" y1="112" y2="112"/><line style="stroke:#00f;stroke-width:3.5" id="line4113" x1="196.55" x2="202.85" y1="115.15" y2="108.85"/><line style="stroke:#00f;stroke-width:3.5" id="line4115" x1="196.55" x2="202.85" y1="108.85" y2="115.15"/><line style="stroke:#00f;stroke-width:3.5" id="line4117" x1="210" x2="210" y1="150.15" y2="156.45"/><line style="stroke:#00f;stroke-width:3.5" id="line4119" x1="206.85" x2="213.15" y1="153.3" y2="153.3"/><line style="stroke:#00f;stroke-width:3.5" id="line4121" x1="206.85" x2="213.15" y1="156.45" y2="150.15"/><line style="stroke:#00f;stroke-width:3.5" id="line4123" x1="206.85" x2="213.15" y1="150.15" y2="156.45"/><line style="stroke:#00f;stroke-width:3.5" id="line4125" x1="219" x2="219" y1="155.45" y2="161.75"/><line style="stroke:#00f;stroke-width:3.5" id="line4127" x1="215.85" x2="222.15" y1="158.6" y2="158.6"/><line style="stroke:#00f;stroke-width:3.5" id="line4129" x1="215.85" x2="222.15" y1="161.75" y2="155.45"/><line style="stroke:#00f;stroke-width:3.5" id="line4131" x1="215.85" x2="222.15" y1="155.45" y2="161.75"/><line style="stroke:#00f;stroke-width:3.5" id="line4133" x1="226.8" x2="226.8" y1="164.85" y2="171.15"/><line style="stroke:#00f;stroke-width:3.5" id="line4135" x1="223.65" x2="229.95" y1="168" y2="168"/><line style="stroke:#00f;stroke-width:3.5" id="line4137" x1="223.65" x2="229.95" y1="171.15" y2="164.85"/><line style="stroke:#00f;stroke-width:3.5" id="line4139" x1="223.65" x2="229.95" y1="164.85" y2="171.15"/><line style="stroke:#00f;stroke-width:3.5" id="line4141" x1="233.9" x2="233.9" y1="173.25" y2="179.55"/><line style="stroke:#00f;stroke-width:3.5" id="line4143" x1="230.75" x2="237.05" y1="176.4" y2="176.4"/><line style="stroke:#00f;stroke-width:3.5" id="line4145" x1="230.75" x2="237.05" y1="179.55" y2="173.25"/><line style="stroke:#00f;stroke-width:3.5" id="line4147" x1="230.75" x2="237.05" y1="173.25" y2="179.55"/><line style="stroke:#00f;stroke-width:3.5" id="line4149" x1="280.3" x2="280.3" y1="213.85" y2="220.15"/><line style="stroke:#00f;stroke-width:3.5" id="line4151" x1="277.15" x2="283.45" y1="217" y2="217"/><line style="stroke:#00f;stroke-width:3.5" id="line4153" x1="277.15" x2="283.45" y1="220.15" y2="213.85"/><line style="stroke:#00f;stroke-width:3.5" id="line4155" x1="277.15" x2="283.45" y1="213.85" y2="220.15"/><line style="stroke:#00f;stroke-width:3.5" id="line4157" x1="307.4" x2="307.4" y1="233.15" y2="239.45"/><line style="stroke:#00f;stroke-width:3.5" id="line4159" x1="304.25" x2="310.55" y1="236.3" y2="236.3"/><line style="stroke:#00f;stroke-width:3.5" id="line4161" x1="304.25" x2="310.55" y1="239.45" y2="233.15"/><line style="stroke:#00f;stroke-width:3.5" id="line4163" x1="304.25" x2="310.55" y1="233.15" y2="239.45"/><line style="stroke:#00f;stroke-width:3.5" id="line4165" x1="326.7" x2="326.7" y1="250.95" y2="257.25"/><line style="stroke:#00f;stroke-width:3.5" id="line4167" x1="323.55" x2="329.85" y1="254.1" y2="254.1"/><line style="stroke:#00f;stroke-width:3.5" id="line4169" x1="323.55" x2="329.85" y1="257.25" y2="250.95"/><line style="stroke:#00f;stroke-width:3.5" id="line4171" x1="323.55" x2="329.85" y1="250.95" y2="257.25"/><line style="stroke:#00f;stroke-width:3.5" id="line4173" x1="341.6" x2="341.6" y1="254.85" y2="261.15"/><line style="stroke:#00f;stroke-width:3.5" id="line4175" x1="338.45" x2="344.75" y1="258" y2="258"/><line style="stroke:#00f;stroke-width:3.5" id="line4177" x1="338.45" x2="344.75" y1="261.15" y2="254.85"/><line style="stroke:#00f;stroke-width:3.5" id="line4179" x1="338.45" x2="344.75" y1="254.85" y2="261.15"/><line style="stroke:#00f;stroke-width:3.5" id="line4181" x1="353.8" x2="353.8" y1="269.55" y2="275.85"/><line style="stroke:#00f;stroke-width:3.5" id="line4183" x1="350.65" x2="356.95" y1="272.7" y2="272.7"/><line style="stroke:#00f;stroke-width:3.5" id="line4185" x1="350.65" x2="356.95" y1="275.85" y2="269.55"/><line style="stroke:#00f;stroke-width:3.5" id="line4187" x1="350.65" x2="356.95" y1="269.55" y2="275.85"/><line style="stroke:#00f;stroke-width:3.5" id="line4189" x1="364.1" x2="364.1" y1="265.65" y2="271.95"/><line style="stroke:#00f;stroke-width:3.5" id="line4191" x1="360.95" x2="367.25" y1="268.8" y2="268.8"/><line style="stroke:#00f;stroke-width:3.5" id="line4193" x1="360.95" x2="367.25" y1="271.95" y2="265.65"/><line style="stroke:#00f;stroke-width:3.5" id="line4195" x1="360.95" x2="367.25" y1="265.65" y2="271.95"/><line style="stroke:#00f;stroke-width:3.5" id="line4197" x1="373.1" x2="373.1" y1="262.85" y2="269.15"/><line style="stroke:#00f;stroke-width:3.5" id="line4199" x1="369.95" x2="376.25" y1="266" y2="266"/><line style="stroke:#00f;stroke-width:3.5" id="line4201" x1="369.95" x2="376.25" y1="269.15" y2="262.85"/><line style="stroke:#00f;stroke-width:3.5" id="line4203" x1="369.95" x2="376.25" y1="262.85" y2="269.15"/><line style="stroke:#00f;stroke-width:3.5" id="line4205" x1="380.9" x2="380.9" y1="275.45" y2="281.75"/><line style="stroke:#00f;stroke-width:3.5" id="line4207" x1="377.75" x2="384.05" y1="278.6" y2="278.6"/><line style="stroke:#00f;stroke-width:3.5" id="line4209" x1="377.75" x2="384.05" y1="281.75" y2="275.45"/><line style="stroke:#00f;stroke-width:3.5" id="line4211" x1="377.75" x2="384.05" y1="275.45" y2="281.75"/><line style="stroke:#00f;stroke-width:3.5" id="line4213" x1="388" x2="388" y1="280.05" y2="286.35"/><line style="stroke:#00f;stroke-width:3.5" id="line4215" x1="384.85" x2="391.15" y1="283.2" y2="283.2"/><line style="stroke:#00f;stroke-width:3.5" id="line4217" x1="384.85" x2="391.15" y1="286.35" y2="280.05"/><line style="stroke:#00f;stroke-width:3.5" id="line4219" x1="384.85" x2="391.15" y1="280.05" y2="286.35"/><line style="stroke:#00f;stroke-width:3.5" id="line4221" x1="434.4" x2="434.4" y1="289.45" y2="295.75"/><line style="stroke:#00f;stroke-width:3.5" id="line4223" x1="431.25" x2="437.55" y1="292.6" y2="292.6"/><line style="stroke:#00f;stroke-width:3.5" id="line4225" x1="431.25" x2="437.55" y1="295.75" y2="289.45"/><line style="stroke:#00f;stroke-width:3.5" id="line4227" x1="431.25" x2="437.55" y1="289.45" y2="295.75"/><line style="stroke:#00f;stroke-width:3.5" id="line4229" x1="461.5" x2="461.5" y1="288.75" y2="295.05"/><line style="stroke:#00f;stroke-width:3.5" id="line4231" x1="458.35" x2="464.65" y1="291.9" y2="291.9"/><line style="stroke:#00f;stroke-width:3.5" id="line4233" x1="458.35" x2="464.65" y1="295.05" y2="288.75"/><line style="stroke:#00f;stroke-width:3.5" id="line4235" x1="458.35" x2="464.65" y1="288.75" y2="295.05"/><line style="stroke:#00f;stroke-width:3.5" id="line4237" x1="480.8" x2="480.8" y1="299.95" y2="306.25"/><line style="stroke:#00f;stroke-width:3.5" id="line4239" x1="477.65" x2="483.95" y1="303.1" y2="303.1"/><line style="stroke:#00f;stroke-width:3.5" id="line4241" x1="477.65" x2="483.95" y1="306.25" y2="299.95"/><line style="stroke:#00f;stroke-width:3.5" id="line4243" x1="477.65" x2="483.95" y1="299.95" y2="306.25"/><line style="stroke:#00f;stroke-width:3.5" id="line4245" x1="495.7" x2="495.7" y1="295.05" y2="301.35"/><line style="stroke:#00f;stroke-width:3.5" id="line4247" x1="492.55" x2="498.85" y1="298.2" y2="298.2"/><line style="stroke:#00f;stroke-width:3.5" id="line4249" x1="492.55" x2="498.85" y1="301.35" y2="295.05"/><line style="stroke:#00f;stroke-width:3.5" id="line4251" x1="492.55" x2="498.85" y1="295.05" y2="301.35"/><line style="stroke:#00f;stroke-width:3.5" id="line4253" x1="507.9" x2="507.9" y1="305.55" y2="311.85"/><line style="stroke:#00f;stroke-width:3.5" id="line4255" x1="504.75" x2="511.05" y1="308.7" y2="308.7"/><line style="stroke:#00f;stroke-width:3.5" id="line4257" x1="504.75" x2="511.05" y1="311.85" y2="305.55"/><line style="stroke:#00f;stroke-width:3.5" id="line4259" x1="504.75" x2="511.05" y1="305.55" y2="311.85"/><line style="stroke:#00f;stroke-width:3.5" id="line4261" x1="518.2" x2="518.2" y1="302.75" y2="309.05"/><line style="stroke:#00f;stroke-width:3.5" id="line4263" x1="515.05" x2="521.35" y1="305.9" y2="305.9"/><line style="stroke:#00f;stroke-width:3.5" id="line4265" x1="515.05" x2="521.35" y1="309.05" y2="302.75"/><line style="stroke:#00f;stroke-width:3.5" id="line4267" x1="515.05" x2="521.35" y1="302.75" y2="309.05"/><line style="stroke:#00f;stroke-width:3.5" id="line4269" x1="527.2" x2="527.2" y1="301.75" y2="308.05"/><line style="stroke:#00f;stroke-width:3.5" id="line4271" x1="524.05" x2="530.35" y1="304.9" y2="304.9"/><line style="stroke:#00f;stroke-width:3.5" id="line4273" x1="524.05" x2="530.35" y1="308.05" y2="301.75"/><line style="stroke:#00f;stroke-width:3.5" id="line4275" x1="524.05" x2="530.35" y1="301.75" y2="308.05"/><line style="stroke:#00f;stroke-width:3.5" id="line4277" x1="535" x2="535" y1="294.05" y2="300.35"/><line style="stroke:#00f;stroke-width:3.5" id="line4279" x1="531.85" x2="538.15" y1="297.2" y2="297.2"/><line style="stroke:#00f;stroke-width:3.5" id="line4281" x1="531.85" x2="538.15" y1="300.35" y2="294.05"/><line style="stroke:#00f;stroke-width:3.5" id="line4283" x1="531.85" x2="538.15" y1="294.05" y2="300.35"/><line style="stroke:#00f;stroke-width:3.5" id="line4285" x1="542.1" x2="542.1" y1="305.55" y2="311.85"/><line style="stroke:#00f;stroke-width:3.5" id="line4287" x1="538.95" x2="545.25" y1="308.7" y2="308.7"/><line style="stroke:#00f;stroke-width:3.5" id="line4289" x1="538.95" x2="545.25" y1="311.85" y2="305.55"/><line style="stroke:#00f;stroke-width:3.5" id="line4291" x1="538.95" x2="545.25" y1="305.55" y2="311.85"/><line style="stroke:#00f;stroke-width:3.5" id="line4293" x1="588.5" x2="588.5" y1="170.15" y2="176.45"/><line style="stroke:#00f;stroke-width:3.5" id="line4295" x1="585.35" x2="591.65" y1="173.3" y2="173.3"/><line style="stroke:#00f;stroke-width:3.5" id="line4297" x1="585.35" x2="591.65" y1="176.45" y2="170.15"/><line style="stroke:#00f;stroke-width:3.5" id="line4299" x1="585.35" x2="591.65" y1="170.15" y2="176.45"/><line style="stroke:#00f;stroke-width:3.5" id="line4301" x1="615.6" x2="615.6" y1="177.85" y2="184.15"/><line style="stroke:#00f;stroke-width:3.5" id="line4303" x1="612.45" x2="618.75" y1="181" y2="181"/><line style="stroke:#00f;stroke-width:3.5" id="line4305" x1="612.45" x2="618.75" y1="184.15" y2="177.85"/><line style="stroke:#00f;stroke-width:3.5" id="line4307" x1="612.45" x2="618.75" y1="177.85" y2="184.15"/><line style="stroke:#00f;stroke-width:3.5" id="line4309" x1="634.9" x2="634.9" y1="147.35" y2="153.65"/><line style="stroke:#00f;stroke-width:3.5" id="line4311" x1="631.75" x2="638.05" y1="150.5" y2="150.5"/><line style="stroke:#00f;stroke-width:3.5" id="line4313" x1="631.75" x2="638.05" y1="153.65" y2="147.35"/><line style="stroke:#00f;stroke-width:3.5" id="line4315" x1="631.75" x2="638.05" y1="147.35" y2="153.65"/><line style="stroke:#00f;stroke-width:3.5" id="line4317" x1="649.8" x2="649.8" y1="144.25" y2="150.55"/><line style="stroke:#00f;stroke-width:3.5" id="line4319" x1="646.65" x2="652.95" y1="147.4" y2="147.4"/><line style="stroke:#00f;stroke-width:3.5" id="line4321" x1="646.65" x2="652.95" y1="150.55" y2="144.25"/><line style="stroke:#00f;stroke-width:3.5" id="line4323" x1="646.65" x2="652.95" y1="144.25" y2="150.55"/><line style="stroke:#00f;stroke-width:3.5" id="line4325" x1="662" x2="662" y1="142.85" y2="149.15"/><line style="stroke:#00f;stroke-width:3.5" id="line4327" x1="658.85" x2="665.15" y1="146" y2="146"/><line style="stroke:#00f;stroke-width:3.5" id="line4329" x1="658.85" x2="665.15" y1="149.15" y2="142.85"/><line style="stroke:#00f;stroke-width:3.5" id="line4331" x1="658.85" x2="665.15" y1="142.85" y2="149.15"/><line style="stroke:#00f;stroke-width:3.5" id="line4333" x1="672.3" x2="672.3" y1="118.35" y2="124.65"/><line style="stroke:#00f;stroke-width:3.5" id="line4335" x1="669.15" x2="675.45" y1="121.5" y2="121.5"/><line style="stroke:#00f;stroke-width:3.5" id="line4337" x1="669.15" x2="675.45" y1="124.65" y2="118.35"/><line style="stroke:#00f;stroke-width:3.5" id="line4339" x1="669.15" x2="675.45" y1="118.35" y2="124.65"/><line style="stroke:#00f;stroke-width:3.5" id="line4341" x1="681.3" x2="681.3" y1="123.55" y2="129.85"/><line style="stroke:#00f;stroke-width:3.5" id="line4343" x1="678.15" x2="684.45" y1="126.7" y2="126.7"/><line style="stroke:#00f;stroke-width:3.5" id="line4345" x1="678.15" x2="684.45" y1="129.85" y2="123.55"/><line style="stroke:#00f;stroke-width:3.5" id="line4347" x1="678.15" x2="684.45" y1="123.55" y2="129.85"/><line style="stroke:#00f;stroke-width:3.5" id="line4349" x1="689.1" x2="689.1" y1="119.35" y2="125.65"/><line style="stroke:#00f;stroke-width:3.5" id="line4351" x1="685.95" x2="692.25" y1="122.5" y2="122.5"/><line style="stroke:#00f;stroke-width:3.5" id="line4353" x1="685.95" x2="692.25" y1="125.65" y2="119.35"/><line style="stroke:#00f;stroke-width:3.5" id="line4355" x1="685.95" x2="692.25" y1="119.35" y2="125.65"/><line style="stroke:#00f;stroke-width:3.5" id="line4357" x1="659.4" x2="659.4" y1="445.55" y2="451.85"/><line style="stroke:#00f;stroke-width:3.5" id="line4359" x1="656.25" x2="662.55" y1="448.7" y2="448.7"/><line style="stroke:#00f;stroke-width:3.5" id="line4361" x1="656.25" x2="662.55" y1="451.85" y2="445.55"/><line style="stroke:#00f;stroke-width:3.5" id="line4363" x1="656.25" x2="662.55" y1="445.55" y2="451.85"/><text style="font-size:14px;fill:#f0f;stroke:none;font-family:'Helvetica',sans-serif" id="text4365" transform="matrix(1.000000,0.000000,0.000000,-1.000000,592.9800,430.1000)">Psyco</text><line style="stroke:#f0f;stroke-width:3.5;stroke-dasharray:1 1.5" id="line4367" x1="639.5" x2="679.4" y1="434.7" y2="434.7"/><polyline style="stroke:#f0f;stroke-width:3.5;stroke-dasharray:1 1.5" id="polyline4369" points="79.797 68.598 126.2 91.699 153.3 112 172.6 129.5 187.5 144.9 199.7 158.6 210 170.8 219 182 226.8 191.8 233.9 200.9 280.3 275.1 307.4 304.5 326.7 327.6 341.6 338.5 353.8 346.2 364.1 364.4 373.1 360.2 380.9 377 388 368.9 434.4 395.5 461.5 401.5 480.8 421.4 495.7 418.3 507.9 424.9 518.2 419.3 527.2 423.2 535 413.7 542.1 422.8 588.5 200.6 615.6 271.3 634.9 131.3 649.8 136.2 662 149.8 672.3 144.2 681.3 129.5 689.1 128.1"/><polygon style="stroke:#f0f;stroke-width:3.5" id="polygon4371" points="76.648 65.449 82.945 65.449 82.945 71.746 76.648 71.746 76.648 65.449"/><line style="stroke:#f0f;stroke-width:3.5;stroke-linecap:round" id="line4373" x1="79.797" x2="79.797" y1="68.598" y2="68.598"/><polygon style="stroke:#f0f;stroke-width:3.5" id="polygon4375" points="123.05 88.547 129.34 88.547 129.34 94.844 123.05 94.844 123.05 88.547"/><line style="stroke:#f0f;stroke-width:3.5;stroke-linecap:round" id="line4377" x1="126.2" x2="126.2" y1="91.699" y2="91.699"/><polygon style="stroke:#f0f;stroke-width:3.5" id="polygon4379" points="150.15 108.85 156.45 108.85 156.45 115.14 150.15 115.14 150.15 108.85"/><line style="stroke:#f0f;stroke-width:3.5;stroke-linecap:round" id="line4381" x1="153.3" x2="153.3" y1="112" y2="112"/><polygon style="stroke:#f0f;stroke-width:3.5" id="polygon4383" points="169.45 126.35 175.75 126.35 175.75 132.65 169.45 132.65 169.45 126.35"/><line style="stroke:#f0f;stroke-width:3.5;stroke-linecap:round" id="line4385" x1="172.6" x2="172.6" y1="129.5" y2="129.5"/><polygon style="stroke:#f0f;stroke-width:3.5" id="polygon4387" points="184.35 141.75 190.65 141.75 190.65 148.05 184.35 148.05 184.35 141.75"/><line style="stroke:#f0f;stroke-width:3.5;stroke-linecap:round" id="line4389" x1="187.5" x2="187.5" y1="144.9" y2="144.9"/><polygon style="stroke:#f0f;stroke-width:3.5" id="polygon4391" points="196.55 155.45 202.84 155.45 202.84 161.75 196.55 161.75 196.55 155.45"/><line style="stroke:#f0f;stroke-width:3.5;stroke-linecap:round" id="line4393" x1="199.7" x2="199.7" y1="158.6" y2="158.6"/><polygon style="stroke:#f0f;stroke-width:3.5" id="polygon4395" points="206.85 167.65 213.15 167.65 213.15 173.95 206.85 173.95 206.85 167.65"/><line style="stroke:#f0f;stroke-width:3.5;stroke-linecap:round" id="line4397" x1="210" x2="210" y1="170.8" y2="170.8"/><polygon style="stroke:#f0f;stroke-width:3.5" id="polygon4399" points="215.85 178.85 222.15 178.85 222.15 185.15 215.85 185.15 215.85 178.85"/><line style="stroke:#f0f;stroke-width:3.5;stroke-linecap:round" id="line4401" x1="219" x2="219" y1="182" y2="182"/><polygon style="stroke:#f0f;stroke-width:3.5" id="polygon4403" points="223.65 188.65 229.95 188.65 229.95 194.95 223.65 194.95 223.65 188.65"/><line style="stroke:#f0f;stroke-width:3.5;stroke-linecap:round" id="line4405" x1="226.8" x2="226.8" y1="191.8" y2="191.8"/><polygon style="stroke:#f0f;stroke-width:3.5" id="polygon4407" points="230.75 197.75 237.05 197.75 237.05 204.05 230.75 204.05 230.75 197.75"/><line style="stroke:#f0f;stroke-width:3.5;stroke-linecap:round" id="line4409" x1="233.9" x2="233.9" y1="200.9" y2="200.9"/><polygon style="stroke:#f0f;stroke-width:3.5" id="polygon4411" points="277.15 271.95 283.45 271.95 283.45 278.25 277.15 278.25 277.15 271.95"/><line style="stroke:#f0f;stroke-width:3.5;stroke-linecap:round" id="line4413" x1="280.3" x2="280.3" y1="275.1" y2="275.1"/><polygon style="stroke:#f0f;stroke-width:3.5" id="polygon4415" points="304.25 301.35 310.55 301.35 310.55 307.64 304.25 307.64 304.25 301.35"/><line style="stroke:#f0f;stroke-width:3.5;stroke-linecap:round" id="line4417" x1="307.4" x2="307.4" y1="304.5" y2="304.5"/><polygon style="stroke:#f0f;stroke-width:3.5" id="polygon4419" points="323.55 324.45 329.84 324.45 329.84 330.75 323.55 330.75 323.55 324.45"/><line style="stroke:#f0f;stroke-width:3.5;stroke-linecap:round" id="line4421" x1="326.7" x2="326.7" y1="327.6" y2="327.6"/><polygon style="stroke:#f0f;stroke-width:3.5" id="polygon4423" points="338.45 335.35 344.75 335.35 344.75 341.64 338.45 341.64 338.45 335.35"/><line style="stroke:#f0f;stroke-width:3.5;stroke-linecap:round" id="line4425" x1="341.6" x2="341.6" y1="338.5" y2="338.5"/><polygon style="stroke:#f0f;stroke-width:3.5" id="polygon4427" points="350.65 343.05 356.95 343.05 356.95 349.34 350.65 349.34 350.65 343.05"/><line style="stroke:#f0f;stroke-width:3.5;stroke-linecap:round" id="line4429" x1="353.8" x2="353.8" y1="346.2" y2="346.2"/><polygon style="stroke:#f0f;stroke-width:3.5" id="polygon4431" points="360.95 361.25 367.25 361.25 367.25 367.55 360.95 367.55 360.95 361.25"/><line style="stroke:#f0f;stroke-width:3.5;stroke-linecap:round" id="line4433" x1="364.1" x2="364.1" y1="364.4" y2="364.4"/><polygon style="stroke:#f0f;stroke-width:3.5" id="polygon4435" points="369.95 357.05 376.25 357.05 376.25 363.34 369.95 363.34 369.95 357.05"/><line style="stroke:#f0f;stroke-width:3.5;stroke-linecap:round" id="line4437" x1="373.1" x2="373.1" y1="360.2" y2="360.2"/><polygon style="stroke:#f0f;stroke-width:3.5" id="polygon4439" points="377.75 373.85 384.05 373.85 384.05 380.14 377.75 380.14 377.75 373.85"/><line style="stroke:#f0f;stroke-width:3.5;stroke-linecap:round" id="line4441" x1="380.9" x2="380.9" y1="377" y2="377"/><polygon style="stroke:#f0f;stroke-width:3.5" id="polygon4443" points="384.85 365.75 391.14 365.75 391.14 372.05 384.85 372.05 384.85 365.75"/><line style="stroke:#f0f;stroke-width:3.5;stroke-linecap:round" id="line4445" x1="388" x2="388" y1="368.9" y2="368.9"/><polygon style="stroke:#f0f;stroke-width:3.5" id="polygon4447" points="431.25 392.35 437.55 392.35 437.55 398.64 431.25 398.64 431.25 392.35"/><line style="stroke:#f0f;stroke-width:3.5;stroke-linecap:round" id="line4449" x1="434.4" x2="434.4" y1="395.5" y2="395.5"/><polygon style="stroke:#f0f;stroke-width:3.5" id="polygon4451" points="458.35 398.35 464.64 398.35 464.64 404.64 458.35 404.64 458.35 398.35"/><line style="stroke:#f0f;stroke-width:3.5;stroke-linecap:round" id="line4453" x1="461.5" x2="461.5" y1="401.5" y2="401.5"/><polygon style="stroke:#f0f;stroke-width:3.5" id="polygon4455" points="477.65 418.25 483.95 418.25 483.95 424.55 477.65 424.55 477.65 418.25"/><line style="stroke:#f0f;stroke-width:3.5;stroke-linecap:round" id="line4457" x1="480.8" x2="480.8" y1="421.4" y2="421.4"/><polygon style="stroke:#f0f;stroke-width:3.5" id="polygon4459" points="492.55 415.15 498.84 415.15 498.84 421.45 492.55 421.45 492.55 415.15"/><line style="stroke:#f0f;stroke-width:3.5;stroke-linecap:round" id="line4461" x1="495.7" x2="495.7" y1="418.3" y2="418.3"/><polygon style="stroke:#f0f;stroke-width:3.5" id="polygon4463" points="504.75 421.75 511.05 421.75 511.05 428.05 504.75 428.05 504.75 421.75"/><line style="stroke:#f0f;stroke-width:3.5;stroke-linecap:round" id="line4465" x1="507.9" x2="507.9" y1="424.9" y2="424.9"/><polygon style="stroke:#f0f;stroke-width:3.5" id="polygon4467" points="515.05 416.15 521.34 416.15 521.34 422.45 515.05 422.45 515.05 416.15"/><line style="stroke:#f0f;stroke-width:3.5;stroke-linecap:round" id="line4469" x1="518.2" x2="518.2" y1="419.3" y2="419.3"/><polygon style="stroke:#f0f;stroke-width:3.5" id="polygon4471" points="524.05 420.05 530.34 420.05 530.34 426.34 524.05 426.34 524.05 420.05"/><line style="stroke:#f0f;stroke-width:3.5;stroke-linecap:round" id="line4473" x1="527.2" x2="527.2" y1="423.2" y2="423.2"/><polygon style="stroke:#f0f;stroke-width:3.5" id="polygon4475" points="531.85 410.55 538.15 410.55 538.15 416.84 531.85 416.84 531.85 410.55"/><line style="stroke:#f0f;stroke-width:3.5;stroke-linecap:round" id="line4477" x1="535" x2="535" y1="413.7" y2="413.7"/><polygon style="stroke:#f0f;stroke-width:3.5" id="polygon4479" points="538.95 419.65 545.25 419.65 545.25 425.95 538.95 425.95 538.95 419.65"/><line style="stroke:#f0f;stroke-width:3.5;stroke-linecap:round" id="line4481" x1="542.1" x2="542.1" y1="422.8" y2="422.8"/><polygon style="stroke:#f0f;stroke-width:3.5" id="polygon4483" points="585.35 197.45 591.65 197.45 591.65 203.75 585.35 203.75 585.35 197.45"/><line style="stroke:#f0f;stroke-width:3.5;stroke-linecap:round" id="line4485" x1="588.5" x2="588.5" y1="200.6" y2="200.6"/><polygon style="stroke:#f0f;stroke-width:3.5" id="polygon4487" points="612.45 268.15 618.75 268.15 618.75 274.45 612.45 274.45 612.45 268.15"/><line style="stroke:#f0f;stroke-width:3.5;stroke-linecap:round" id="line4489" x1="615.6" x2="615.6" y1="271.3" y2="271.3"/><polygon style="stroke:#f0f;stroke-width:3.5" id="polygon4491" points="631.75 128.15 638.05 128.15 638.05 134.45 631.75 134.45 631.75 128.15"/><line style="stroke:#f0f;stroke-width:3.5;stroke-linecap:round" id="line4493" x1="634.9" x2="634.9" y1="131.3" y2="131.3"/><polygon style="stroke:#f0f;stroke-width:3.5" id="polygon4495" points="646.65 133.05 652.95 133.05 652.95 139.34 646.65 139.34 646.65 133.05"/><line style="stroke:#f0f;stroke-width:3.5;stroke-linecap:round" id="line4497" x1="649.8" x2="649.8" y1="136.2" y2="136.2"/><polygon style="stroke:#f0f;stroke-width:3.5" id="polygon4499" points="658.85 146.65 665.15 146.65 665.15 152.95 658.85 152.95 658.85 146.65"/><line style="stroke:#f0f;stroke-width:3.5;stroke-linecap:round" id="line4501" x1="662" x2="662" y1="149.8" y2="149.8"/><polygon style="stroke:#f0f;stroke-width:3.5" id="polygon4503" points="669.15 141.05 675.45 141.05 675.45 147.34 669.15 147.34 669.15 141.05"/><line style="stroke:#f0f;stroke-width:3.5;stroke-linecap:round" id="line4505" x1="672.3" x2="672.3" y1="144.2" y2="144.2"/><polygon style="stroke:#f0f;stroke-width:3.5" id="polygon4507" points="678.15 126.35 684.45 126.35 684.45 132.65 678.15 132.65 678.15 126.35"/><line style="stroke:#f0f;stroke-width:3.5;stroke-linecap:round" id="line4509" x1="681.3" x2="681.3" y1="129.5" y2="129.5"/><polygon style="stroke:#f0f;stroke-width:3.5" id="polygon4511" points="685.95 124.95 692.25 124.95 692.25 131.25 685.95 131.25 685.95 124.95"/><line style="stroke:#f0f;stroke-width:3.5;stroke-linecap:round" id="line4513" x1="689.1" x2="689.1" y1="128.1" y2="128.1"/><polygon style="stroke:#f0f;stroke-width:3.5" id="polygon4515" points="656.25 431.55 662.55 431.55 662.55 437.84 656.25 437.84 656.25 431.55"/><line style="stroke:#f0f;stroke-width:3.5;stroke-linecap:round" id="line4517" x1="659.4" x2="659.4" y1="434.7" y2="434.7"/></g></svg>