<svg xmlns="http://www.w3.org/2000/svg" xmlns:svg="http://www.w3.org/2000/svg" id="svg13594" width="1072.5" height="720" x="0" y="0" version="1.0" viewBox="0 0 1 1"><title id="title13596">SVG drawing</title><desc id="desc13598">This was produced by version 4.1 of GNU libplot, a free library for exporting 2-D vector graphics.</desc><rect style="fill:#fff;stroke:none" id="rect13600" width="1" height="1" x="-.032" y="-.054"/><g style="font-style:normal;font-variant:normal;font-weight:400;font-stretch:normal;letter-spacing:normal;word-spacing:normal;text-anchor:start;fill:none;fill-opacity:1;stroke:#000;stroke-linecap:butt;stroke-linejoin:miter;stroke-miterlimit:10.433;stroke-dasharray:none;stroke-dashoffset:0;stroke-opacity:1" id="g13602" transform="matrix(1.736100e-3,0.000000,0.000000,-1.736100e-3,-0.136391,0.926410)" xml:space="preserve"><line style="stroke-width:1" id="line13604" x1="71.398" x2="77.699" y1="42" y2="42"/><line style="stroke-width:1" id="line13606" x1="696.2" x2="689.9" y1="42" y2="42"/><text style="font-size:14px;fill:#000;stroke:none;font-family:'Helvetica',sans-serif" id="text13608" transform="matrix(1.000000,0.000000,0.000000,-1.000000,51.32000,37.40200)">0</text><line style="stroke-width:1" id="line13610" x1="71.398" x2="77.699" y1="126" y2="126"/><line style="stroke-width:1" id="line13612" x1="696.2" x2="689.9" y1="126" y2="126"/><text style="font-size:14px;fill:#000;stroke:none;font-family:'Helvetica',sans-serif" id="text13614" transform="matrix(1.000000,0.000000,0.000000,-1.000000,43.53900,121.4000)">50</text><line style="stroke-width:1" id="line13616" x1="71.398" x2="77.699" y1="210" y2="210"/><line style="stroke-width:1" id="line13618" x1="696.2" x2="689.9" y1="210" y2="210"/><text style="font-size:14px;fill:#000;stroke:none;font-family:'Helvetica',sans-serif" id="text13620" transform="matrix(1.000000,0.000000,0.000000,-1.000000,35.75400,205.4000)">100</text><line style="stroke-width:1" id="line13622" x1="71.398" x2="77.699" y1="294" y2="294"/><line style="stroke-width:1" id="line13624" x1="696.2" x2="689.9" y1="294" y2="294"/><text style="font-size:14px;fill:#000;stroke:none;font-family:'Helvetica',sans-serif" id="text13626" transform="matrix(1.000000,0.000000,0.000000,-1.000000,35.75400,289.4000)">150</text><line style="stroke-width:1" id="line13628" x1="71.398" x2="77.699" y1="378" y2="378"/><line style="stroke-width:1" id="line13630" x1="696.2" x2="689.9" y1="378" y2="378"/><text style="font-size:14px;fill:#000;stroke:none;font-family:'Helvetica',sans-serif" id="text13632" transform="matrix(1.000000,0.000000,0.000000,-1.000000,35.75400,373.4000)">200</text><line style="stroke-width:1" id="line13634" x1="71.398" x2="77.699" y1="462" y2="462"/><line style="stroke-width:1" id="line13636" x1="696.2" x2="689.9" y1="462" y2="462"/><text style="font-size:14px;fill:#000;stroke:none;font-family:'Helvetica',sans-serif" id="text13638" transform="matrix(1.000000,0.000000,0.000000,-1.000000,35.75400,457.4000)">250</text><line style="stroke-width:1" id="line13640" x1="71.398" x2="71.398" y1="42" y2="48.297"/><line style="stroke-width:1" id="line13642" x1="71.398" x2="71.398" y1="462" y2="455.7"/><text style="font-size:14px;fill:#000;stroke:none;font-family:'Helvetica',sans-serif" id="text13644" transform="matrix(1.000000,0.000000,0.000000,-1.000000,53.88300,23.40200)">1000</text><line style="stroke-width:1" id="line13646" x1="118.4" x2="118.4" y1="42" y2="45.098"/><line style="stroke-width:1" id="line13648" x1="118.4" x2="118.4" y1="462" y2="458.9"/><line style="stroke-width:1" id="line13650" x1="180.6" x2="180.6" y1="42" y2="45.098"/><line style="stroke-width:1" id="line13652" x1="180.6" x2="180.6" y1="462" y2="458.9"/><line style="stroke-width:1" id="line13654" x1="212.5" x2="212.5" y1="42" y2="45.098"/><line style="stroke-width:1" id="line13656" x1="212.5" x2="212.5" y1="462" y2="458.9"/><line style="stroke-width:1" id="line13658" x1="227.6" x2="227.6" y1="42" y2="48.297"/><line style="stroke-width:1" id="line13660" x1="227.6" x2="227.6" y1="462" y2="455.7"/><text style="font-size:14px;fill:#000;stroke:none;font-family:'Helvetica',sans-serif" id="text13662" transform="matrix(1.000000,0.000000,0.000000,-1.000000,206.1900,23.40200)">10000</text><line style="stroke-width:1" id="line13664" x1="274.6" x2="274.6" y1="42" y2="45.098"/><line style="stroke-width:1" id="line13666" x1="274.6" x2="274.6" y1="462" y2="458.9"/><line style="stroke-width:1" id="line13668" x1="336.8" x2="336.8" y1="42" y2="45.098"/><line style="stroke-width:1" id="line13670" x1="336.8" x2="336.8" y1="462" y2="458.9"/><line style="stroke-width:1" id="line13672" x1="368.7" x2="368.7" y1="42" y2="45.098"/><line style="stroke-width:1" id="line13674" x1="368.7" x2="368.7" y1="462" y2="458.9"/><line style="stroke-width:1" id="line13676" x1="383.8" x2="383.8" y1="42" y2="48.297"/><line style="stroke-width:1" id="line13678" x1="383.8" x2="383.8" y1="462" y2="455.7"/><text style="font-size:14px;fill:#000;stroke:none;font-family:'Helvetica',sans-serif" id="text13680" transform="matrix(1.000000,0.000000,0.000000,-1.000000,358.5000,23.40200)">100000</text><line style="stroke-width:1" id="line13682" x1="430.8" x2="430.8" y1="42" y2="45.098"/><line style="stroke-width:1" id="line13684" x1="430.8" x2="430.8" y1="462" y2="458.9"/><line style="stroke-width:1" id="line13686" x1="493" x2="493" y1="42" y2="45.098"/><line style="stroke-width:1" id="line13688" x1="493" x2="493" y1="462" y2="458.9"/><line style="stroke-width:1" id="line13690" x1="524.9" x2="524.9" y1="42" y2="45.098"/><line style="stroke-width:1" id="line13692" x1="524.9" x2="524.9" y1="462" y2="458.9"/><line style="stroke-width:1" id="line13694" x1="540" x2="540" y1="42" y2="48.297"/><line style="stroke-width:1" id="line13696" x1="540" x2="540" y1="462" y2="455.7"/><text style="font-size:14px;fill:#000;stroke:none;font-family:'Helvetica',sans-serif" id="text13698" transform="matrix(1.000000,0.000000,0.000000,-1.000000,518.4000,23.40200)">1e+06</text><line style="stroke-width:1" id="line13700" x1="587" x2="587" y1="42" y2="45.098"/><line style="stroke-width:1" id="line13702" x1="587" x2="587" y1="462" y2="458.9"/><line style="stroke-width:1" id="line13704" x1="649.2" x2="649.2" y1="42" y2="45.098"/><line style="stroke-width:1" id="line13706" x1="649.2" x2="649.2" y1="462" y2="458.9"/><line style="stroke-width:1" id="line13708" x1="681.1" x2="681.1" y1="42" y2="45.098"/><line style="stroke-width:1" id="line13710" x1="681.1" x2="681.1" y1="462" y2="458.9"/><line style="stroke-width:1" id="line13712" x1="696.2" x2="696.2" y1="42" y2="48.297"/><line style="stroke-width:1" id="line13714" x1="696.2" x2="696.2" y1="462" y2="455.7"/><text style="font-size:14px;fill:#000;stroke:none;font-family:'Helvetica',sans-serif" id="text13716" transform="matrix(1.000000,0.000000,0.000000,-1.000000,674.6000,23.40200)">1e+07</text><polygon style="stroke-width:1" id="polygon13718" points="71.398 42 696.2 42 696.2 462 71.398 462 71.398 42"/><text style="font-size:14px;fill:#000;stroke:none;font-family:'Helvetica',sans-serif" id="text13720" transform="matrix(0.000000,1.000000,1.000000,0.000000,18.59800,203.7700)">Speed (Krow/s)</text><polygon style="stroke-width:1" id="polygon13722" points="71.398 42 696.2 42 696.2 462 71.398 462 71.398 42"/><text style="font-size:14px;fill:#000;stroke:none;font-family:'Helvetica',sans-serif" id="text13724" transform="matrix(1.000000,0.000000,0.000000,-1.000000,334.4000,2.402300)">Number of rows</text><text style="font-size:14px;fill:#000;stroke:none;font-family:'Helvetica',sans-serif" id="text13726" transform="matrix(1.000000,0.000000,0.000000,-1.000000,251.5500,478.4000)">Writing with medium record size (56 bytes)</text><text style="font-size:14px;fill:#00f;stroke:none;font-family:'Helvetica',sans-serif" id="text13728" transform="matrix(1.000000,0.000000,0.000000,-1.000000,571.1900,444.1000)">No Psyco</text><line style="stroke:#00f;stroke-width:3.5;stroke-dasharray:2 3" id="line13730" x1="639.5" x2="679.4" y1="448.7" y2="448.7"/><polyline style="stroke:#00f;stroke-width:3.5;stroke-dasharray:2 3" id="polyline13732" points="71.398 94.098 118.4 142.8 145.9 152.9 165.4 176.4 180.6 188.2 192.9 193.2 203.4 201.6 212.5 211.7 220.5 201.6 227.6 220.1 274.6 247 302.1 277.2 321.6 278.9 336.8 283.9 349.1 250.3 359.6 287.3 368.7 282.2 376.7 287.3 383.8 267.1 430.8 294 458.3 283.9 477.8 295.7 493 287.3 505.3 300.7 515.8 305.8 524.9 304.1 532.9 302.4 540 297.4 587 257 614.5 257 634 238.6 649.2 228.5 661.5 245.3 672 226.8 681.1 240.2 689.1 238.6"/><line style="stroke:#00f;stroke-width:3.5" id="line13734" x1="71.398" x2="71.398" y1="90.949" y2="97.25"/><line style="stroke:#00f;stroke-width:3.5" id="line13736" x1="68.25" x2="74.547" y1="94.098" y2="94.098"/><line style="stroke:#00f;stroke-width:3.5" id="line13738" x1="68.25" x2="74.547" y1="97.25" y2="90.949"/><line style="stroke:#00f;stroke-width:3.5" id="line13740" x1="68.25" x2="74.547" y1="90.949" y2="97.25"/><line style="stroke:#00f;stroke-width:3.5" id="line13742" x1="118.4" x2="118.4" y1="139.65" y2="145.95"/><line style="stroke:#00f;stroke-width:3.5" id="line13744" x1="115.25" x2="121.55" y1="142.8" y2="142.8"/><line style="stroke:#00f;stroke-width:3.5" id="line13746" x1="115.25" x2="121.55" y1="145.95" y2="139.65"/><line style="stroke:#00f;stroke-width:3.5" id="line13748" x1="115.25" x2="121.55" y1="139.65" y2="145.95"/><line style="stroke:#00f;stroke-width:3.5" id="line13750" x1="145.9" x2="145.9" y1="149.75" y2="156.05"/><line style="stroke:#00f;stroke-width:3.5" id="line13752" x1="142.75" x2="149.05" y1="152.9" y2="152.9"/><line style="stroke:#00f;stroke-width:3.5" id="line13754" x1="142.75" x2="149.05" y1="156.05" y2="149.75"/><line style="stroke:#00f;stroke-width:3.5" id="line13756" x1="142.75" x2="149.05" y1="149.75" y2="156.05"/><line style="stroke:#00f;stroke-width:3.5" id="line13758" x1="165.4" x2="165.4" y1="173.25" y2="179.55"/><line style="stroke:#00f;stroke-width:3.5" id="line13760" x1="162.25" x2="168.55" y1="176.4" y2="176.4"/><line style="stroke:#00f;stroke-width:3.5" id="line13762" x1="162.25" x2="168.55" y1="179.55" y2="173.25"/><line style="stroke:#00f;stroke-width:3.5" id="line13764" x1="162.25" x2="168.55" y1="173.25" y2="179.55"/><line style="stroke:#00f;stroke-width:3.5" id="line13766" x1="180.6" x2="180.6" y1="185.05" y2="191.35"/><line style="stroke:#00f;stroke-width:3.5" id="line13768" x1="177.45" x2="183.75" y1="188.2" y2="188.2"/><line style="stroke:#00f;stroke-width:3.5" id="line13770" x1="177.45" x2="183.75" y1="191.35" y2="185.05"/><line style="stroke:#00f;stroke-width:3.5" id="line13772" x1="177.45" x2="183.75" y1="185.05" y2="191.35"/><line style="stroke:#00f;stroke-width:3.5" id="line13774" x1="192.9" x2="192.9" y1="190.05" y2="196.35"/><line style="stroke:#00f;stroke-width:3.5" id="line13776" x1="189.75" x2="196.05" y1="193.2" y2="193.2"/><line style="stroke:#00f;stroke-width:3.5" id="line13778" x1="189.75" x2="196.05" y1="196.35" y2="190.05"/><line style="stroke:#00f;stroke-width:3.5" id="line13780" x1="189.75" x2="196.05" y1="190.05" y2="196.35"/><line style="stroke:#00f;stroke-width:3.5" id="line13782" x1="203.4" x2="203.4" y1="198.45" y2="204.75"/><line style="stroke:#00f;stroke-width:3.5" id="line13784" x1="200.25" x2="206.55" y1="201.6" y2="201.6"/><line style="stroke:#00f;stroke-width:3.5" id="line13786" x1="200.25" x2="206.55" y1="204.75" y2="198.45"/><line style="stroke:#00f;stroke-width:3.5" id="line13788" x1="200.25" x2="206.55" y1="198.45" y2="204.75"/><line style="stroke:#00f;stroke-width:3.5" id="line13790" x1="212.5" x2="212.5" y1="208.55" y2="214.85"/><line style="stroke:#00f;stroke-width:3.5" id="line13792" x1="209.35" x2="215.65" y1="211.7" y2="211.7"/><line style="stroke:#00f;stroke-width:3.5" id="line13794" x1="209.35" x2="215.65" y1="214.85" y2="208.55"/><line style="stroke:#00f;stroke-width:3.5" id="line13796" x1="209.35" x2="215.65" y1="208.55" y2="214.85"/><line style="stroke:#00f;stroke-width:3.5" id="line13798" x1="220.5" x2="220.5" y1="198.45" y2="204.75"/><line style="stroke:#00f;stroke-width:3.5" id="line13800" x1="217.35" x2="223.65" y1="201.6" y2="201.6"/><line style="stroke:#00f;stroke-width:3.5" id="line13802" x1="217.35" x2="223.65" y1="204.75" y2="198.45"/><line style="stroke:#00f;stroke-width:3.5" id="line13804" x1="217.35" x2="223.65" y1="198.45" y2="204.75"/><line style="stroke:#00f;stroke-width:3.5" id="line13806" x1="227.6" x2="227.6" y1="216.95" y2="223.25"/><line style="stroke:#00f;stroke-width:3.5" id="line13808" x1="224.45" x2="230.75" y1="220.1" y2="220.1"/><line style="stroke:#00f;stroke-width:3.5" id="line13810" x1="224.45" x2="230.75" y1="223.25" y2="216.95"/><line style="stroke:#00f;stroke-width:3.5" id="line13812" x1="224.45" x2="230.75" y1="216.95" y2="223.25"/><line style="stroke:#00f;stroke-width:3.5" id="line13814" x1="274.6" x2="274.6" y1="243.85" y2="250.15"/><line style="stroke:#00f;stroke-width:3.5" id="line13816" x1="271.45" x2="277.75" y1="247" y2="247"/><line style="stroke:#00f;stroke-width:3.5" id="line13818" x1="271.45" x2="277.75" y1="250.15" y2="243.85"/><line style="stroke:#00f;stroke-width:3.5" id="line13820" x1="271.45" x2="277.75" y1="243.85" y2="250.15"/><line style="stroke:#00f;stroke-width:3.5" id="line13822" x1="302.1" x2="302.1" y1="274.05" y2="280.35"/><line style="stroke:#00f;stroke-width:3.5" id="line13824" x1="298.95" x2="305.25" y1="277.2" y2="277.2"/><line style="stroke:#00f;stroke-width:3.5" id="line13826" x1="298.95" x2="305.25" y1="280.35" y2="274.05"/><line style="stroke:#00f;stroke-width:3.5" id="line13828" x1="298.95" x2="305.25" y1="274.05" y2="280.35"/><line style="stroke:#00f;stroke-width:3.5" id="line13830" x1="321.6" x2="321.6" y1="275.75" y2="282.05"/><line style="stroke:#00f;stroke-width:3.5" id="line13832" x1="318.45" x2="324.75" y1="278.9" y2="278.9"/><line style="stroke:#00f;stroke-width:3.5" id="line13834" x1="318.45" x2="324.75" y1="282.05" y2="275.75"/><line style="stroke:#00f;stroke-width:3.5" id="line13836" x1="318.45" x2="324.75" y1="275.75" y2="282.05"/><line style="stroke:#00f;stroke-width:3.5" id="line13838" x1="336.8" x2="336.8" y1="280.75" y2="287.05"/><line style="stroke:#00f;stroke-width:3.5" id="line13840" x1="333.65" x2="339.95" y1="283.9" y2="283.9"/><line style="stroke:#00f;stroke-width:3.5" id="line13842" x1="333.65" x2="339.95" y1="287.05" y2="280.75"/><line style="stroke:#00f;stroke-width:3.5" id="line13844" x1="333.65" x2="339.95" y1="280.75" y2="287.05"/><line style="stroke:#00f;stroke-width:3.5" id="line13846" x1="349.1" x2="349.1" y1="247.15" y2="253.45"/><line style="stroke:#00f;stroke-width:3.5" id="line13848" x1="345.95" x2="352.25" y1="250.3" y2="250.3"/><line style="stroke:#00f;stroke-width:3.5" id="line13850" x1="345.95" x2="352.25" y1="253.45" y2="247.15"/><line style="stroke:#00f;stroke-width:3.5" id="line13852" x1="345.95" x2="352.25" y1="247.15" y2="253.45"/><line style="stroke:#00f;stroke-width:3.5" id="line13854" x1="359.6" x2="359.6" y1="284.15" y2="290.45"/><line style="stroke:#00f;stroke-width:3.5" id="line13856" x1="356.45" x2="362.75" y1="287.3" y2="287.3"/><line style="stroke:#00f;stroke-width:3.5" id="line13858" x1="356.45" x2="362.75" y1="290.45" y2="284.15"/><line style="stroke:#00f;stroke-width:3.5" id="line13860" x1="356.45" x2="362.75" y1="284.15" y2="290.45"/><line style="stroke:#00f;stroke-width:3.5" id="line13862" x1="368.7" x2="368.7" y1="279.05" y2="285.35"/><line style="stroke:#00f;stroke-width:3.5" id="line13864" x1="365.55" x2="371.85" y1="282.2" y2="282.2"/><line style="stroke:#00f;stroke-width:3.5" id="line13866" x1="365.55" x2="371.85" y1="285.35" y2="279.05"/><line style="stroke:#00f;stroke-width:3.5" id="line13868" x1="365.55" x2="371.85" y1="279.05" y2="285.35"/><line style="stroke:#00f;stroke-width:3.5" id="line13870" x1="376.7" x2="376.7" y1="284.15" y2="290.45"/><line style="stroke:#00f;stroke-width:3.5" id="line13872" x1="373.55" x2="379.85" y1="287.3" y2="287.3"/><line style="stroke:#00f;stroke-width:3.5" id="line13874" x1="373.55" x2="379.85" y1="290.45" y2="284.15"/><line style="stroke:#00f;stroke-width:3.5" id="line13876" x1="373.55" x2="379.85" y1="284.15" y2="290.45"/><line style="stroke:#00f;stroke-width:3.5" id="line13878" x1="383.8" x2="383.8" y1="263.95" y2="270.25"/><line style="stroke:#00f;stroke-width:3.5" id="line13880" x1="380.65" x2="386.95" y1="267.1" y2="267.1"/><line style="stroke:#00f;stroke-width:3.5" id="line13882" x1="380.65" x2="386.95" y1="270.25" y2="263.95"/><line style="stroke:#00f;stroke-width:3.5" id="line13884" x1="380.65" x2="386.95" y1="263.95" y2="270.25"/><line style="stroke:#00f;stroke-width:3.5" id="line13886" x1="430.8" x2="430.8" y1="290.85" y2="297.15"/><line style="stroke:#00f;stroke-width:3.5" id="line13888" x1="427.65" x2="433.95" y1="294" y2="294"/><line style="stroke:#00f;stroke-width:3.5" id="line13890" x1="427.65" x2="433.95" y1="297.15" y2="290.85"/><line style="stroke:#00f;stroke-width:3.5" id="line13892" x1="427.65" x2="433.95" y1="290.85" y2="297.15"/><line style="stroke:#00f;stroke-width:3.5" id="line13894" x1="458.3" x2="458.3" y1="280.75" y2="287.05"/><line style="stroke:#00f;stroke-width:3.5" id="line13896" x1="455.15" x2="461.45" y1="283.9" y2="283.9"/><line style="stroke:#00f;stroke-width:3.5" id="line13898" x1="455.15" x2="461.45" y1="287.05" y2="280.75"/><line style="stroke:#00f;stroke-width:3.5" id="line13900" x1="455.15" x2="461.45" y1="280.75" y2="287.05"/><line style="stroke:#00f;stroke-width:3.5" id="line13902" x1="477.8" x2="477.8" y1="292.55" y2="298.85"/><line style="stroke:#00f;stroke-width:3.5" id="line13904" x1="474.65" x2="480.95" y1="295.7" y2="295.7"/><line style="stroke:#00f;stroke-width:3.5" id="line13906" x1="474.65" x2="480.95" y1="298.85" y2="292.55"/><line style="stroke:#00f;stroke-width:3.5" id="line13908" x1="474.65" x2="480.95" y1="292.55" y2="298.85"/><line style="stroke:#00f;stroke-width:3.5" id="line13910" x1="493" x2="493" y1="284.15" y2="290.45"/><line style="stroke:#00f;stroke-width:3.5" id="line13912" x1="489.85" x2="496.15" y1="287.3" y2="287.3"/><line style="stroke:#00f;stroke-width:3.5" id="line13914" x1="489.85" x2="496.15" y1="290.45" y2="284.15"/><line style="stroke:#00f;stroke-width:3.5" id="line13916" x1="489.85" x2="496.15" y1="284.15" y2="290.45"/><line style="stroke:#00f;stroke-width:3.5" id="line13918" x1="505.3" x2="505.3" y1="297.55" y2="303.85"/><line style="stroke:#00f;stroke-width:3.5" id="line13920" x1="502.15" x2="508.45" y1="300.7" y2="300.7"/><line style="stroke:#00f;stroke-width:3.5" id="line13922" x1="502.15" x2="508.45" y1="303.85" y2="297.55"/><line style="stroke:#00f;stroke-width:3.5" id="line13924" x1="502.15" x2="508.45" y1="297.55" y2="303.85"/><line style="stroke:#00f;stroke-width:3.5" id="line13926" x1="515.8" x2="515.8" y1="302.65" y2="308.95"/><line style="stroke:#00f;stroke-width:3.5" id="line13928" x1="512.65" x2="518.95" y1="305.8" y2="305.8"/><line style="stroke:#00f;stroke-width:3.5" id="line13930" x1="512.65" x2="518.95" y1="308.95" y2="302.65"/><line style="stroke:#00f;stroke-width:3.5" id="line13932" x1="512.65" x2="518.95" y1="302.65" y2="308.95"/><line style="stroke:#00f;stroke-width:3.5" id="line13934" x1="524.9" x2="524.9" y1="300.95" y2="307.25"/><line style="stroke:#00f;stroke-width:3.5" id="line13936" x1="521.75" x2="528.05" y1="304.1" y2="304.1"/><line style="stroke:#00f;stroke-width:3.5" id="line13938" x1="521.75" x2="528.05" y1="307.25" y2="300.95"/><line style="stroke:#00f;stroke-width:3.5" id="line13940" x1="521.75" x2="528.05" y1="300.95" y2="307.25"/><line style="stroke:#00f;stroke-width:3.5" id="line13942" x1="532.9" x2="532.9" y1="299.25" y2="305.55"/><line style="stroke:#00f;stroke-width:3.5" id="line13944" x1="529.75" x2="536.05" y1="302.4" y2="302.4"/><line style="stroke:#00f;stroke-width:3.5" id="line13946" x1="529.75" x2="536.05" y1="305.55" y2="299.25"/><line style="stroke:#00f;stroke-width:3.5" id="line13948" x1="529.75" x2="536.05" y1="299.25" y2="305.55"/><line style="stroke:#00f;stroke-width:3.5" id="line13950" x1="540" x2="540" y1="294.25" y2="300.55"/><line style="stroke:#00f;stroke-width:3.5" id="line13952" x1="536.85" x2="543.15" y1="297.4" y2="297.4"/><line style="stroke:#00f;stroke-width:3.5" id="line13954" x1="536.85" x2="543.15" y1="300.55" y2="294.25"/><line style="stroke:#00f;stroke-width:3.5" id="line13956" x1="536.85" x2="543.15" y1="294.25" y2="300.55"/><line style="stroke:#00f;stroke-width:3.5" id="line13958" x1="587" x2="587" y1="253.85" y2="260.15"/><line style="stroke:#00f;stroke-width:3.5" id="line13960" x1="583.85" x2="590.15" y1="257" y2="257"/><line style="stroke:#00f;stroke-width:3.5" id="line13962" x1="583.85" x2="590.15" y1="260.15" y2="253.85"/><line style="stroke:#00f;stroke-width:3.5" id="line13964" x1="583.85" x2="590.15" y1="253.85" y2="260.15"/><line style="stroke:#00f;stroke-width:3.5" id="line13966" x1="614.5" x2="614.5" y1="253.85" y2="260.15"/><line style="stroke:#00f;stroke-width:3.5" id="line13968" x1="611.35" x2="617.65" y1="257" y2="257"/><line style="stroke:#00f;stroke-width:3.5" id="line13970" x1="611.35" x2="617.65" y1="260.15" y2="253.85"/><line style="stroke:#00f;stroke-width:3.5" id="line13972" x1="611.35" x2="617.65" y1="253.85" y2="260.15"/><line style="stroke:#00f;stroke-width:3.5" id="line13974" x1="634" x2="634" y1="235.45" y2="241.75"/><line style="stroke:#00f;stroke-width:3.5" id="line13976" x1="630.85" x2="637.15" y1="238.6" y2="238.6"/><line style="stroke:#00f;stroke-width:3.5" id="line13978" x1="630.85" x2="637.15" y1="241.75" y2="235.45"/><line style="stroke:#00f;stroke-width:3.5" id="line13980" x1="630.85" x2="637.15" y1="235.45" y2="241.75"/><line style="stroke:#00f;stroke-width:3.5" id="line13982" x1="649.2" x2="649.2" y1="225.35" y2="231.65"/><line style="stroke:#00f;stroke-width:3.5" id="line13984" x1="646.05" x2="652.35" y1="228.5" y2="228.5"/><line style="stroke:#00f;stroke-width:3.5" id="line13986" x1="646.05" x2="652.35" y1="231.65" y2="225.35"/><line style="stroke:#00f;stroke-width:3.5" id="line13988" x1="646.05" x2="652.35" y1="225.35" y2="231.65"/><line style="stroke:#00f;stroke-width:3.5" id="line13990" x1="661.5" x2="661.5" y1="242.15" y2="248.45"/><line style="stroke:#00f;stroke-width:3.5" id="line13992" x1="658.35" x2="664.65" y1="245.3" y2="245.3"/><line style="stroke:#00f;stroke-width:3.5" id="line13994" x1="658.35" x2="664.65" y1="248.45" y2="242.15"/><line style="stroke:#00f;stroke-width:3.5" id="line13996" x1="658.35" x2="664.65" y1="242.15" y2="248.45"/><line style="stroke:#00f;stroke-width:3.5" id="line13998" x1="672" x2="672" y1="223.65" y2="229.95"/><line style="stroke:#00f;stroke-width:3.5" id="line14000" x1="668.85" x2="675.15" y1="226.8" y2="226.8"/><line style="stroke:#00f;stroke-width:3.5" id="line14002" x1="668.85" x2="675.15" y1="229.95" y2="223.65"/><line style="stroke:#00f;stroke-width:3.5" id="line14004" x1="668.85" x2="675.15" y1="223.65" y2="229.95"/><line style="stroke:#00f;stroke-width:3.5" id="line14006" x1="681.1" x2="681.1" y1="237.05" y2="243.35"/><line style="stroke:#00f;stroke-width:3.5" id="line14008" x1="677.95" x2="684.25" y1="240.2" y2="240.2"/><line style="stroke:#00f;stroke-width:3.5" id="line14010" x1="677.95" x2="684.25" y1="243.35" y2="237.05"/><line style="stroke:#00f;stroke-width:3.5" id="line14012" x1="677.95" x2="684.25" y1="237.05" y2="243.35"/><line style="stroke:#00f;stroke-width:3.5" id="line14014" x1="689.1" x2="689.1" y1="235.45" y2="241.75"/><line style="stroke:#00f;stroke-width:3.5" id="line14016" x1="685.95" x2="692.25" y1="238.6" y2="238.6"/><line style="stroke:#00f;stroke-width:3.5" id="line14018" x1="685.95" x2="692.25" y1="241.75" y2="235.45"/><line style="stroke:#00f;stroke-width:3.5" id="line14020" x1="685.95" x2="692.25" y1="235.45" y2="241.75"/><line style="stroke:#00f;stroke-width:3.5" id="line14022" x1="659.4" x2="659.4" y1="445.55" y2="451.85"/><line style="stroke:#00f;stroke-width:3.5" id="line14024" x1="656.25" x2="662.55" y1="448.7" y2="448.7"/><line style="stroke:#00f;stroke-width:3.5" id="line14026" x1="656.25" x2="662.55" y1="451.85" y2="445.55"/><line style="stroke:#00f;stroke-width:3.5" id="line14028" x1="656.25" x2="662.55" y1="445.55" y2="451.85"/><text style="font-size:14px;fill:#f0f;stroke:none;font-family:'Helvetica',sans-serif" id="text14030" transform="matrix(1.000000,0.000000,0.000000,-1.000000,592.9800,430.1000)">Psyco</text><line style="stroke:#f0f;stroke-width:3.5;stroke-dasharray:1 1.5" id="line14032" x1="639.5" x2="679.4" y1="434.7" y2="434.7"/><polyline style="stroke:#f0f;stroke-width:3.5;stroke-dasharray:1 1.5" id="polyline14034" points="71.398 95.797 118.4 156.2 145.9 184.8 165.4 205 180.6 223.4 192.9 238.6 203.4 247 212.5 258.7 220.5 263.8 227.6 273.8 274.6 357.8 302.1 373 321.6 389.8 336.8 384.7 349.1 393.1 359.6 398.2 368.7 393.1 376.7 398.2 383.8 388.1 430.8 401.5 458.3 411.6 477.8 436.8 493 423.4 505.3 428.4 515.8 433.4 524.9 431.8 532.9 421.7 540 428.4 587 435.1 614.5 357.8 634 337.7 649.2 322.6 661.5 315.8 672 309.1 681.1 315.8 689.1 300.7"/><polygon style="stroke:#f0f;stroke-width:3.5" id="polygon14036" points="68.25 92.648 74.547 92.648 74.547 98.945 68.25 98.945 68.25 92.648"/><line style="stroke:#f0f;stroke-width:3.5;stroke-linecap:round" id="line14038" x1="71.398" x2="71.398" y1="95.797" y2="95.797"/><polygon style="stroke:#f0f;stroke-width:3.5" id="polygon14040" points="115.25 153.05 121.55 153.05 121.55 159.34 115.25 159.34 115.25 153.05"/><line style="stroke:#f0f;stroke-width:3.5;stroke-linecap:round" id="line14042" x1="118.4" x2="118.4" y1="156.2" y2="156.2"/><polygon style="stroke:#f0f;stroke-width:3.5" id="polygon14044" points="142.75 181.65 149.05 181.65 149.05 187.95 142.75 187.95 142.75 181.65"/><line style="stroke:#f0f;stroke-width:3.5;stroke-linecap:round" id="line14046" x1="145.9" x2="145.9" y1="184.8" y2="184.8"/><polygon style="stroke:#f0f;stroke-width:3.5" id="polygon14048" points="162.25 201.85 168.55 201.85 168.55 208.15 162.25 208.15 162.25 201.85"/><line style="stroke:#f0f;stroke-width:3.5;stroke-linecap:round" id="line14050" x1="165.4" x2="165.4" y1="205" y2="205"/><polygon style="stroke:#f0f;stroke-width:3.5" id="polygon14052" points="177.45 220.25 183.75 220.25 183.75 226.55 177.45 226.55 177.45 220.25"/><line style="stroke:#f0f;stroke-width:3.5;stroke-linecap:round" id="line14054" x1="180.6" x2="180.6" y1="223.4" y2="223.4"/><polygon style="stroke:#f0f;stroke-width:3.5" id="polygon14056" points="189.75 235.45 196.05 235.45 196.05 241.75 189.75 241.75 189.75 235.45"/><line style="stroke:#f0f;stroke-width:3.5;stroke-linecap:round" id="line14058" x1="192.9" x2="192.9" y1="238.6" y2="238.6"/><polygon style="stroke:#f0f;stroke-width:3.5" id="polygon14060" points="200.25 243.85 206.55 243.85 206.55 250.15 200.25 250.15 200.25 243.85"/><line style="stroke:#f0f;stroke-width:3.5;stroke-linecap:round" id="line14062" x1="203.4" x2="203.4" y1="247" y2="247"/><polygon style="stroke:#f0f;stroke-width:3.5" id="polygon14064" points="209.35 255.55 215.65 255.55 215.65 261.84 209.35 261.84 209.35 255.55"/><line style="stroke:#f0f;stroke-width:3.5;stroke-linecap:round" id="line14066" x1="212.5" x2="212.5" y1="258.7" y2="258.7"/><polygon style="stroke:#f0f;stroke-width:3.5" id="polygon14068" points="217.35 260.65 223.65 260.65 223.65 266.95 217.35 266.95 217.35 260.65"/><line style="stroke:#f0f;stroke-width:3.5;stroke-linecap:round" id="line14070" x1="220.5" x2="220.5" y1="263.8" y2="263.8"/><polygon style="stroke:#f0f;stroke-width:3.5" id="polygon14072" points="224.45 270.65 230.75 270.65 230.75 276.95 224.45 276.95 224.45 270.65"/><line style="stroke:#f0f;stroke-width:3.5;stroke-linecap:round" id="line14074" x1="227.6" x2="227.6" y1="273.8" y2="273.8"/><polygon style="stroke:#f0f;stroke-width:3.5" id="polygon14076" points="271.45 354.65 277.75 354.65 277.75 360.95 271.45 360.95 271.45 354.65"/><line style="stroke:#f0f;stroke-width:3.5;stroke-linecap:round" id="line14078" x1="274.6" x2="274.6" y1="357.8" y2="357.8"/><polygon style="stroke:#f0f;stroke-width:3.5" id="polygon14080" points="298.95 369.85 305.25 369.85 305.25 376.14 298.95 376.14 298.95 369.85"/><line style="stroke:#f0f;stroke-width:3.5;stroke-linecap:round" id="line14082" x1="302.1" x2="302.1" y1="373" y2="373"/><polygon style="stroke:#f0f;stroke-width:3.5" id="polygon14084" points="318.45 386.65 324.75 386.65 324.75 392.95 318.45 392.95 318.45 386.65"/><line style="stroke:#f0f;stroke-width:3.5;stroke-linecap:round" id="line14086" x1="321.6" x2="321.6" y1="389.8" y2="389.8"/><polygon style="stroke:#f0f;stroke-width:3.5" id="polygon14088" points="333.65 381.55 339.95 381.55 339.95 387.84 333.65 387.84 333.65 381.55"/><line style="stroke:#f0f;stroke-width:3.5;stroke-linecap:round" id="line14090" x1="336.8" x2="336.8" y1="384.7" y2="384.7"/><polygon style="stroke:#f0f;stroke-width:3.5" id="polygon14092" points="345.95 389.95 352.25 389.95 352.25 396.25 345.95 396.25 345.95 389.95"/><line style="stroke:#f0f;stroke-width:3.5;stroke-linecap:round" id="line14094" x1="349.1" x2="349.1" y1="393.1" y2="393.1"/><polygon style="stroke:#f0f;stroke-width:3.5" id="polygon14096" points="356.45 395.05 362.75 395.05 362.75 401.34 356.45 401.34 356.45 395.05"/><line style="stroke:#f0f;stroke-width:3.5;stroke-linecap:round" id="line14098" x1="359.6" x2="359.6" y1="398.2" y2="398.2"/><polygon style="stroke:#f0f;stroke-width:3.5" id="polygon14100" points="365.55 389.95 371.84 389.95 371.84 396.25 365.55 396.25 365.55 389.95"/><line style="stroke:#f0f;stroke-width:3.5;stroke-linecap:round" id="line14102" x1="368.7" x2="368.7" y1="393.1" y2="393.1"/><polygon style="stroke:#f0f;stroke-width:3.5" id="polygon14104" points="373.55 395.05 379.84 395.05 379.84 401.34 373.55 401.34 373.55 395.05"/><line style="stroke:#f0f;stroke-width:3.5;stroke-linecap:round" id="line14106" x1="376.7" x2="376.7" y1="398.2" y2="398.2"/><polygon style="stroke:#f0f;stroke-width:3.5" id="polygon14108" points="380.65 384.95 386.95 384.95 386.95 391.25 380.65 391.25 380.65 384.95"/><line style="stroke:#f0f;stroke-width:3.5;stroke-linecap:round" id="line14110" x1="383.8" x2="383.8" y1="388.1" y2="388.1"/><polygon style="stroke:#f0f;stroke-width:3.5" id="polygon14112" points="427.65 398.35 433.95 398.35 433.95 404.64 427.65 404.64 427.65 398.35"/><line style="stroke:#f0f;stroke-width:3.5;stroke-linecap:round" id="line14114" x1="430.8" x2="430.8" y1="401.5" y2="401.5"/><polygon style="stroke:#f0f;stroke-width:3.5" id="polygon14116" points="455.15 408.45 461.45 408.45 461.45 414.75 455.15 414.75 455.15 408.45"/><line style="stroke:#f0f;stroke-width:3.5;stroke-linecap:round" id="line14118" x1="458.3" x2="458.3" y1="411.6" y2="411.6"/><polygon style="stroke:#f0f;stroke-width:3.5" id="polygon14120" points="474.65 433.65 480.95 433.65 480.95 439.95 474.65 439.95 474.65 433.65"/><line style="stroke:#f0f;stroke-width:3.5;stroke-linecap:round" id="line14122" x1="477.8" x2="477.8" y1="436.8" y2="436.8"/><polygon style="stroke:#f0f;stroke-width:3.5" id="polygon14124" points="489.85 420.25 496.14 420.25 496.14 426.55 489.85 426.55 489.85 420.25"/><line style="stroke:#f0f;stroke-width:3.5;stroke-linecap:round" id="line14126" x1="493" x2="493" y1="423.4" y2="423.4"/><polygon style="stroke:#f0f;stroke-width:3.5" id="polygon14128" points="502.15 425.25 508.45 425.25 508.45 431.55 502.15 431.55 502.15 425.25"/><line style="stroke:#f0f;stroke-width:3.5;stroke-linecap:round" id="line14130" x1="505.3" x2="505.3" y1="428.4" y2="428.4"/><polygon style="stroke:#f0f;stroke-width:3.5" id="polygon14132" points="512.65 430.25 518.95 430.25 518.95 436.55 512.65 436.55 512.65 430.25"/><line style="stroke:#f0f;stroke-width:3.5;stroke-linecap:round" id="line14134" x1="515.8" x2="515.8" y1="433.4" y2="433.4"/><polygon style="stroke:#f0f;stroke-width:3.5" id="polygon14136" points="521.75 428.65 528.05 428.65 528.05 434.95 521.75 434.95 521.75 428.65"/><line style="stroke:#f0f;stroke-width:3.5;stroke-linecap:round" id="line14138" x1="524.9" x2="524.9" y1="431.8" y2="431.8"/><polygon style="stroke:#f0f;stroke-width:3.5" id="polygon14140" points="529.75 418.55 536.05 418.55 536.05 424.84 529.75 424.84 529.75 418.55"/><line style="stroke:#f0f;stroke-width:3.5;stroke-linecap:round" id="line14142" x1="532.9" x2="532.9" y1="421.7" y2="421.7"/><polygon style="stroke:#f0f;stroke-width:3.5" id="polygon14144" points="536.85 425.25 543.15 425.25 543.15 431.55 536.85 431.55 536.85 425.25"/><line style="stroke:#f0f;stroke-width:3.5;stroke-linecap:round" id="line14146" x1="540" x2="540" y1="428.4" y2="428.4"/><polygon style="stroke:#f0f;stroke-width:3.5" id="polygon14148" points="583.85 431.95 590.15 431.95 590.15 438.25 583.85 438.25 583.85 431.95"/><line style="stroke:#f0f;stroke-width:3.5;stroke-linecap:round" id="line14150" x1="587" x2="587" y1="435.1" y2="435.1"/><polygon style="stroke:#f0f;stroke-width:3.5" id="polygon14152" points="611.35 354.65 617.65 354.65 617.65 360.95 611.35 360.95 611.35 354.65"/><line style="stroke:#f0f;stroke-width:3.5;stroke-linecap:round" id="line14154" x1="614.5" x2="614.5" y1="357.8" y2="357.8"/><polygon style="stroke:#f0f;stroke-width:3.5" id="polygon14156" points="630.85 334.55 637.15 334.55 637.15 340.84 630.85 340.84 630.85 334.55"/><line style="stroke:#f0f;stroke-width:3.5;stroke-linecap:round" id="line14158" x1="634" x2="634" y1="337.7" y2="337.7"/><polygon style="stroke:#f0f;stroke-width:3.5" id="polygon14160" points="646.05 319.45 652.34 319.45 652.34 325.75 646.05 325.75 646.05 319.45"/><line style="stroke:#f0f;stroke-width:3.5;stroke-linecap:round" id="line14162" x1="649.2" x2="649.2" y1="322.6" y2="322.6"/><polygon style="stroke:#f0f;stroke-width:3.5" id="polygon14164" points="658.35 312.65 664.65 312.65 664.65 318.95 658.35 318.95 658.35 312.65"/><line style="stroke:#f0f;stroke-width:3.5;stroke-linecap:round" id="line14166" x1="661.5" x2="661.5" y1="315.8" y2="315.8"/><polygon style="stroke:#f0f;stroke-width:3.5" id="polygon14168" points="668.85 305.95 675.15 305.95 675.15 312.25 668.85 312.25 668.85 305.95"/><line style="stroke:#f0f;stroke-width:3.5;stroke-linecap:round" id="line14170" x1="672" x2="672" y1="309.1" y2="309.1"/><polygon style="stroke:#f0f;stroke-width:3.5" id="polygon14172" points="677.95 312.65 684.25 312.65 684.25 318.95 677.95 318.95 677.95 312.65"/><line style="stroke:#f0f;stroke-width:3.5;stroke-linecap:round" id="line14174" x1="681.1" x2="681.1" y1="315.8" y2="315.8"/><polygon style="stroke:#f0f;stroke-width:3.5" id="polygon14176" points="685.95 297.55 692.25 297.55 692.25 303.84 685.95 303.84 685.95 297.55"/><line style="stroke:#f0f;stroke-width:3.5;stroke-linecap:round" id="line14178" x1="689.1" x2="689.1" y1="300.7" y2="300.7"/><polygon style="stroke:#f0f;stroke-width:3.5" id="polygon14180" points="656.25 431.55 662.55 431.55 662.55 437.84 656.25 437.84 656.25 431.55"/><line style="stroke:#f0f;stroke-width:3.5;stroke-linecap:round" id="line14182" x1="659.4" x2="659.4" y1="434.7" y2="434.7"/></g></svg>